<svg xmlns="http://www.w3.org/2000/svg" version="1.1" viewBox="-5.0 -10.0 110.0 135.0">
 <path d="m71.762 100h-43.527c-3.3398 0-6.0938-2.7539-6.0938-6.0938v-30.168c0-3.3398 2.7539-6.0938 6.0938-6.0938h43.527c3.3398 0 6.0938 2.7539 6.0938 6.0938v30.168c0 3.3398-2.7539 6.0938-6.0938 6.0938zm-43.527-39.602c-1.875 0-3.3398 1.5234-3.3398 3.3398v30.168c0 1.8164 1.4648 3.3398 3.3398 3.3398h43.527c1.8164 0 3.3398-1.5234 3.3398-3.3398v-30.168c0-1.8164-1.5234-3.3398-3.3398-3.3398z" fill-rule="evenodd"/>
 <path d="m62.977 91.27h-9.9609c-0.46875 0-0.9375-0.23438-1.1719-0.70312-0.23438-0.41016-0.23438-0.9375 0-1.3477l2.5195-4.3945c0.41016-0.64453 1.2305-0.87891 1.875-0.46875 0.64453 0.35156 0.87891 1.2305 0.52734 1.875l-1.3477 2.2852h7.5586c2.6953 0 4.8633-2.168 4.8633-4.8047v-9.7852c0-2.6367-2.168-4.8047-4.8633-4.8047h-7.9688c-0.76172 0-1.4062-0.64453-1.4062-1.4062 0-0.76172 0.64453-1.3477 1.4062-1.3477h7.9688c4.1602 0 7.5586 3.3984 7.5586 7.5586v9.7852c0 4.1602-3.3984 7.5586-7.5586 7.5586zm-17.984 0h-8.0273c-4.1602 0-7.5586-3.3984-7.5586-7.5586v-9.7852c0-4.1602 3.3984-7.5586 7.5586-7.5586h9.9609c0.52734 0 0.9375 0.23437 1.1719 0.70312 0.29297 0.41016 0.29297 0.9375 0 1.3477l-2.5195 4.3945c-0.35156 0.64453-1.1719 0.87891-1.8164 0.46875-0.70312-0.35156-0.87891-1.1719-0.52734-1.875l1.3477-2.2852h-7.6172c-2.6367 0-4.8047 2.168-4.8047 4.8047v9.7852c0 2.6953 2.168 4.8633 4.8047 4.8633h8.0273c0.76172 0 1.3477 0.58594 1.3477 1.3477s-0.58594 1.3477-1.3477 1.3477z" fill-rule="evenodd"/>
 <path d="m81.781 93.906h-5.332c-0.76172 0-1.3477-0.64453-1.3477-1.4062s0.58594-1.3477 1.3477-1.3477h5.332c3.9844 0 7.1484-3.2227 7.1484-7.1484v-46.809c0-2.6367-2.1094-4.7461-4.6875-4.7461h-27.77c-2.6367 0-4.7461 2.1094-4.7461 4.7461v6.0938c0 0.76172-0.64453 1.3477-1.3477 1.3477h-32.219c-3.9258 0-7.1484 3.2227-7.1484 7.1484v32.219c0 3.9258 3.2227 7.1484 7.1484 7.1484h5.332c0.76172 0 1.4062 0.58594 1.4062 1.3477s-0.64453 1.3477-1.4062 1.3477h-5.332c-5.4492 0-9.9023-4.3945-9.9023-9.8438v-32.16c0-5.5078 4.4531-9.9023 9.9023-9.9023h30.812v-4.7461c0-4.1016 3.3398-7.4414 7.5-7.4414h27.77c4.1016 0 7.4414 3.3398 7.4414 7.4414v46.809c0 5.4492-4.4531 9.9023-9.9023 9.9023z" fill-rule="evenodd"/>
 <path d="m75.922 44.641h-25.543c-0.76172 0-1.4062-0.58594-1.4062-1.3477s0.64453-1.3477 1.4062-1.3477h25.543c0.76172 0 1.4062 0.58594 1.4062 1.3477s-0.64453 1.3477-1.4062 1.3477z" fill-rule="evenodd"/>
 <path d="m9.668 53.191c-0.76172 0-1.4062-0.64453-1.4062-1.3477v-44.406c0-4.1016 3.3984-7.4414 7.5-7.4414h44.348c4.1016 0 7.4414 3.3398 7.4414 7.4414v23.668c0 0.76172-0.58594 1.3477-1.3477 1.3477s-1.3477-0.58594-1.3477-1.3477v-23.668c0-2.5781-2.168-4.6875-4.7461-4.6875h-44.348c-2.6367 0-4.7461 2.1094-4.7461 4.6875v44.406c0 0.70312-0.58594 1.3477-1.3477 1.3477z" fill-rule="evenodd"/>
 <path d="m58.406 10.074h-24.547c-0.76172 0-1.3477-0.58594-1.3477-1.3477 0-0.76172 0.58594-1.4062 1.3477-1.4062h24.547c0.76172 0 1.3477 0.64453 1.3477 1.4062 0 0.76172-0.58594 1.3477-1.3477 1.3477zm-31.809 0h-9.1992c-0.70313 0-1.3477-0.58594-1.3477-1.3477 0-0.76172 0.64453-1.4062 1.3477-1.4062h9.1992c0.76172 0 1.3477 0.64453 1.3477 1.4062 0 0.76172-0.58594 1.3477-1.3477 1.3477z" fill-rule="evenodd"/>
 <path d="m58.406 19.156h-8.6133c-0.76172 0-1.3477-0.58594-1.3477-1.3477 0-0.76172 0.58594-1.4062 1.3477-1.4062h8.6133c0.76172 0 1.3477 0.64453 1.3477 1.4062 0 0.76172-0.58594 1.3477-1.3477 1.3477zm-16.051 0h-24.957c-0.70313 0-1.3477-0.58594-1.3477-1.3477 0-0.76172 0.64453-1.4062 1.3477-1.4062h24.957c0.70312 0 1.3477 0.64453 1.3477 1.4062 0 0.76172-0.64453 1.3477-1.3477 1.3477z" fill-rule="evenodd"/>
 <path d="m49.211 28.238h-17.926c-0.76172 0-1.4062-0.58594-1.4062-1.3477s0.64453-1.4062 1.4062-1.4062h17.926c0.76172 0 1.4062 0.64453 1.4062 1.4062s-0.64453 1.3477-1.4062 1.3477zm-24.371 0h-7.4414c-0.70313 0-1.3477-0.58594-1.3477-1.3477s0.64453-1.4062 1.3477-1.4062h7.4414c0.76172 0 1.4062 0.64453 1.4062 1.4062s-0.64453 1.3477-1.4062 1.3477z" fill-rule="evenodd"/>
 <path d="m42.355 37.316h-12.242c-0.76172 0-1.3477-0.58594-1.3477-1.3477s0.58594-1.4062 1.3477-1.4062h12.242c0.76172 0 1.3477 0.64453 1.3477 1.4062s-0.58594 1.3477-1.3477 1.3477zm-18.629 0h-6.3281c-0.70313 0-1.3477-0.58594-1.3477-1.3477s0.64453-1.4062 1.3477-1.4062h6.3281c0.76172 0 1.3477 0.64453 1.3477 1.4062s-0.58594 1.3477-1.3477 1.3477z" fill-rule="evenodd"/>
<text x="0.0" y="117.5" font-size="5.0" font-weight="bold" font-family="Arbeit Regular, Helvetica, Arial-Unicode, Arial, Sans-serif" fill="#000000">Created by galaxecons</text><text x="0.0" y="122.5" font-size="5.0" font-weight="bold" font-family="Arbeit Regular, Helvetica, Arial-Unicode, Arial, Sans-serif" fill="#000000">from Noun Project</text></svg>