<?xml version="1.0" standalone="no"?>
<!DOCTYPE svg PUBLIC "-//W3C//DTD SVG 20010904//EN"
 "http://www.w3.org/TR/2001/REC-SVG-20010904/DTD/svg10.dtd">
<svg version="1.0" xmlns="http://www.w3.org/2000/svg"
 width="1033.000000pt" height="703.000000pt" viewBox="0 0 1033.000000 703.000000"
 preserveAspectRatio="xMidYMid meet">

<g transform="translate(0.000000,703.000000) scale(0.100000,-0.100000)"
fill="#000000" stroke="none">
<path d="M0 3515 l0 -3515 5165 0 5165 0 0 3515 0 3515 -5165 0 -5165 0 0
-3515z m382 3208 c22 -20 24 -76 2 -97 -20 -21 -63 -20 -86 1 -22 20 -24 76
-2 97 20 21 63 20 86 -1z m398 7 c0 -5 -4 -10 -10 -10 -5 0 -10 5 -10 10 0 6
5 10 10 10 6 0 10 -4 10 -10z m-338 -52 l12 -33 13 33 c12 29 41 48 30 20 -2
-7 -10 -30 -18 -50 -7 -21 -18 -38 -24 -38 -6 0 -17 17 -24 38 -8 20 -16 43
-18 50 -3 6 0 12 6 12 7 0 17 -15 23 -32z m136 20 c7 -7 12 -20 12 -30 0 -13
-8 -18 -30 -18 -16 0 -30 -5 -30 -11 0 -7 11 -9 31 -5 22 4 29 2 27 -7 -3 -6
-19 -13 -36 -15 -27 -3 -34 1 -42 24 -19 49 34 96 68 62z m114 -20 l12 -33 13
33 c12 29 41 48 30 20 -2 -7 -10 -30 -18 -50 -17 -49 -32 -48 -49 2 -17 53
-44 51 -48 -3 -5 -55 -22 -45 -22 13 l0 50 36 0 c31 0 36 -4 46 -32z m88 -18
c0 -27 -4 -50 -10 -50 -5 0 -10 23 -10 50 0 28 5 50 10 50 6 0 10 -22 10 -50z
m88 38 c7 -7 12 -20 12 -30 0 -13 -8 -18 -30 -18 -16 0 -30 -5 -30 -11 0 -7
11 -9 31 -5 22 4 29 2 27 -7 -3 -6 -19 -13 -36 -15 -27 -3 -34 1 -42 24 -19
49 34 96 68 62z m51 -20 l9 -33 7 33 c4 17 13 32 20 32 7 0 16 -15 20 -32 l7
-33 9 33 c11 37 34 45 25 7 -20 -78 -38 -94 -54 -47 l-10 27 -7 -27 c-4 -16
-13 -28 -20 -28 -7 0 -15 12 -19 28 -3 15 -8 37 -12 50 -4 13 -2 22 5 22 6 0
15 -15 20 -32z m4262 -397 c20 -20 29 -39 29 -61 0 -22 -9 -41 -29 -61 -20
-20 -39 -29 -61 -29 -43 0 -90 47 -90 90 0 43 47 90 90 90 22 0 41 -9 61 -29z
m5080 0 c20 -20 29 -39 29 -61 0 -43 -47 -90 -90 -90 -22 0 -41 9 -61 29 -20
20 -29 39 -29 61 0 22 9 41 29 61 20 20 39 29 61 29 22 0 41 -9 61 -29z
m-9763 -19 c5 -32 -15 -52 -49 -52 -24 0 -29 -4 -29 -25 0 -14 -4 -25 -10 -25
-6 0 -10 29 -10 66 l0 65 48 -3 c40 -3 47 -6 50 -26z m156 -5 c8 -6 7 -10 -1
-14 -15 -6 -18 -63 -3 -63 6 0 10 -5 10 -11 0 -6 -8 -9 -17 -7 -22 4 -36 83
-20 113 8 16 11 17 15 5 3 -8 10 -19 16 -23z m36 23 c0 -5 -4 -10 -10 -10 -5
0 -10 5 -10 10 0 6 5 10 10 10 6 0 10 -4 10 -10z m254 -23 c8 -6 7 -10 -1 -14
-15 -6 -18 -63 -3 -63 6 0 10 -5 10 -11 0 -6 -8 -9 -17 -7 -22 4 -36 83 -20
113 8 16 11 17 15 5 3 -8 10 -19 16 -23z m4626 18 c17 -21 7 -29 -18 -14 -11
7 -27 9 -38 4 -16 -6 -12 -10 24 -26 44 -19 55 -46 28 -68 -30 -25 -109 10
-82 36 4 4 12 0 17 -10 12 -21 59 -23 59 -3 0 8 -16 20 -36 26 -19 7 -38 18
-41 26 -14 37 60 61 87 29z m64 -18 c8 -6 7 -10 -1 -14 -15 -6 -18 -63 -3 -63
6 0 10 -5 10 -11 0 -6 -8 -9 -17 -7 -22 4 -36 83 -20 113 8 16 11 17 15 5 3
-8 10 -19 16 -23z m196 -32 l0 -65 -35 0 c-29 0 -37 5 -45 25 -14 37 7 78 37
72 17 -3 23 0 23 14 0 11 5 19 10 19 6 0 10 -28 10 -65z m40 55 c0 -5 -4 -10
-10 -10 -5 0 -10 5 -10 10 0 6 5 10 10 10 6 0 10 -4 10 -10z m-1490 -51 c0
-36 2 -40 23 -37 16 2 23 11 25 31 3 21 9 27 28 27 20 0 24 -5 24 -27 0 -23 5
-28 27 -30 l27 -1 -23 18 c-14 9 -21 22 -17 29 9 14 46 14 46 0 0 -6 -8 -8
-17 -5 -12 4 -9 -1 6 -12 13 -11 21 -24 18 -30 -4 -5 -47 -10 -97 -10 l-90 -1
0 45 c0 24 5 44 10 44 6 0 10 -18 10 -41z m193 -7 c-3 -15 -1 -27 8 -33 11 -7
11 -9 -2 -9 -17 0 -30 52 -21 80 8 23 22 -13 15 -38z m107 39 c0 -6 -4 -12 -9
-16 -5 -3 -12 -19 -16 -35 -4 -17 -11 -30 -16 -30 -11 0 -11 3 1 36 9 21 7 29
-7 40 -16 12 -15 13 15 14 17 0 32 -4 32 -9z m108 -3 c7 -7 12 -21 12 -33 0
-29 -19 -45 -52 -45 -27 0 -28 2 -28 45 0 43 1 45 28 45 15 0 33 -5 40 -12z
m4672 -29 c0 -36 2 -40 23 -37 16 2 23 11 25 31 3 21 9 27 28 27 20 0 24 -5
24 -27 0 -23 5 -28 27 -30 l27 -1 -23 18 c-14 9 -21 22 -17 29 9 14 46 14 46
0 0 -6 -8 -8 -17 -5 -12 4 -9 -1 6 -12 13 -11 21 -24 18 -30 -4 -5 -47 -10
-97 -10 l-90 -1 0 45 c0 24 5 44 10 44 6 0 10 -18 10 -41z m193 -7 c-3 -15 -1
-27 8 -33 11 -7 11 -9 -2 -9 -17 0 -30 52 -21 80 8 23 22 -13 15 -38z m107 39
c0 -6 -4 -12 -9 -16 -5 -3 -12 -19 -16 -35 -4 -17 -11 -30 -16 -30 -11 0 -11
3 1 36 9 21 7 29 -7 40 -16 12 -15 13 15 14 17 0 32 -4 32 -9z m108 -3 c7 -7
12 -21 12 -33 0 -29 -19 -45 -52 -45 -27 0 -28 2 -28 45 0 43 1 45 28 45 15 0
33 -5 40 -12z m-9270 -50 l3 -48 -39 0 c-26 0 -42 5 -46 15 -7 18 19 45 45 45
10 0 19 5 19 11 0 7 -11 9 -30 6 -16 -4 -30 -3 -30 2 0 15 15 22 45 19 28 -3
30 -6 33 -50z m92 2 c0 -27 -4 -50 -10 -50 -5 0 -10 23 -10 50 0 28 5 50 10
50 6 0 10 -22 10 -50z m88 38 c7 -7 12 -20 12 -30 0 -13 -8 -18 -30 -18 -16 0
-30 -5 -30 -11 0 -7 11 -9 31 -5 22 4 29 2 27 -7 -3 -6 -19 -13 -36 -15 -27
-3 -34 1 -42 24 -19 49 34 96 68 62z m110 -40 c2 -29 -1 -48 -7 -48 -6 0 -11
18 -11 41 0 33 -3 40 -17 37 -13 -2 -19 -14 -21 -41 -5 -54 -22 -45 -22 12 l0
49 38 -1 c37 -2 37 -2 40 -49z m4782 11 c0 -33 3 -40 18 -37 12 2 18 14 20 41
5 55 22 45 22 -14 l0 -50 -37 3 c-38 3 -38 3 -41 51 -2 28 1 47 7 47 6 0 11
-18 11 -41z m200 -9 c0 -27 -4 -50 -10 -50 -5 0 -10 23 -10 50 0 28 5 50 10
50 6 0 10 -22 10 -50z m88 38 c7 -7 12 -20 12 -30 0 -13 -8 -18 -30 -18 -16 0
-30 -5 -30 -11 0 -7 11 -9 31 -5 22 4 29 2 27 -7 -3 -6 -19 -13 -36 -15 -27
-3 -34 1 -42 24 -19 49 34 96 68 62z m100 -6 c3 -9 -3 -11 -22 -6 -34 8 -34
-4 0 -16 19 -7 25 -16 22 -33 -4 -28 -48 -36 -69 -11 -12 15 -11 16 19 10 21
-5 32 -4 32 3 0 6 -9 11 -20 11 -23 0 -35 22 -26 46 7 18 57 16 64 -4z m-1196
-27 c4 -32 2 -35 -22 -35 -34 0 -37 4 -32 40 3 23 9 30 27 30 19 0 24 -6 27
-35z m28 20 c0 -8 5 -15 10 -15 6 0 10 6 10 13 0 9 13 14 35 15 19 1 35 -3 35
-9 0 -6 -8 -8 -17 -5 -12 4 -9 -1 6 -12 13 -11 21 -24 17 -31 -9 -14 -43 -14
-52 0 -4 8 1 9 17 4 l24 -6 -25 20 -25 20 -10 -29 c-13 -38 -30 -56 -39 -41
-4 6 -2 11 4 11 12 0 9 24 -6 64 -3 9 -1 16 5 16 6 0 11 -7 11 -15z m5052 -20
c4 -32 2 -35 -22 -35 -34 0 -37 4 -32 40 3 23 9 30 27 30 19 0 24 -6 27 -35z
m28 20 c0 -8 5 -15 10 -15 6 0 10 6 10 13 0 9 13 14 35 15 19 1 35 -3 35 -9 0
-6 -8 -8 -17 -5 -12 4 -9 -1 6 -12 13 -11 21 -24 17 -31 -9 -14 -43 -14 -52 0
-4 8 1 9 17 4 l24 -6 -25 20 -25 20 -10 -29 c-13 -38 -30 -56 -39 -41 -4 6 -2
11 4 11 12 0 9 24 -6 64 -3 9 -1 16 5 16 6 0 11 -7 11 -15z m-4840 -225 c0 -6
-32 -10 -75 -10 -43 0 -75 4 -75 10 0 6 32 10 75 10 43 0 75 -4 75 -10z m5080
0 c0 -6 -32 -10 -75 -10 -43 0 -75 4 -75 10 0 6 32 10 75 10 43 0 75 -4 75
-10z m-5080 -50 c0 -6 -32 -10 -75 -10 -43 0 -75 4 -75 10 0 6 32 10 75 10 43
0 75 -4 75 -10z m5080 0 c0 -6 -32 -10 -75 -10 -43 0 -75 4 -75 10 0 6 32 10
75 10 43 0 75 -4 75 -10z m-5080 -40 c0 -6 -32 -10 -75 -10 -43 0 -75 4 -75
10 0 6 32 10 75 10 43 0 75 -4 75 -10z m5080 0 c0 -6 -32 -10 -75 -10 -43 0
-75 4 -75 10 0 6 32 10 75 10 43 0 75 -4 75 -10z m-6065 -310 l0 -55 -55 0
-55 0 -3 44 c-5 67 0 72 60 69 l53 -3 0 -55z m5080 0 l0 -55 -55 0 -55 0 -3
44 c-5 67 0 72 60 69 l53 -3 0 -55z m-6470 -10 c0 -51 -2 -58 -12 -43 -14 18
-17 61 -7 87 12 31 19 15 19 -44z m85 39 c9 -16 14 -18 26 -9 7 7 21 10 29 6
22 -8 18 -36 -5 -36 -11 0 -20 -5 -20 -11 0 -6 9 -8 21 -4 15 5 19 4 15 -4
-12 -19 -47 -12 -54 11 l-5 22 -8 -22 c-6 -16 -17 -22 -39 -22 -29 0 -30 2
-30 45 0 43 1 45 30 45 19 0 33 -7 40 -21z m274 -34 c0 -19 -4 -39 -9 -44 -6
-6 -10 10 -10 44 0 34 4 51 10 45 5 -6 9 -26 9 -45z m111 10 c0 -38 -2 -40
-32 -43 -33 -3 -33 -3 -33 43 0 46 0 46 33 43 30 -3 32 -5 32 -43z m169 13 c4
6 12 12 18 12 7 0 6 -6 -2 -15 -10 -12 -10 -18 0 -30 7 -9 10 -19 6 -23 -4 -4
-12 2 -18 13 -11 19 -11 19 -19 0 -5 -13 -7 -3 -7 30 0 36 2 43 7 25 5 -17 9
-21 15 -12z m212 6 c-4 -15 -3 -23 2 -20 6 3 12 -6 15 -20 4 -23 2 -25 -27
-22 -28 3 -31 6 -29 32 3 42 10 56 29 56 12 0 15 -6 10 -26z m90 1 c3 -14 10
-25 14 -25 4 0 11 11 14 25 4 17 13 25 28 25 19 0 20 -2 6 -12 -8 -7 -21 -28
-28 -45 -7 -18 -16 -33 -20 -33 -5 0 -15 20 -23 45 -9 25 -12 45 -7 45 5 0 12
-11 16 -25z m511 -7 l10 -33 13 33 c18 49 31 38 13 -13 -21 -64 -32 -60 -57
23 -4 12 -3 22 2 22 5 0 14 -15 19 -32z m131 12 c5 -13 3 -13 -11 -1 -23 18
-47 7 -47 -23 0 -29 11 -39 34 -30 21 8 20 21 -1 27 -14 4 -12 5 5 6 17 1 22
-4 22 -24 0 -21 -5 -25 -28 -25 -15 0 -33 5 -40 12 -16 16 -15 51 0 66 17 17
60 11 66 -8z m89 -27 c2 -24 -2 -43 -7 -43 -6 0 -10 9 -10 20 0 27 -28 25 -40
-2 -7 -19 -9 -14 -9 25 l-1 48 33 -3 c30 -3 32 -5 34 -45z m93 31 c10 -11 11
-23 4 -42 -17 -48 -84 -38 -84 12 0 43 53 63 80 30z m43 -60 c13 -13 27 9 27
42 0 19 5 34 11 34 6 0 9 -17 7 -42 -3 -40 -5 -43 -33 -43 -29 0 -30 2 -32 45
l-1 45 7 -38 c4 -20 11 -40 14 -43z m125 49 c3 -19 -1 -23 -22 -23 -18 0 -26
-6 -29 -22 -2 -13 -5 -1 -6 25 -1 47 0 48 27 45 19 -2 28 -9 30 -25z m128 15
c5 -7 9 -26 9 -43 0 -25 -4 -31 -27 -33 -21 -3 -28 1 -28 14 0 14 3 15 12 6
16 -16 28 -15 28 3 0 8 -5 15 -11 15 -8 0 -7 6 2 17 13 15 12 16 -8 11 -22 -6
-30 2 -16 15 10 11 30 8 39 -5z m64 -39 c0 -21 -4 -39 -10 -39 -5 0 -10 13
-10 29 0 16 -6 32 -12 34 -10 4 -10 8 2 16 21 15 30 4 30 -40z m49 4 c-2 -35
-3 -40 -6 -18 -3 16 -10 33 -16 37 -9 6 -8 11 3 18 8 5 16 10 18 10 1 0 1 -21
1 -47z m60 0 c-2 -35 -3 -40 -6 -18 -3 16 -10 33 -16 37 -9 6 -8 11 3 18 8 5
16 10 18 10 1 0 1 -21 1 -47z m83 7 c5 -32 -9 -65 -19 -42 -2 6 -13 12 -24 12
-24 0 -24 5 2 41 24 34 35 31 41 -11z m2763 -20 c0 -51 -2 -58 -12 -43 -14 18
-17 61 -7 87 12 31 19 15 19 -44z m85 39 c9 -16 14 -18 26 -9 7 7 21 10 29 6
22 -8 18 -36 -5 -36 -11 0 -20 -5 -20 -11 0 -6 9 -8 21 -4 15 5 19 4 15 -4
-12 -19 -47 -12 -54 11 l-5 22 -8 -22 c-6 -16 -17 -22 -39 -22 -29 0 -30 2
-30 45 0 43 1 45 30 45 19 0 33 -7 40 -21z m274 -34 c0 -19 -4 -39 -9 -44 -6
-6 -10 10 -10 44 0 34 4 51 10 45 5 -6 9 -26 9 -45z m111 10 c0 -38 -2 -40
-32 -43 -33 -3 -33 -3 -33 43 0 46 0 46 33 43 30 -3 32 -5 32 -43z m169 13 c4
6 12 12 18 12 7 0 6 -6 -2 -15 -10 -12 -10 -18 0 -30 7 -9 10 -19 6 -23 -4 -4
-12 2 -18 13 -11 19 -11 19 -19 0 -5 -13 -7 -3 -7 30 0 36 2 43 7 25 5 -17 9
-21 15 -12z m212 6 c-4 -15 -3 -23 2 -20 6 3 12 -6 15 -20 4 -23 2 -25 -27
-22 -28 3 -31 6 -29 32 3 42 10 56 29 56 12 0 15 -6 10 -26z m90 1 c3 -14 10
-25 14 -25 4 0 11 11 14 25 4 17 13 25 28 25 19 0 20 -2 6 -12 -8 -7 -21 -28
-28 -45 -7 -18 -16 -33 -20 -33 -5 0 -15 20 -23 45 -9 25 -12 45 -7 45 5 0 12
-11 16 -25z m511 -7 l10 -33 13 33 c18 49 31 38 13 -13 -21 -64 -32 -60 -57
23 -4 12 -3 22 2 22 5 0 14 -15 19 -32z m131 12 c5 -13 3 -13 -11 -1 -23 18
-47 7 -47 -23 0 -29 11 -39 34 -30 21 8 20 21 -1 27 -14 4 -12 5 5 6 17 1 22
-4 22 -24 0 -21 -5 -25 -28 -25 -15 0 -33 5 -40 12 -16 16 -15 51 0 66 17 17
60 11 66 -8z m89 -27 c2 -24 -2 -43 -7 -43 -6 0 -10 9 -10 20 0 27 -28 25 -40
-2 -7 -19 -9 -14 -9 25 l-1 48 33 -3 c30 -3 32 -5 34 -45z m93 31 c10 -11 11
-23 4 -42 -17 -48 -84 -38 -84 12 0 43 53 63 80 30z m43 -60 c13 -13 27 9 27
42 0 19 5 34 11 34 6 0 9 -17 7 -42 -3 -40 -5 -43 -33 -43 -29 0 -30 2 -32 45
l-1 45 7 -38 c4 -20 11 -40 14 -43z m125 49 c3 -19 -1 -23 -22 -23 -18 0 -26
-6 -29 -22 -2 -13 -5 -1 -6 25 -1 47 0 48 27 45 19 -2 28 -9 30 -25z m128 15
c5 -7 9 -26 9 -43 0 -25 -4 -31 -27 -33 -21 -3 -28 1 -28 14 0 14 3 15 12 6
16 -16 28 -15 28 3 0 8 -5 15 -11 15 -8 0 -7 6 2 17 13 15 12 16 -8 11 -22 -6
-30 2 -16 15 10 11 30 8 39 -5z m64 -39 c0 -21 -4 -39 -10 -39 -5 0 -10 13
-10 29 0 16 -6 32 -12 34 -10 4 -10 8 2 16 21 15 30 4 30 -40z m49 4 c-2 -35
-3 -40 -6 -18 -3 16 -10 33 -16 37 -9 6 -8 11 3 18 8 5 16 10 18 10 1 0 1 -21
1 -47z m60 0 c-2 -35 -3 -40 -6 -18 -3 16 -10 33 -16 37 -9 6 -8 11 3 18 8 5
16 10 18 10 1 0 1 -21 1 -47z m83 7 c5 -32 -9 -65 -19 -42 -2 6 -13 12 -24 12
-24 0 -24 5 2 41 24 34 35 31 41 -11z m-7144 -17 c2 -19 -1 -33 -7 -33 -6 0
-11 11 -11 25 0 34 -20 32 -21 -2 l-2 -28 -4 28 c-5 34 -23 36 -23 2 0 -14 -4
-25 -10 -25 -5 0 -10 16 -10 36 l0 35 43 -3 c39 -3 42 -5 45 -35z m67 26 c4
-5 4 -21 1 -35 -5 -19 -12 -25 -29 -22 -37 5 -36 68 2 68 11 0 23 -5 26 -11z
m217 -24 c4 -33 2 -35 -24 -35 -33 0 -39 29 -8 37 11 3 17 9 15 14 -3 4 -13 5
-22 2 -11 -4 -14 -3 -9 5 4 7 15 12 25 12 14 0 20 -9 23 -35z m66 15 c4 -13 3
-13 -10 -2 -19 15 -33 0 -24 -25 5 -13 9 -13 23 -2 14 12 16 12 11 -1 -8 -25
-45 -24 -51 1 -11 41 38 68 51 29z m97 -35 c5 0 13 14 16 30 6 29 7 29 8 -7 1
-34 -2 -38 -24 -38 -22 0 -25 4 -24 38 1 36 2 36 8 7 3 -16 11 -30 16 -30z
m93 22 c3 -22 -1 -30 -17 -34 -12 -3 -21 -12 -21 -20 0 -8 -4 -11 -10 -8 -11
7 -14 78 -3 89 17 17 48 0 51 -27z m222 -2 c0 -19 -4 -35 -10 -35 -5 0 -10 16
-10 35 0 19 5 35 10 35 6 0 10 -16 10 -35z m61 23 c0 -10 2 -10 6 0 8 20 23
14 24 -10 l2 -23 4 23 c5 27 12 28 29 5 13 -17 13 -17 14 0 0 9 4 17 9 17 6 0
6 -12 0 -32 -5 -18 -9 -34 -9 -35 0 -2 -4 -3 -10 -3 -5 0 -10 8 -10 17 0 15
-2 14 -15 -3 -14 -19 -15 -19 -21 2 -4 16 -11 20 -30 16 -13 -2 -24 -9 -24
-14 0 -5 10 -6 23 -3 17 6 19 4 11 -5 -27 -28 -65 7 -50 46 7 17 46 19 47 2z
m4257 -25 c2 -19 -1 -33 -7 -33 -6 0 -11 11 -11 25 0 34 -20 32 -21 -2 l-2
-28 -4 28 c-5 34 -23 36 -23 2 0 -14 -4 -25 -10 -25 -5 0 -10 16 -10 36 l0 35
43 -3 c39 -3 42 -5 45 -35z m67 26 c4 -5 4 -21 1 -35 -5 -19 -12 -25 -29 -22
-37 5 -36 68 2 68 11 0 23 -5 26 -11z m217 -24 c4 -33 2 -35 -24 -35 -33 0
-39 29 -8 37 11 3 17 9 15 14 -3 4 -13 5 -22 2 -11 -4 -14 -3 -9 5 4 7 15 12
25 12 14 0 20 -9 23 -35z m66 15 c4 -13 3 -13 -10 -2 -19 15 -33 0 -24 -25 5
-13 9 -13 23 -2 14 12 16 12 11 -1 -8 -25 -45 -24 -51 1 -11 41 38 68 51 29z
m97 -35 c5 0 13 14 16 30 6 29 7 29 8 -7 1 -34 -2 -38 -24 -38 -22 0 -25 4
-24 38 1 36 2 36 8 7 3 -16 11 -30 16 -30z m93 22 c3 -22 -1 -30 -17 -34 -12
-3 -21 -12 -21 -20 0 -8 -4 -11 -10 -8 -11 7 -14 78 -3 89 17 17 48 0 51 -27z
m222 -2 c0 -19 -4 -35 -10 -35 -5 0 -10 16 -10 35 0 19 5 35 10 35 6 0 10 -16
10 -35z m61 23 c0 -10 2 -10 6 0 8 20 23 14 24 -10 l2 -23 4 23 c5 27 12 28
29 5 13 -17 13 -17 14 0 0 9 4 17 9 17 6 0 6 -12 0 -32 -5 -18 -9 -34 -9 -35
0 -2 -4 -3 -10 -3 -5 0 -10 8 -10 17 0 15 -2 14 -15 -3 -14 -19 -15 -19 -21 2
-4 16 -11 20 -30 16 -13 -2 -24 -9 -24 -14 0 -5 10 -6 23 -3 17 6 19 4 11 -5
-27 -28 -65 7 -50 46 7 17 46 19 47 2z m-4163 -75 c-10 -2 -26 -2 -35 0 -10 3
-2 5 17 5 19 0 27 -2 18 -5z m5080 0 c-10 -2 -26 -2 -35 0 -10 3 -2 5 17 5 19
0 27 -2 18 -5z m-7277 -413 l1949 0 0 -490 0 -490 -1965 0 -1965 0 0 496 c0
448 2 496 16 490 9 -3 893 -6 1965 -6z m5080 0 l1949 0 0 -490 0 -490 -1965 0
-1965 0 0 496 c0 448 2 496 16 490 9 -3 893 -6 1965 -6z m-3316 -1183 c451 -1
-207 -3 -1463 -5 -1256 -1 -2281 1 -2279 6 5 6 1555 6 3742 -1z m5080 0 c451
-1 -207 -3 -1463 -5 -1256 -1 -2281 1 -2279 6 5 6 1555 6 3742 -1z m-8800
-172 c0 -31 -4 -41 -19 -43 -32 -7 -50 50 -24 76 24 24 43 9 43 -33z m600 0
c0 -31 -4 -41 -19 -43 -32 -7 -50 50 -24 76 24 24 43 9 43 -33z m105 35 c0 -5
-10 -10 -22 -11 l-23 0 23 -10 c17 -6 22 -15 20 -31 -3 -25 -34 -36 -51 -19
-9 9 -6 11 8 9 11 -2 22 2 25 7 3 6 -4 11 -16 13 -32 5 -21 52 12 52 13 0 24
-4 24 -10z m590 -35 c0 -25 -4 -45 -10 -45 -5 0 -10 14 -10 30 0 17 -5 30 -11
30 -8 0 -8 5 1 15 21 26 30 17 30 -30z m600 0 c0 -25 -4 -45 -10 -45 -5 0 -10
14 -10 30 0 17 -5 30 -11 30 -8 0 -8 5 1 15 21 26 30 17 30 -30z m110 35 c0
-5 -10 -10 -22 -11 l-23 0 21 -9 c28 -11 36 -24 28 -44 -8 -21 -54 -21 -54 0
0 13 3 14 13 5 8 -6 17 -8 20 -4 13 12 7 23 -13 23 -15 0 -20 7 -20 25 0 20 5
25 25 25 14 0 25 -4 25 -10z m599 -4 c10 -12 8 -19 -8 -35 -26 -26 -26 -29 2
-34 13 -3 7 -5 -16 -6 -34 -1 -37 1 -28 18 6 10 17 21 26 25 23 8 18 29 -5 23
-20 -5 -26 3 -13 16 11 11 30 8 42 -7z m595 8 c22 -8 20 -27 -5 -50 l-21 -19
24 -6 c20 -6 19 -7 -9 -8 -38 -1 -45 22 -13 39 11 6 20 15 20 21 0 6 -9 8 -20
4 -19 -6 -27 5 -13 18 8 9 17 9 37 1z m106 -4 c0 -5 -8 -10 -17 -11 -14 0 -13
-3 5 -11 23 -12 27 -24 13 -46 -11 -17 -43 -12 -49 8 -4 12 -2 13 9 3 18 -17
29 -16 29 2 0 8 -9 15 -20 15 -20 0 -28 28 -13 43 10 11 43 8 43 -3z m596 -2
c5 -7 9 -26 9 -43 0 -25 -4 -31 -27 -33 -21 -3 -28 1 -28 14 0 14 3 15 12 6
16 -16 28 -15 28 3 0 8 -5 15 -11 15 -8 0 -7 6 2 17 13 15 12 16 -8 11 -22 -6
-30 2 -16 15 10 11 30 8 39 -5z m605 5 c1 -5 2 -24 2 -43 2 -31 -1 -35 -22
-35 -13 0 -26 7 -29 15 -4 12 -2 13 9 3 18 -17 29 -16 29 2 0 8 -5 15 -11 15
-8 0 -7 6 2 16 12 15 11 16 -9 10 -21 -7 -30 3 -15 17 9 9 43 9 44 0z m104 -3
c-3 -5 -14 -10 -23 -11 -12 0 -10 -3 6 -10 33 -13 27 -54 -7 -54 -13 0 -26 7
-29 15 -4 12 -2 13 9 3 18 -17 29 -16 29 2 0 9 -9 15 -21 15 -15 0 -19 4 -15
16 3 9 6 20 6 25 0 5 12 9 26 9 14 0 23 -4 19 -10z m470 -35 c0 -31 -4 -41
-19 -43 -32 -7 -50 50 -24 76 24 24 43 9 43 -33z m600 0 c0 -31 -4 -41 -19
-43 -32 -7 -50 50 -24 76 24 24 43 9 43 -33z m105 35 c0 -5 -10 -10 -22 -11
l-23 0 23 -10 c17 -6 22 -15 20 -31 -3 -25 -34 -36 -51 -19 -9 9 -6 11 8 9 11
-2 22 2 25 7 3 6 -4 11 -16 13 -32 5 -21 52 12 52 13 0 24 -4 24 -10z m590
-35 c0 -25 -4 -45 -10 -45 -5 0 -10 14 -10 30 0 17 -5 30 -11 30 -8 0 -8 5 1
15 21 26 30 17 30 -30z m600 0 c0 -25 -4 -45 -10 -45 -5 0 -10 14 -10 30 0 17
-5 30 -11 30 -8 0 -8 5 1 15 21 26 30 17 30 -30z m110 35 c0 -5 -10 -10 -22
-11 l-23 0 21 -9 c28 -11 36 -24 28 -44 -8 -21 -54 -21 -54 0 0 13 3 14 13 5
8 -6 17 -8 20 -4 13 12 7 23 -13 23 -15 0 -20 7 -20 25 0 20 5 25 25 25 14 0
25 -4 25 -10z m599 -4 c10 -12 8 -19 -8 -35 -26 -26 -26 -29 2 -34 13 -3 7 -5
-16 -6 -34 -1 -37 1 -28 18 6 10 17 21 26 25 23 8 18 29 -5 23 -20 -5 -26 3
-13 16 11 11 30 8 42 -7z m595 8 c22 -8 20 -27 -5 -50 l-21 -19 24 -6 c20 -6
19 -7 -9 -8 -38 -1 -45 22 -13 39 11 6 20 15 20 21 0 6 -9 8 -20 4 -19 -6 -27
5 -13 18 8 9 17 9 37 1z m106 -4 c0 -5 -8 -10 -17 -11 -14 0 -13 -3 5 -11 23
-12 27 -24 13 -46 -11 -17 -43 -12 -49 8 -4 12 -2 13 9 3 18 -17 29 -16 29 2
0 8 -9 15 -20 15 -20 0 -28 28 -13 43 10 11 43 8 43 -3z m596 -2 c5 -7 9 -26
9 -43 0 -25 -4 -31 -27 -33 -21 -3 -28 1 -28 14 0 14 3 15 12 6 16 -16 28 -15
28 3 0 8 -5 15 -11 15 -8 0 -7 6 2 17 13 15 12 16 -8 11 -22 -6 -30 2 -16 15
10 11 30 8 39 -5z m605 5 c1 -5 2 -24 2 -43 2 -31 -1 -35 -22 -35 -13 0 -26 7
-29 15 -4 12 -2 13 9 3 18 -17 29 -16 29 2 0 8 -5 15 -11 15 -8 0 -7 6 2 16
12 15 11 16 -9 10 -21 -7 -30 3 -15 17 9 9 43 9 44 0z m104 -3 c-3 -5 -14 -10
-23 -11 -12 0 -10 -3 6 -10 33 -13 27 -54 -7 -54 -13 0 -26 7 -29 15 -4 12 -2
13 9 3 18 -17 29 -16 29 2 0 9 -9 15 -21 15 -15 0 -19 4 -15 16 3 9 6 20 6 25
0 5 12 9 26 9 14 0 23 -4 19 -10z m-7750 -70 c3 -5 1 -10 -4 -10 -6 0 -11 5
-11 10 0 6 2 10 4 10 3 0 8 -4 11 -10z m1300 0 c3 -5 1 -10 -4 -10 -6 0 -11 5
-11 10 0 6 2 10 4 10 3 0 8 -4 11 -10z m1300 0 c3 -5 1 -10 -4 -10 -6 0 -11 5
-11 10 0 6 2 10 4 10 3 0 8 -4 11 -10z m2480 0 c3 -5 1 -10 -4 -10 -6 0 -11 5
-11 10 0 6 2 10 4 10 3 0 8 -4 11 -10z m1300 0 c3 -5 1 -10 -4 -10 -6 0 -11 5
-11 10 0 6 2 10 4 10 3 0 8 -4 11 -10z m1300 0 c3 -5 1 -10 -4 -10 -6 0 -11 5
-11 10 0 6 2 10 4 10 3 0 8 -4 11 -10z m-9835 -740 c0 -5 -16 -10 -35 -10 -24
0 -35 -5 -35 -15 0 -10 10 -15 29 -15 17 0 33 -4 36 -10 4 -6 -8 -10 -29 -10
-33 0 -36 -2 -36 -30 0 -16 -4 -30 -10 -30 -6 0 -10 28 -10 65 l0 65 45 0 c25
0 45 -4 45 -10z m390 0 c0 -5 -4 -10 -10 -10 -5 0 -10 5 -10 10 0 6 5 10 10
10 6 0 10 -4 10 -10z m54 -23 c8 -6 7 -10 -1 -14 -15 -6 -18 -63 -3 -63 6 0
10 -5 10 -11 0 -6 -8 -9 -17 -7 -22 4 -36 83 -20 113 8 16 11 17 15 5 3 -8 10
-19 16 -23z m-346 -49 l3 -48 -39 0 c-26 0 -42 5 -46 15 -7 18 19 45 45 45 10
0 19 5 19 11 0 7 -11 9 -30 6 -16 -4 -30 -3 -30 2 0 15 15 22 45 19 28 -3 30
-6 33 -50z m44 20 l12 -33 13 33 c12 29 41 48 30 20 -2 -7 -10 -30 -18 -50 -7
-21 -18 -38 -24 -38 -6 0 -17 17 -24 38 -8 20 -16 43 -18 50 -3 6 0 12 6 12 7
0 17 -15 23 -32z m134 24 c18 -12 24 -41 14 -67 -12 -32 -64 -35 -80 -5 -19
35 4 80 40 80 8 0 20 -4 26 -8z m84 -1 c0 -5 -7 -11 -15 -15 -9 -3 -15 -19
-15 -41 0 -19 -4 -35 -10 -35 -5 0 -10 23 -10 50 0 47 2 50 25 50 14 0 25 -4
25 -9z m30 -41 c0 -27 -4 -50 -10 -50 -5 0 -10 23 -10 50 0 28 5 50 10 50 6 0
10 -22 10 -50z m138 38 c7 -7 12 -20 12 -30 0 -13 -8 -18 -30 -18 -16 0 -30
-5 -30 -11 0 -7 11 -9 31 -5 22 4 29 2 27 -7 -3 -6 -19 -13 -36 -15 -27 -3
-34 1 -42 24 -19 49 34 96 68 62z m100 -6 c3 -9 -3 -11 -24 -6 -19 5 -25 4
-20 -5 4 -6 14 -11 21 -11 21 0 37 -34 23 -48 -17 -17 -53 -15 -69 4 -12 15
-10 16 19 10 21 -5 32 -4 32 3 0 6 -9 11 -20 11 -23 0 -35 22 -26 46 7 18 57
16 64 -4z m1067 -317 l25 -24 0 -1201 0 -1201 -25 -24 -24 -25 -875 0 c-620 0
-882 3 -899 11 -14 6 -30 22 -36 36 -8 17 -11 363 -11 1214 l0 1190 25 24 24
25 886 0 886 0 24 -25z m2070 0 l25 -24 0 -1201 0 -1201 -25 -24 -24 -25 -886
0 -886 0 -24 25 -25 24 0 1201 0 1201 25 24 24 25 886 0 886 0 24 -25z m2080
0 l25 -24 0 -1201 0 -1201 -25 -24 -24 -25 -891 0 -891 0 -24 25 -25 24 0
1201 0 1201 25 24 24 25 891 0 891 0 24 -25z m2070 0 l25 -24 0 -1201 0 -1201
-25 -24 -24 -25 -886 0 -886 0 -24 25 -25 24 0 1201 0 1201 25 24 24 25 886 0
886 0 24 -25z"/>
<path d="M304 6693 c-4 -14 -2 -33 3 -42 22 -35 73 -19 73 23 0 50 -65 66 -76
19z"/>
<path d="M535 6680 c-3 -5 3 -10 14 -10 12 0 21 5 21 10 0 6 -6 10 -14 10 -8
0 -18 -4 -21 -10z"/>
<path d="M825 6680 c-3 -5 3 -10 14 -10 12 0 21 5 21 10 0 6 -6 10 -14 10 -8
0 -18 -4 -21 -10z"/>
<path d="M420 6249 c0 -16 5 -20 27 -17 17 2 29 10 31 21 3 13 -3 17 -27 17
-25 0 -31 -4 -31 -21z"/>
<path d="M5770 6210 c0 -25 4 -31 18 -28 11 2 17 12 17 28 0 16 -6 26 -17 28
-14 3 -18 -3 -18 -28z"/>
<path d="M4445 6230 c-3 -5 -1 -10 4 -10 6 0 11 5 11 10 0 6 -2 10 -4 10 -3 0
-8 -4 -11 -10z"/>
<path d="M4445 6200 c-3 -5 -2 -10 4 -10 5 0 13 5 16 10 3 6 2 10 -4 10 -5 0
-13 -4 -16 -10z"/>
<path d="M4740 6225 c0 -38 0 -38 24 -29 31 12 14 64 -20 64 -2 0 -4 -16 -4
-35z"/>
<path d="M9525 6230 c-3 -5 -1 -10 4 -10 6 0 11 5 11 10 0 6 -2 10 -4 10 -3 0
-8 -4 -11 -10z"/>
<path d="M9525 6200 c-3 -5 -2 -10 4 -10 5 0 13 5 16 10 3 6 2 10 -4 10 -5 0
-13 -4 -16 -10z"/>
<path d="M9820 6225 c0 -38 0 -38 24 -29 31 12 14 64 -20 64 -2 0 -4 -16 -4
-35z"/>
<path d="M540 6190 c0 -5 6 -10 14 -10 8 0 18 5 21 10 3 6 -3 10 -14 10 -12 0
-21 -4 -21 -10z"/>
<path d="M730 6230 c0 -5 9 -10 20 -10 11 0 20 5 20 10 0 6 -9 10 -20 10 -11
0 -20 -4 -20 -10z"/>
<path d="M5910 6230 c0 -5 9 -10 20 -10 11 0 20 5 20 10 0 6 -9 10 -20 10 -11
0 -20 -4 -20 -10z"/>
<path d="M4825 6230 c-3 -5 -1 -10 4 -10 6 0 11 5 11 10 0 6 -2 10 -4 10 -3 0
-8 -4 -11 -10z"/>
<path d="M4825 6200 c-3 -5 -2 -10 4 -10 5 0 13 5 16 10 3 6 2 10 -4 10 -5 0
-13 -4 -16 -10z"/>
<path d="M9905 6230 c-3 -5 -1 -10 4 -10 6 0 11 5 11 10 0 6 -2 10 -4 10 -3 0
-8 -4 -11 -10z"/>
<path d="M9905 6200 c-3 -5 -2 -10 4 -10 5 0 13 5 16 10 3 6 2 10 -4 10 -5 0
-13 -4 -16 -10z"/>
<path d="M2790 5616 c0 -39 10 -45 31 -20 9 11 10 20 3 32 -20 30 -34 25 -34
-12z"/>
<path d="M2875 5620 c-3 -5 1 -10 10 -10 9 0 13 5 10 10 -3 6 -8 10 -10 10 -2
0 -7 -4 -10 -10z"/>
<path d="M3180 5640 c0 -5 7 -10 15 -10 8 0 15 5 15 10 0 6 -7 10 -15 10 -8 0
-15 -4 -15 -10z"/>
<path d="M3180 5594 c0 -9 5 -14 12 -12 18 6 21 28 4 28 -9 0 -16 -7 -16 -16z"/>
<path d="M3576 5602 c-3 -6 -1 -14 5 -17 15 -10 25 3 12 16 -7 7 -13 7 -17 1z"/>
<path d="M4377 5644 c-9 -10 2 -24 19 -24 8 0 14 7 14 15 0 15 -21 21 -33 9z"/>
<path d="M4464 5636 c-10 -26 0 -51 21 -51 16 0 20 7 20 30 0 33 -30 49 -41
21z"/>
<path d="M4640 5635 c0 -10 7 -15 18 -13 21 4 19 22 -2 26 -10 2 -16 -3 -16
-13z"/>
<path d="M5041 5614 c0 -11 3 -14 6 -6 3 7 2 16 -1 19 -3 4 -6 -2 -5 -13z"/>
<path d="M7870 5616 c0 -39 10 -45 31 -20 9 11 10 20 3 32 -20 30 -34 25 -34
-12z"/>
<path d="M7955 5620 c-3 -5 1 -10 10 -10 9 0 13 5 10 10 -3 6 -8 10 -10 10 -2
0 -7 -4 -10 -10z"/>
<path d="M8260 5640 c0 -5 7 -10 15 -10 8 0 15 5 15 10 0 6 -7 10 -15 10 -8 0
-15 -4 -15 -10z"/>
<path d="M8260 5594 c0 -9 5 -14 12 -12 18 6 21 28 4 28 -9 0 -16 -7 -16 -16z"/>
<path d="M8656 5602 c-3 -6 -1 -14 5 -17 15 -10 25 3 12 16 -7 7 -13 7 -17 1z"/>
<path d="M9457 5644 c-9 -10 2 -24 19 -24 8 0 14 7 14 15 0 15 -21 21 -33 9z"/>
<path d="M9544 5636 c-10 -26 0 -51 21 -51 16 0 20 7 20 30 0 33 -30 49 -41
21z"/>
<path d="M9720 5635 c0 -10 7 -15 18 -13 21 4 19 22 -2 26 -10 2 -16 -3 -16
-13z"/>
<path d="M10121 5614 c0 -11 3 -14 6 -6 3 7 2 16 -1 19 -3 4 -6 -2 -5 -13z"/>
<path d="M3035 5610 c-7 -12 2 -30 16 -30 5 0 9 9 9 20 0 21 -15 27 -25 10z"/>
<path d="M3260 5589 c0 -5 5 -7 10 -4 6 3 10 8 10 11 0 2 -4 4 -10 4 -5 0 -10
-5 -10 -11z"/>
<path d="M3514 5616 c-4 -10 -2 -22 4 -28 8 -8 13 -7 18 6 4 10 2 22 -4 28 -8
8 -13 7 -18 -6z"/>
<path d="M8115 5610 c-7 -12 2 -30 16 -30 5 0 9 9 9 20 0 21 -15 27 -25 10z"/>
<path d="M8340 5589 c0 -5 5 -7 10 -4 6 3 10 8 10 11 0 2 -4 4 -10 4 -5 0 -10
-5 -10 -11z"/>
<path d="M8594 5616 c-4 -10 -2 -22 4 -28 8 -8 13 -7 18 6 4 10 2 22 -4 28 -8
8 -13 7 -18 -6z"/>
<path d="M580 4655 l0 -475 1300 0 1300 0 0 475 0 475 -1300 0 -1300 0 0 -475z
m1327 29 c3 -9 1 -25 -6 -35 -7 -12 -7 -19 -1 -19 5 0 10 -4 10 -10 0 -5 -13
-10 -30 -10 -36 0 -38 15 -7 49 12 14 14 19 4 12 -20 -16 -32 -9 -24 14 8 20
46 19 54 -1z"/>
<path d="M5660 4655 l0 -475 1300 0 1300 0 0 475 0 475 -1300 0 -1300 0 0
-475z m1327 29 c3 -9 1 -25 -6 -35 -7 -12 -7 -19 -1 -19 5 0 10 -4 10 -10 0
-5 -13 -10 -30 -10 -36 0 -38 15 -7 49 12 14 14 19 4 12 -20 -16 -32 -9 -24
14 8 20 46 19 54 -1z"/>
<path d="M562 3786 c2 -15 8 -26 13 -26 15 0 12 43 -3 48 -10 3 -13 -4 -10
-22z"/>
<path d="M1162 3786 c2 -15 8 -26 13 -26 15 0 12 43 -3 48 -10 3 -13 -4 -10
-22z"/>
<path d="M5642 3786 c2 -15 8 -26 13 -26 15 0 12 43 -3 48 -10 3 -13 -4 -10
-22z"/>
<path d="M6242 3786 c2 -15 8 -26 13 -26 15 0 12 43 -3 48 -10 3 -13 -4 -10
-22z"/>
<path d="M420 2920 c0 -5 6 -10 14 -10 8 0 18 5 21 10 3 6 -3 10 -14 10 -12 0
-21 -4 -21 -10z"/>
<path d="M610 2940 c0 -23 4 -30 20 -30 16 0 20 7 20 30 0 23 -4 30 -20 30
-16 0 -20 -7 -20 -30z"/>
<path d="M865 2960 c-3 -5 3 -10 14 -10 12 0 21 5 21 10 0 6 -6 10 -14 10 -8
0 -18 -4 -21 -10z"/>
<path d="M270 2640 c-20 -20 -20 -33 -20 -1210 0 -1177 0 -1190 20 -1210 20
-20 33 -20 895 -20 862 0 875 0 895 20 20 20 20 33 20 1210 0 1177 0 1190 -20
1210 -20 20 -33 20 -895 20 -862 0 -875 0 -895 -20z m1374 -221 c24 -27 27
-38 22 -68 -7 -46 -55 -91 -96 -91 -41 0 -89 45 -96 90 -4 27 -1 42 16 63 44
56 106 58 154 6z m204 7 c6 -15 23 -27 42 -31 l32 -7 -23 -24 c-16 -18 -20
-30 -16 -54 l7 -30 -30 15 c-27 14 -33 14 -60 0 l-30 -15 7 30 c4 24 0 36 -16
54 l-23 24 32 7 c19 4 36 16 42 31 6 13 14 24 18 24 4 0 12 -11 18 -24z
m-1348 -66 c0 -47 -3 -60 -15 -60 -11 0 -15 11 -15 39 0 22 -5 41 -12 44 -9 3
-7 10 7 21 31 24 35 20 35 -44z m98 21 c6 -59 -5 -83 -36 -79 -33 4 -49 48
-33 91 9 23 16 28 39 25 23 -3 28 -8 30 -37z m90 0 c6 -59 -5 -83 -36 -79 -33
4 -49 48 -33 91 9 23 16 28 39 25 23 -3 28 -8 30 -37z m90 0 c6 -59 -5 -83
-36 -79 -33 4 -49 48 -33 91 9 23 16 28 39 25 23 -3 28 -8 30 -37z m302 -661
c0 -5 -4 -10 -10 -10 -5 0 -10 5 -10 10 0 6 5 10 10 10 6 0 10 -4 10 -10z m70
0 c0 -5 -11 -10 -25 -10 -14 0 -25 5 -25 10 0 6 11 10 25 10 14 0 25 -4 25
-10z m94 -16 c7 -19 -10 -44 -31 -44 -17 0 -27 24 -19 45 7 20 42 19 50 -1z
m-164 -14 c0 -5 -4 -10 -10 -10 -5 0 -10 5 -10 10 0 6 5 10 10 10 6 0 10 -4
10 -10z m70 0 c0 -5 -11 -10 -25 -10 -14 0 -25 5 -25 10 0 6 11 10 25 10 14 0
25 -4 25 -10z m-70 -30 c0 -5 -4 -10 -10 -10 -5 0 -10 5 -10 10 0 6 5 10 10
10 6 0 10 -4 10 -10z m60 0 c12 -8 9 -10 -12 -10 -16 0 -28 5 -28 10 0 13 20
13 40 0z m115 -30 c23 -26 19 -29 -44 -37 -42 -5 -51 -3 -51 10 0 18 37 47 61
47 9 0 24 -9 34 -20z m-381 -386 c8 -21 -11 -44 -35 -44 -12 0 -19 -7 -19 -20
0 -11 -4 -20 -10 -20 -5 0 -10 23 -10 50 l0 50 34 0 c22 0 36 -6 40 -16z m125
-22 c-12 -5 -12 -42 1 -42 6 0 10 -4 10 -10 0 -5 -9 -10 -19 -10 -14 0 -20 9
-24 38 -5 46 10 70 29 45 7 -10 8 -19 3 -21z m41 -12 c0 -27 -4 -50 -10 -50
-5 0 -10 23 -10 50 0 28 5 50 10 50 6 0 10 -22 10 -50z m205 -5 c1 -30 -3 -45
-11 -45 -15 0 -24 71 -11 88 14 18 20 8 22 -43z m85 15 c0 -36 3 -40 25 -40
14 0 25 -4 25 -10 0 -5 -18 -10 -40 -10 l-40 0 0 50 c0 38 4 50 15 50 11 0 15
-11 15 -40z m80 -10 c0 -27 -4 -50 -10 -50 -5 0 -10 23 -10 50 0 28 5 50 10
50 6 0 10 -22 10 -50z m125 -5 c1 -30 -3 -45 -11 -45 -15 0 -24 71 -11 88 14
18 20 8 22 -43z m-584 -7 c6 -38 5 -38 -28 -38 -31 0 -33 2 -31 33 2 43 6 49
31 45 16 -2 23 -12 28 -40z m158 28 c7 -8 9 -25 5 -41 -5 -21 -11 -26 -33 -23
-27 3 -39 32 -27 64 7 18 40 18 55 0z m89 -28 c2 -22 -1 -38 -7 -38 -6 0 -11
14 -11 31 0 38 -24 35 -28 -4 -5 -42 -22 -32 -22 12 0 38 1 39 33 38 29 -2 32
-5 35 -39z m286 10 c7 -37 -3 -51 -35 -46 -17 2 -25 10 -26 28 -3 38 4 50 30
50 19 0 26 -7 31 -32z m-396 -525 c11 -12 29 -17 50 -15 21 2 32 -1 32 -9 0
-10 3 -10 12 -1 16 16 58 15 59 0 0 -10 2 -10 6 0 7 18 60 15 67 -4 11 -28 6
-54 -9 -54 -9 0 -16 10 -16 28 l-2 27 -4 -28 c-3 -22 -9 -28 -23 -24 -10 2
-24 1 -31 -4 -7 -4 -21 -3 -31 2 -14 8 -26 5 -47 -11 -38 -26 -41 -26 -41 10
l0 30 -20 -20 c-24 -24 -29 -24 -58 -4 -27 19 -28 48 -2 74 25 25 35 25 58 3z"/>
<path d="M1512 2417 c-50 -53 -13 -137 59 -137 47 0 79 34 79 81 0 71 -90 107
-138 56z m85 -23 c7 -19 -7 -46 -28 -52 -9 -3 -8 2 5 17 15 16 17 24 8 33 -8
8 -15 8 -27 -2 -8 -7 -15 -8 -15 -3 0 27 47 32 57 7z m-17 -84 c0 -5 -4 -10
-10 -10 -5 0 -10 5 -10 10 0 6 5 10 10 10 6 0 10 -4 10 -10z"/>
<path d="M548 2377 c-6 -30 9 -70 22 -62 16 10 13 85 -4 85 -7 0 -16 -11 -18
-23z"/>
<path d="M638 2377 c-6 -30 9 -70 22 -62 16 10 13 85 -4 85 -7 0 -16 -11 -18
-23z"/>
<path d="M728 2377 c-6 -30 9 -70 22 -62 16 10 13 85 -4 85 -7 0 -16 -11 -18
-23z"/>
<path d="M820 1230 c0 -5 7 -10 15 -10 8 0 15 5 15 10 0 6 -7 10 -15 10 -8 0
-15 -4 -15 -10z"/>
<path d="M1078 1183 c7 -3 16 -2 19 1 4 3 -2 6 -13 5 -11 0 -14 -3 -6 -6z"/>
<path d="M1046 661 c-9 -14 5 -42 18 -38 15 5 14 39 -1 44 -6 2 -14 0 -17 -6z"/>
<path d="M1141 634 c0 -11 3 -14 6 -6 3 7 2 16 -1 19 -3 4 -6 -2 -5 -13z"/>
<path d="M2340 2640 c-20 -20 -20 -33 -20 -1210 0 -1177 0 -1190 20 -1210 20
-20 33 -20 895 -20 862 0 875 0 895 20 20 20 20 33 20 1210 0 1177 0 1190 -20
1210 -20 20 -33 20 -895 20 -862 0 -875 0 -895 -20z m1374 -221 c24 -27 27
-38 22 -68 -7 -46 -55 -91 -96 -91 -41 0 -89 45 -96 90 -4 27 -1 42 16 63 44
56 106 58 154 6z m206 11 c10 -24 19 -30 41 -30 34 0 37 -10 9 -35 -16 -15
-19 -26 -14 -53 6 -32 5 -34 -12 -27 -10 5 -30 9 -44 9 -14 0 -34 -4 -44 -9
-17 -7 -18 -5 -12 27 5 27 2 38 -14 53 -28 25 -25 35 9 35 22 0 31 6 41 30 7
17 16 30 20 30 4 0 13 -13 20 -30z m-1350 -44 c0 -19 4 -38 10 -41 6 -4 5 -13
-3 -25 -14 -23 -27 -26 -27 -6 0 8 -11 16 -25 18 l-24 3 27 42 c15 24 30 43
35 43 4 0 7 -15 7 -34z m104 -4 c13 -48 -6 -84 -42 -80 -23 3 -28 8 -30 37 -6
59 5 83 36 79 20 -2 29 -11 36 -36z m83 18 c7 -26 19 -26 26 1 4 16 12 20 34
17 24 -3 28 -8 31 -37 6 -56 -5 -81 -34 -81 -16 0 -27 7 -33 22 l-8 22 -12
-22 c-9 -17 -20 -22 -39 -20 -23 2 -28 9 -30 37 -6 56 5 81 34 81 17 0 28 -7
31 -20z m533 -590 c0 -16 -4 -30 -10 -30 -5 0 -10 14 -10 30 0 17 5 30 10 30
6 0 10 -13 10 -30z m-40 -10 c0 -11 -4 -20 -10 -20 -5 0 -10 9 -10 20 0 11 5
20 10 20 6 0 10 -9 10 -20z m-40 -5 c0 -8 -4 -15 -10 -15 -5 0 -10 7 -10 15 0
8 5 15 10 15 6 0 10 -7 10 -15z m69 -56 c19 -7 30 -17 27 -24 -2 -7 1 -18 7
-24 6 -6 8 -14 4 -18 -4 -4 -12 -2 -18 4 -6 6 -17 9 -24 7 -7 -3 -17 8 -24 27
-16 46 -18 44 28 28z m-462 -385 c3 -8 1 -20 -5 -26 -8 -8 -6 -18 5 -34 14
-22 14 -24 -1 -24 -9 0 -21 9 -28 20 -7 11 -16 20 -20 20 -5 0 -8 -9 -8 -20 0
-11 -4 -20 -10 -20 -5 0 -10 23 -10 50 l0 50 35 0 c23 0 38 -6 42 -16z m483 7
c0 -5 10 -11 23 -13 18 -2 23 -10 25 -40 2 -22 -1 -38 -7 -38 -6 0 -11 14 -11
31 0 38 -24 35 -28 -4 -6 -47 -22 -29 -22 23 0 28 5 50 10 50 6 0 10 -4 10 -9z
m180 -1 c0 -5 -12 -11 -27 -11 -24 -2 -25 -2 -5 -6 27 -5 29 -33 2 -33 -13 0
-20 -7 -20 -20 0 -11 -4 -20 -10 -20 -5 0 -10 23 -10 50 l0 50 35 0 c19 0 35
-4 35 -10z m-585 -50 c0 -29 -4 -36 -22 -38 -30 -4 -53 39 -33 63 7 9 23 15
34 13 17 -2 21 -10 21 -38z m79 8 c7 -37 -3 -51 -35 -46 -17 2 -25 10 -26 28
-3 38 4 50 30 50 19 0 26 -7 31 -32z m75 18 c7 -8 9 -25 5 -41 -5 -21 -11 -26
-33 -23 -27 3 -39 32 -27 64 7 18 40 18 55 0z m82 -28 c6 -38 5 -38 -28 -38
-31 0 -33 2 -31 33 2 43 6 49 31 45 16 -2 23 -12 28 -40z m69 33 c0 -5 -7 -11
-15 -15 -8 -3 -15 -17 -15 -31 0 -14 -4 -25 -10 -25 -5 0 -10 18 -10 40 0 36
3 40 25 40 14 0 25 -4 25 -9z m64 -7 c4 -11 0 -14 -17 -12 -14 2 -22 -2 -22
-12 0 -10 8 -14 23 -12 15 1 22 -2 20 -10 -3 -7 -18 -13 -34 -13 -23 0 -30 5
-32 23 -6 42 47 74 62 36z m291 -24 c0 -32 -2 -35 -30 -35 -24 0 -31 5 -33 23
-6 38 5 54 35 50 25 -3 28 -7 28 -38z m65 30 c0 -5 -4 -10 -10 -10 -5 0 -10
-13 -10 -30 0 -20 -5 -30 -15 -30 -10 0 -15 10 -15 33 0 19 3 37 7 40 10 11
43 8 43 -3z m118 -32 c2 -22 -1 -38 -7 -38 -6 0 -11 11 -11 24 0 14 -4 28 -10
31 -6 4 -10 -7 -10 -24 0 -21 -5 -31 -15 -31 -10 0 -15 10 -15 31 0 17 -4 28
-10 24 -5 -3 -10 -17 -10 -31 0 -13 -4 -24 -10 -24 -5 0 -10 18 -10 40 l0 40
53 -2 52 -3 3 -37z m-738 -180 l9 -23 7 23 c4 13 14 22 25 22 16 0 19 -8 19
-50 0 -51 -19 -72 -21 -22 l-1 27 -10 -27 c-5 -16 -16 -28 -24 -28 -8 0 -15
11 -15 28 l-2 27 -4 -27 c-7 -47 -23 -31 -23 22 0 38 4 50 15 50 9 0 20 -10
25 -22z m138 -41 c3 -38 3 -38 -30 -35 -40 4 -49 29 -16 47 13 6 15 9 6 7 -12
-4 -18 0 -18 10 0 11 8 14 28 12 23 -3 27 -8 30 -41z m80 1 c2 -22 -1 -38 -7
-38 -6 0 -11 14 -11 30 0 17 -4 30 -10 30 -5 0 -10 -13 -10 -30 0 -20 -5 -30
-15 -30 -11 0 -15 11 -15 41 0 39 1 40 33 37 29 -3 32 -6 35 -40z m80 0 c3
-36 2 -38 -27 -38 -34 0 -48 15 -32 34 6 7 8 16 5 19 -12 11 8 28 29 25 17 -2
23 -11 25 -40z m92 -1 c0 -49 -13 -67 -48 -67 -19 0 -23 4 -19 20 3 11 1 23
-4 26 -13 8 -11 38 3 52 7 7 25 12 40 12 26 0 28 -3 28 -43z m70 23 c15 -28
-4 -62 -33 -58 -22 3 -34 35 -23 64 8 21 44 17 56 -6z m70 11 c0 -5 -7 -11
-15 -15 -8 -3 -15 -17 -15 -31 0 -14 -4 -25 -10 -25 -5 0 -10 18 -10 40 0 36
3 40 25 40 14 0 25 -4 25 -9z"/>
<path d="M3582 2417 c-50 -53 -13 -137 59 -137 47 0 79 34 79 81 0 71 -90 107
-138 56z m85 -23 c7 -19 -7 -46 -28 -52 -9 -3 -8 2 5 17 15 16 17 24 8 33 -8
8 -15 8 -27 -2 -8 -7 -15 -8 -15 -3 0 27 47 32 57 7z m-17 -84 c0 -5 -4 -10
-10 -10 -5 0 -10 5 -10 10 0 6 5 10 10 10 6 0 10 -4 10 -10z"/>
<path d="M3890 2410 c0 -6 -12 -15 -27 -21 -20 -7 -23 -13 -15 -21 7 -7 12
-21 12 -33 0 -17 6 -20 40 -20 34 0 40 3 40 20 0 12 5 26 12 33 8 8 5 14 -15
21 -15 6 -27 15 -27 21 0 5 -4 10 -10 10 -5 0 -10 -5 -10 -10z"/>
<path d="M2535 2360 c-3 -5 -1 -10 4 -10 6 0 11 5 11 10 0 6 -2 10 -4 10 -3 0
-8 -4 -11 -10z"/>
<path d="M2620 2361 c0 -47 16 -62 29 -28 12 31 3 67 -15 67 -10 0 -14 -13
-14 -39z"/>
<path d="M2710 2361 c0 -47 16 -62 29 -28 12 31 3 67 -15 67 -10 0 -14 -13
-14 -39z"/>
<path d="M2798 2377 c-6 -30 9 -70 22 -62 16 10 13 85 -4 85 -7 0 -16 -11 -18
-23z"/>
<path d="M2760 1340 c0 -5 6 -10 14 -10 8 0 18 5 21 10 3 6 -3 10 -14 10 -12
0 -21 -4 -21 -10z"/>
<path d="M3018 1293 c7 -3 16 -2 19 1 4 3 -2 6 -13 5 -11 0 -14 -3 -6 -6z"/>
<path d="M3516 1323 c-12 -12 -6 -33 9 -33 8 0 15 6 15 14 0 17 -14 28 -24 19z"/>
<path d="M3340 1090 c0 -11 5 -20 10 -20 6 0 10 9 10 20 0 11 -4 20 -10 20 -5
0 -10 -9 -10 -20z"/>
<path d="M4410 2640 c-20 -20 -20 -33 -20 -1210 0 -1177 0 -1190 20 -1210 20
-20 33 -20 900 -20 867 0 880 0 900 20 20 20 20 33 20 1210 0 1177 0 1190 -20
1210 -20 20 -33 20 -900 20 -867 0 -880 0 -900 -20z m1384 -221 c24 -27 27
-38 22 -68 -7 -46 -55 -91 -96 -91 -41 0 -89 45 -96 90 -4 27 -1 42 16 63 44
56 106 58 154 6z m204 7 c6 -15 23 -27 42 -31 l32 -7 -23 -24 c-16 -18 -20
-30 -16 -54 l7 -30 -30 15 c-27 14 -33 14 -60 0 l-30 -15 7 30 c4 24 0 36 -16
54 l-23 24 32 7 c19 4 36 16 42 31 6 13 14 24 18 24 4 0 12 -11 18 -24z
m-1358 -40 c0 -19 4 -38 10 -41 6 -4 5 -13 -3 -25 -14 -23 -27 -26 -27 -6 0 8
-11 16 -25 18 l-24 3 27 42 c15 24 30 43 35 43 4 0 7 -15 7 -34z m100 15 c14
-26 13 -74 -2 -89 -17 -17 -55 -15 -62 4 -10 26 -7 79 6 92 18 18 46 14 58 -7z
m90 0 c14 -26 13 -74 -2 -89 -17 -17 -55 -15 -62 4 -10 26 -7 79 6 92 18 18
46 14 58 -7z m94 -19 c13 -48 -6 -84 -42 -80 -23 3 -28 8 -30 37 -6 59 5 83
36 79 20 -2 29 -11 36 -36z m436 -682 c0 -16 -4 -30 -10 -30 -5 0 -10 14 -10
30 0 17 5 30 10 30 6 0 10 -13 10 -30z m-40 -10 c0 -11 -4 -20 -10 -20 -5 0
-10 9 -10 20 0 11 5 20 10 20 6 0 10 -9 10 -20z m-40 -5 c0 -8 -4 -15 -10 -15
-5 0 -10 7 -10 15 0 8 5 15 10 15 6 0 10 -7 10 -15z m69 -56 c19 -7 30 -17 27
-24 -2 -7 1 -18 7 -24 6 -6 8 -14 4 -18 -4 -4 -12 -2 -18 4 -6 6 -17 9 -24 7
-7 -3 -17 8 -24 27 -16 46 -18 44 28 28z m-709 -419 c0 -38 -4 -50 -15 -50
-11 0 -15 12 -15 50 0 38 4 50 15 50 11 0 15 -12 15 -50z m490 40 c0 -5 -12
-11 -27 -11 -24 -2 -25 -2 -5 -6 27 -5 29 -33 2 -33 -13 0 -20 -7 -20 -20 0
-11 -4 -20 -10 -20 -5 0 -10 23 -10 50 l0 50 35 0 c19 0 35 -4 35 -10z m357
-17 l6 -28 10 28 c5 17 16 27 28 27 16 0 19 -7 19 -50 0 -38 -4 -50 -15 -50
-8 0 -16 8 -16 18 -1 16 -2 16 -6 0 -7 -26 -33 -22 -34 5 l-2 22 -4 -22 c-8
-42 -23 -24 -23 27 0 37 4 50 15 50 8 0 18 -12 22 -27z m-729 -35 c2 -22 -1
-38 -7 -38 -6 0 -11 14 -11 30 0 17 -4 30 -10 30 -5 0 -10 -13 -10 -30 0 -16
-4 -30 -10 -30 -5 0 -10 11 -10 24 0 14 -4 28 -10 31 -6 4 -10 -7 -10 -24 0
-21 -5 -31 -15 -31 -11 0 -15 11 -15 40 l0 40 53 -2 52 -3 3 -37z m80 0 c3
-36 2 -38 -27 -38 -34 0 -48 15 -32 34 6 7 8 16 5 19 -12 11 8 28 29 25 17 -2
23 -11 25 -40z m92 -1 c0 -49 -13 -67 -48 -67 -19 0 -23 4 -19 20 3 11 1 23
-4 26 -13 8 -11 38 3 52 7 7 25 12 40 12 26 0 28 -3 28 -43z m70 23 c15 -28
-4 -62 -33 -58 -22 3 -34 35 -23 64 8 21 44 17 56 -6z m212 -5 c14 -32 -5 -57
-41 -53 -18 2 -27 10 -29 26 -7 50 49 72 70 27z m176 -17 c2 -22 -1 -38 -7
-38 -6 0 -11 14 -11 30 0 17 -4 30 -10 30 -5 0 -10 -13 -10 -30 0 -16 -4 -30
-10 -30 -5 0 -10 11 -10 24 0 14 -4 28 -10 31 -6 4 -10 -7 -10 -24 0 -21 -5
-31 -15 -31 -10 0 -15 10 -15 31 0 38 -24 35 -28 -4 -5 -42 -22 -32 -22 14 l0
40 78 -3 77 -3 3 -37z m236 26 c3 -9 6 -27 6 -40 0 -22 -4 -25 -32 -22 -40 4
-48 30 -16 46 l23 12 -22 -6 c-22 -5 -31 5 -16 19 12 13 51 7 57 -9z m84 -26
c2 -22 -1 -38 -7 -38 -6 0 -11 14 -11 31 0 38 -24 35 -28 -4 -5 -42 -22 -32
-22 12 0 38 1 39 33 38 29 -2 32 -5 35 -39z m80 -1 c3 -38 3 -38 -30 -35 -40
4 -49 29 -16 47 13 6 15 9 6 7 -12 -4 -18 0 -18 10 0 11 8 14 28 12 23 -3 27
-8 30 -41z m80 -9 c-3 -51 -4 -53 -33 -53 -27 0 -30 3 -33 39 -4 55 3 66 38
66 l31 0 -3 -52z m82 32 c15 -28 -4 -62 -33 -58 -22 3 -34 35 -23 64 8 21 44
17 56 -6z m70 11 c0 -5 -7 -11 -15 -15 -8 -3 -15 -17 -15 -31 0 -14 -4 -25
-10 -25 -5 0 -10 18 -10 40 0 36 3 40 25 40 14 0 25 -4 25 -9z m-773 -553 c7
-6 57 -10 113 -10 l100 1 0 -35 c0 -43 -29 -49 -31 -6 l-2 27 -4 -28 c-3 -22
-9 -28 -23 -24 -10 2 -24 1 -31 -4 -7 -4 -20 -4 -28 1 -16 8 -61 -7 -61 -22 0
-4 -7 -8 -15 -8 -10 0 -15 10 -15 28 0 15 -4 22 -8 16 -12 -18 -42 -24 -63
-14 -29 16 -26 78 4 89 23 9 43 5 64 -11z"/>
<path d="M5662 2417 c-50 -53 -13 -137 59 -137 47 0 79 34 79 81 0 71 -90 107
-138 56z m85 -23 c7 -19 -7 -46 -28 -52 -9 -3 -8 2 5 17 15 16 17 24 8 33 -8
8 -15 8 -27 -2 -8 -7 -15 -8 -15 -3 0 27 47 32 57 7z m-17 -84 c0 -5 -4 -10
-10 -10 -5 0 -10 5 -10 10 0 6 5 10 10 10 6 0 10 -4 10 -10z"/>
<path d="M4605 2360 c-3 -5 -1 -10 4 -10 6 0 11 5 11 10 0 6 -2 10 -4 10 -3 0
-8 -4 -11 -10z"/>
<path d="M4697 2394 c-4 -4 -7 -23 -7 -41 0 -27 4 -34 18 -31 12 2 17 13 17
37 0 33 -13 49 -28 35z"/>
<path d="M4787 2394 c-4 -4 -7 -23 -7 -41 0 -27 4 -34 18 -31 12 2 17 13 17
37 0 33 -13 49 -28 35z"/>
<path d="M4870 2361 c0 -47 16 -62 29 -28 12 31 3 67 -15 67 -10 0 -14 -13
-14 -39z"/>
<path d="M4880 1200 c0 -11 5 -20 10 -20 6 0 10 9 10 20 0 11 -4 20 -10 20 -5
0 -10 -9 -10 -20z"/>
<path d="M5165 1210 c-7 -12 2 -30 16 -30 5 0 9 9 9 20 0 21 -15 27 -25 10z"/>
<path d="M5825 1210 c-7 -12 2 -30 16 -30 5 0 9 9 9 20 0 21 -15 27 -25 10z"/>
<path d="M5828 1153 c7 -3 16 -2 19 1 4 3 -2 6 -13 5 -11 0 -14 -3 -6 -6z"/>
<path d="M5190 644 c0 -31 23 -28 28 4 2 15 -2 22 -12 22 -11 0 -16 -9 -16
-26z"/>
<path d="M5280 634 c0 -8 5 -12 10 -9 6 4 8 11 5 16 -9 14 -15 11 -15 -7z"/>
<path d="M6490 2640 c-20 -20 -20 -33 -20 -1210 0 -1177 0 -1190 20 -1210 20
-20 33 -20 895 -20 862 0 875 0 895 20 20 20 20 33 20 1210 0 1177 0 1190 -20
1210 -20 20 -33 20 -895 20 -862 0 -875 0 -895 -20z m1374 -221 c24 -27 27
-38 22 -68 -7 -46 -55 -91 -96 -91 -41 0 -89 45 -96 90 -4 27 -1 42 16 63 44
56 106 58 154 6z m204 7 c6 -15 23 -27 42 -31 l32 -7 -23 -24 c-16 -18 -20
-30 -16 -54 l7 -30 -30 15 c-27 14 -33 14 -60 0 l-30 -15 7 30 c4 24 0 36 -16
54 l-23 24 32 7 c19 4 36 16 42 31 6 13 14 24 18 24 4 0 12 -11 18 -24z
m-1346 -43 c3 -75 -6 -101 -23 -70 -6 9 -19 17 -29 17 -26 0 -25 12 3 55 29
46 47 45 49 -2z m86 25 c13 -13 16 -66 6 -92 -9 -22 -51 -20 -64 3 -31 59 16
131 58 89z m92 -7 c14 -26 13 -74 -2 -89 -17 -17 -55 -15 -62 4 -10 26 -7 79
6 92 18 18 46 14 58 -7z m80 -41 c0 -33 -4 -60 -10 -60 -5 0 -10 18 -10 41 0
32 -3 40 -15 35 -21 -8 -19 14 3 30 28 22 32 17 32 -46z m460 -660 c0 -18 -7
-20 -60 -20 -53 0 -60 2 -60 20 0 18 7 20 60 20 53 0 60 -2 60 -20z m-21 -71
c19 -7 30 -17 27 -24 -2 -7 1 -18 7 -24 6 -6 8 -14 4 -18 -4 -4 -12 -2 -18 4
-6 6 -17 9 -24 7 -7 -3 -17 8 -24 27 -16 46 -18 44 28 28z m-709 -419 c0 -38
-4 -50 -15 -50 -11 0 -15 12 -15 50 0 38 4 50 15 50 11 0 15 -12 15 -50z m490
40 c0 -5 -10 -10 -22 -11 l-23 0 23 -10 c24 -9 22 -29 -4 -29 -8 0 -14 -9 -14
-20 0 -11 -7 -20 -15 -20 -11 0 -15 12 -15 50 l0 50 35 0 c19 0 35 -4 35 -10z
m360 -12 l9 -23 7 23 c4 13 14 22 25 22 16 0 19 -8 19 -50 0 -51 -19 -72 -21
-22 l-1 27 -10 -27 c-5 -16 -16 -28 -24 -28 -8 0 -15 11 -15 28 l-2 27 -4 -27
c-7 -47 -23 -31 -23 22 0 38 4 50 15 50 9 0 20 -10 25 -22z m-725 -25 c6 -27
20 -23 20 5 0 11 8 17 25 17 22 0 25 -5 28 -37 l3 -38 -50 1 c-49 2 -51 3 -51
31 0 17 -4 27 -10 23 -5 -3 -10 -17 -10 -31 0 -13 -4 -24 -10 -24 -5 0 -10 14
-10 30 0 17 -4 30 -10 30 -5 0 -10 -13 -10 -30 0 -20 -5 -30 -15 -30 -11 0
-15 11 -15 40 l0 39 54 0 c49 -1 55 -3 61 -26z m165 -15 c0 -54 -11 -71 -41
-66 -16 2 -24 10 -25 24 -1 12 -4 26 -8 32 -13 22 13 52 44 52 29 0 30 -2 30
-42z m69 28 c7 -8 9 -25 5 -41 -5 -21 -11 -26 -33 -23 -27 3 -39 32 -27 64 7
18 40 18 55 0z m211 -1 c26 -32 -13 -81 -47 -59 -35 22 -23 74 17 74 10 0 23
-7 30 -15z m184 -9 c10 -36 7 -56 -9 -56 -10 0 -15 10 -15 31 0 17 -4 28 -10
24 -5 -3 -10 -17 -10 -31 0 -13 -4 -24 -10 -24 -5 0 -10 14 -10 30 0 17 -4 30
-10 30 -5 0 -10 -13 -10 -30 0 -20 -5 -30 -15 -30 -10 0 -15 10 -15 31 0 38
-24 35 -28 -4 -5 -42 -22 -32 -22 13 l0 40 79 -1 c72 -1 80 -3 85 -23z m234
-19 c3 -38 3 -38 -30 -35 -40 4 -49 29 -16 47 13 6 15 9 6 7 -12 -4 -18 0 -18
10 0 11 8 14 28 12 23 -3 27 -8 30 -41z m80 1 c2 -22 -1 -38 -7 -38 -6 0 -11
14 -11 30 0 17 -4 30 -10 30 -5 0 -10 -13 -10 -30 0 -20 -5 -30 -15 -30 -11 0
-15 11 -15 41 0 39 1 40 33 37 29 -3 32 -6 35 -40z m80 0 c3 -36 2 -38 -27
-38 -34 0 -48 15 -32 34 6 7 8 16 5 19 -12 11 8 28 29 25 17 -2 23 -11 25 -40z
m92 -1 c0 -49 -13 -67 -48 -67 -19 0 -23 4 -19 20 3 11 1 23 -4 26 -13 8 -11
38 3 52 7 7 25 12 40 12 26 0 28 -3 28 -43z m70 23 c15 -28 -4 -62 -33 -58
-22 3 -34 35 -23 64 8 21 44 17 56 -6z m70 11 c0 -5 -7 -11 -15 -15 -8 -3 -15
-17 -15 -31 0 -14 -4 -25 -10 -25 -5 0 -10 18 -10 40 0 36 3 40 25 40 14 0 25
-4 25 -9z m-772 -565 c10 -51 -29 -87 -70 -65 -28 15 -25 77 5 88 28 11 61 -1
65 -23z m72 -8 c0 -10 2 -10 9 0 4 8 19 12 32 10 28 -4 39 -48 16 -67 -15 -12
-47 -5 -47 11 0 5 -7 2 -16 -6 -8 -9 -20 -14 -25 -11 -5 4 -9 -1 -9 -9 0 -9
-4 -16 -10 -16 -5 0 -10 23 -10 50 0 49 1 50 30 50 17 0 30 -5 30 -12z m140
-23 c0 -19 -4 -35 -10 -35 -5 0 -10 9 -10 20 0 11 -4 20 -10 20 -5 0 -10 -9
-10 -20 0 -11 -4 -20 -10 -20 -5 0 -10 16 -10 35 0 32 2 35 30 35 28 0 30 -3
30 -35z"/>
<path d="M7732 2417 c-50 -53 -13 -137 59 -137 47 0 79 34 79 81 0 71 -90 107
-138 56z m85 -23 c7 -19 -7 -46 -28 -52 -9 -3 -8 2 5 17 15 16 17 24 8 33 -8
8 -15 8 -27 -2 -8 -7 -15 -8 -15 -3 0 27 47 32 57 7z m-17 -84 c0 -5 -4 -10
-10 -10 -5 0 -10 5 -10 10 0 6 5 10 10 10 6 0 10 -4 10 -10z"/>
<path d="M6686 2371 c-4 -7 -5 -15 -2 -18 9 -9 19 4 14 18 -4 11 -6 11 -12 0z"/>
<path d="M6764 2386 c-10 -25 0 -61 19 -64 14 -3 17 4 17 37 0 30 -4 41 -15
41 -9 0 -18 -6 -21 -14z"/>
<path d="M6857 2394 c-4 -4 -7 -23 -7 -41 0 -27 4 -34 18 -31 12 2 17 13 17
37 0 33 -13 49 -28 35z"/>
<path d="M6950 1200 c0 -11 5 -20 10 -20 6 0 10 9 10 20 0 11 -4 20 -10 20 -5
0 -10 -9 -10 -20z"/>
<path d="M7038 1183 c7 -3 16 -2 19 1 4 3 -2 6 -13 5 -11 0 -14 -3 -6 -6z"/>
<path d="M7240 1200 c0 -11 5 -20 10 -20 6 0 10 9 10 20 0 11 -4 20 -10 20 -5
0 -10 -9 -10 -20z"/>
<path d="M7900 1200 c0 -11 5 -20 10 -20 6 0 10 9 10 20 0 11 -4 20 -10 20 -5
0 -10 -9 -10 -20z"/>
<path d="M7260 644 c0 -31 23 -28 28 4 2 15 -2 22 -12 22 -11 0 -16 -9 -16
-26z"/>
<path d="M7355 641 c-3 -5 -1 -12 5 -16 5 -3 10 1 10 9 0 18 -6 21 -15 7z"/>
</g>
</svg>
