<?xml version="1.0" encoding="UTF-8"?>
<svg id="_레이어_1" data-name=" 레이어 1" xmlns="http://www.w3.org/2000/svg" xmlns:xlink="http://www.w3.org/1999/xlink" version="1.1" viewBox="0 0 96 96">
  <defs>
    <style>
      .cls-1 {
        fill: url(#_무제_그라디언트);
      }

      .cls-1, .cls-2, .cls-3 {
        stroke-width: 0px;
      }

      .cls-2 {
        fill: #0a30a3;
      }

      .cls-3 {
        fill: #5b32f4;
      }
    </style>
    <linearGradient id="_무제_그라디언트" data-name="무제 그라디언트" x1="18.9" y1="90.5" x2="64.6" y2="26.9" gradientTransform="translate(0 98) scale(1 -1)" gradientUnits="userSpaceOnUse">
      <stop offset="0" stop-color="#c2cbe8"/>
      <stop offset=".9" stop-color="#d2d2d2"/>
    </linearGradient>
  </defs>
  <rect class="cls-1" width="96" height="96"/>
  <g>
    <rect class="cls-3" x="10" y="26" width="10" height="44"/>
    <path class="cls-2" d="M83,36.2c-2-3.5-4.8-6.3-8.3-8.3-3.5-2-7.4-3-11.7-3s-8.2,1-11.7,3-6.3,4.8-8.3,8.3c-1.4,2.4-2.3,5.1-2.7,7.8h9.3c.3-1.2.8-2.4,1.4-3.5,1.2-2.3,2.9-4,5-5.3s4.4-1.9,7-1.9,4.9.6,7,1.9c2.1,1.3,3.8,3,5,5.3,1.2,2.3,1.8,4.8,1.8,7.5s-.6,5.2-1.8,7.5c-1.2,2.3-2.9,4-5,5.3s-4.4,1.9-7,1.9-5-.6-7-1.9-3.8-3-5-5.3c-.8-1.4-1.3-2.9-1.5-5.4h-9.3c.4,4.1,1.3,7,2.8,9.6,2,3.5,4.8,6.3,8.3,8.3,3.5,2,7.4,3,11.7,3s8.2-1,11.7-3,6.3-4.8,8.3-8.3,3-7.4,3-11.7-1-8.2-3-11.7Z"/>
    <path class="cls-3" d="M40,47.9c0,1,0,2,.2,2.1h-14.2v-6h14.3c-.2,1.3-.3,2.6-.3,3.9Z"/>
  </g>
</svg>