<svg xmlns="http://www.w3.org/2000/svg" version="1.1" viewBox="-5.0 -10.0 110.0 135.0">
 <path d="m86.465 66.504-18.691 13.289c-0.66406-3.6797-3.7109-6.5898-7.5312-6.9805l-11.312-1.1523c-1.6758-0.16406-3.0195-0.57031-4.4805-1.3594-7.1133-3.8164-15.633-3.875-22.789-0.15625-2.0508 1.0508-3.9766 1.5391-6.1602 1.6016v-0.79297c0-1.7461-1.4336-3.168-3.1953-3.168h-8.0938c-1.7461 0-3.168 1.4219-3.168 3.168v24.805c0 1.7617 1.4219 3.1953 3.168 3.1953h8.0898c1.7617 0 3.1953-1.4336 3.1953-3.1953v-0.48047l41.758 1.7539c0.74219 0.074219 1.4727 0.11328 2.1914 0.11328 4.0977 0 7.8125-1.2188 11.301-3.6953l26.191-18.633c1.1367-0.80469 1.8477-2.0234 2-3.4531 0.11328-1.4258-0.33203-2.7227-1.2852-3.75-2.9023-3.0781-7.7148-3.5586-11.188-1.1094zm9.2695 6.6133-26.191 18.633c-3.6719 2.6055-7.625 3.6523-12.137 3.2031l-41.906-1.7578v-11.168c0-0.57422-0.46484-1.043-1.043-1.043-0.57422 0-1.043 0.46484-1.043 1.043v13.73c0 0.60547-0.51172 1.1133-1.1133 1.1133h-8.0898c-0.59766 0-1.0859-0.5-1.0859-1.1133l0.003906-24.801c0-0.60938 0.47656-1.0859 1.0859-1.0859h8.0898c0.61328 0 1.1133 0.48828 1.1133 1.0859v6.8516c0 0.57422 0.46484 1.043 1.043 1.043 0.57422 0 1.043-0.46484 1.043-1.043v-3.9609c2.5312-0.0625 4.7461-0.63281 7.1172-1.8477 6.5508-3.4023 14.344-3.3477 20.848 0.14062 1.6992 0.91406 3.3203 1.4023 5.2578 1.5938l11.309 1.1523c3.2031 0.32812 5.6953 2.9961 5.7969 6.1953 0.023438 0.84375-0.25391 1.5234-0.84766 2.0742-0.61328 0.57031-1.332 0.81641-2.1367 0.73047l-22.293-2.2734c-0.57813-0.066406-1.0859 0.35938-1.1406 0.92969-0.058593 0.57031 0.35938 1.0859 0.92969 1.1406l22.289 2.2734c0.17578 0.019531 0.35547 0.027344 0.52734 0.027344 1.207 0 2.3164-0.44531 3.2422-1.3047 0.69141-0.64063 1.1328-1.4336 1.3516-2.3164l19.918-14.16c2.6289-1.8516 6.2734-1.4922 8.4688 0.83203 0.55859 0.60156 0.79688 1.3086 0.73047 2.1328-0.089844 0.8125-0.48438 1.4844-1.1367 1.9492zm-2.9961-47.082h-1.5742c2.3242-1.8086 3.8281-4.6211 3.8281-7.7891 0-5.457-4.4258-9.8984-9.8711-9.8984-5.457 0-9.8984 4.4414-9.8984 9.8984 0 3.1641 1.5078 5.9805 3.8398 7.7891h-1.5859c-1.6875 0-3.2148 0.67969-4.3359 1.7812-0.77344-3.1875-3.6406-5.5625-7.0586-5.5625h-2.5078c3.0352-2.1055 5.0273-5.6016 5.0273-9.5586 0-6.4336-5.2344-11.672-11.672-11.672-6.418 0-11.641 5.2344-11.641 11.672 0 3.957 1.9883 7.4531 5.0117 9.5586h-2.5234c-3.4102 0-6.2656 2.3789-7.0352 5.5703-1.125-1.1055-2.6641-1.7891-4.3633-1.7891h-1.5742c2.3242-1.8086 3.8281-4.6211 3.8281-7.7891 0-5.457-4.4258-9.8984-9.8711-9.8984-5.457 0-9.8984 4.4414-9.8984 9.8984 0 3.1641 1.5078 5.9805 3.8398 7.7891h-1.5586c-3.4414 0-6.2383 2.8008-6.2383 6.2383v13.73c0 0.57422 0.46484 1.043 1.043 1.043h24.688c-0.0625 0.58203-0.097657 1.168-0.097657 1.7617 0 9.0547 7.3555 16.426 16.395 16.426 9.0586 0 16.426-7.3672 16.426-16.426 0-0.59375-0.039063-1.1836-0.10156-1.7617h24.66c0.57422 0 1.043-0.46484 1.043-1.043l-0.019532-13.73c0.003906-3.4375-2.7812-6.2383-6.2031-6.2383zm-71.805-7.7891c0-4.3086 3.5078-7.8164 7.8164-7.8164 4.293 0 7.7891 3.5078 7.7891 7.8164 0 4.293-3.4922 7.7891-7.7891 7.7891-4.3086 0-7.8164-3.4922-7.8164-7.7891zm19.59 26.715h-23.547v-12.688c0-2.293 1.8633-4.1562 4.1562-4.1562h15.238c2.2891 0 4.1562 1.8633 4.1562 4.1562zm6.8359-32.266c0-5.2852 4.2891-9.5898 9.5586-9.5898 5.2852 0 9.5898 4.3008 9.5898 9.5898 0 5.2695-4.3008 9.5586-9.5898 9.5586-5.2695 0-9.5586-4.2852-9.5586-9.5586zm23.902 19.578v8.5781c-1.1055-1.9766-2.6133-3.7422-4.5039-5.1602-0.46094-0.34766-1.1133-0.25-1.457 0.21094-0.34375 0.46094-0.25 1.1133 0.21094 1.457 3.6562 2.7344 5.7539 6.9102 5.7539 11.449 0 7.9102-6.4336 14.34-14.344 14.34-7.8906 0-14.312-6.4336-14.312-14.34 0-7.8906 6.4219-14.312 14.312-14.312 1.8008 0 3.543 0.31641 5.1797 0.9375 0.53906 0.20312 1.1406-0.066406 1.3438-0.60547 0.20313-0.53906-0.066406-1.1406-0.60547-1.3438-1.875-0.71094-3.8672-1.0703-5.9219-1.0703-6.1445 0-11.504 3.4023-14.312 8.418v-11.305c0-2.8633 2.3164-5.1875 5.1602-5.1875h18.309c2.8633 0 5.1875 2.3281 5.1875 5.1875zm6.0391-14.027c0-4.3086 3.5078-7.8164 7.8164-7.8164 4.293 0 7.7891 3.5078 7.7891 7.8164 0 4.293-3.4922 7.7891-7.7891 7.7891-4.3086 0-7.8164-3.4922-7.8164-7.7891zm19.562 26.715h-23.52v-12.688c0-2.293 1.8516-4.1562 4.125-4.1562h15.266c2.2734 0 4.125 1.8633 4.125 4.1562zm-36.066-4.8047c0-0.57422-0.46484-1.043-1.043-1.043l-5.6406 0.003907c-0.57422 0-1.043 0.46484-1.043 1.043v4.8047h-4.8047c-0.57422 0-1.043 0.46484-1.043 1.043v5.6406c0 0.57422 0.46484 1.043 1.043 1.043h4.8047v4.7734c0 0.57422 0.46484 1.043 1.043 1.043h5.6406c0.57422 0 1.043-0.46484 1.043-1.043v-4.7734h4.7734c0.57422 0 1.043-0.46484 1.043-1.043v-5.6406c0-0.57422-0.46484-1.043-1.043-1.043h-4.7734zm3.7305 6.8906v3.5586h-4.7734c-0.57422 0-1.043 0.46484-1.043 1.043v4.7734l-3.5547-0.003906v-4.7734c0-0.57422-0.46484-1.043-1.043-1.043h-4.8047v-3.5586h4.8047c0.57422 0 1.043-0.46484 1.043-1.043v-4.8047h3.5547v4.8047c0 0.57422 0.46484 1.043 1.043 1.043z"/>
<text x="0.0" y="117.5" font-size="5.0" font-weight="bold" font-family="Arbeit Regular, Helvetica, Arial-Unicode, Arial, Sans-serif" fill="#000000">Created by fahmi</text><text x="0.0" y="122.5" font-size="5.0" font-weight="bold" font-family="Arbeit Regular, Helvetica, Arial-Unicode, Arial, Sans-serif" fill="#000000">from Noun Project</text></svg>