<svg xmlns="http://www.w3.org/2000/svg" xmlns:xlink="http://www.w3.org/1999/xlink" version="1.1" x="0px" y="0px" viewBox="0 0 415.02 630" style="enable-background:new 0 0 415.02 504;" xml:space="preserve"><path d="M375.978,0H39.042C17.515,0,0,17.515,0,39.043v425.914C0,486.485,17.515,504,39.042,504h336.936  c21.527,0,39.042-17.515,39.042-39.043V39.043C415.02,17.515,397.505,0,375.978,0z M377.931,330.39  c0,18.866-6.878,37.733-18.87,51.764c-5.123,5.993-11.108,11.07-17.792,15.091c-1.022,0.615-1.717,1.656-1.894,2.837  s0.184,2.378,0.981,3.266c9.625,10.703,22.256,16.844,37.574,18.309v10.056h-24.487c-57.991-10.888-100.272-36.146-125.669-75.082  c-0.967-1.483-2.795-2.153-4.49-1.648c-1.697,0.504-2.86,2.063-2.86,3.834v72.896h-25.828v-72.896c0-1.771-1.163-3.33-2.86-3.834  c-1.696-0.505-3.523,0.167-4.49,1.648c-25.397,38.936-67.678,64.194-125.669,75.082H37.089v-10.056  c15.318-1.465,27.949-7.606,37.574-18.309c0.798-0.888,1.158-2.085,0.981-3.266s-0.871-2.222-1.894-2.837  c-6.684-4.021-12.669-9.098-17.792-15.091c-11.992-14.03-18.87-32.897-18.87-51.764V210.919c0-33.589,13.405-75.641,35.858-112.487  c12.401-20.35,29.648-36.004,48.732-44.339c3.861,2.444,8.401,3.827,13.185,3.827h50.01c6.949,5.936,13.366,14.506,19.086,25.509  c0.688,1.324,2.057,2.155,3.549,2.155s2.86-0.831,3.549-2.155c5.721-11.003,12.138-19.574,19.086-25.509h50.011  c4.784,0,9.324-1.383,13.185-3.827c19.084,8.335,36.33,23.99,48.732,44.338c22.453,36.848,35.858,78.899,35.858,112.488V330.39z   M377.931,413.621c-11.344-1.202-20.674-5.233-28.301-12.256c5.73-3.959,10.934-8.657,15.513-14.015  c5.169-6.047,9.46-12.914,12.788-20.266V413.621z M320.237,431.712h-91.813v-60.4c11.947,15.375,26.887,28.575,44.546,39.34  C287.018,419.214,302.839,426.255,320.237,431.712z M186.596,431.712H94.783c17.398-5.457,33.219-12.498,47.267-21.061  c17.659-10.765,32.599-23.965,44.546-39.34V431.712z M37.089,367.084c3.328,7.353,7.62,14.219,12.789,20.266  c4.578,5.357,9.781,10.056,15.512,14.015c-7.627,7.022-16.956,11.054-28.301,12.256V367.084z M112.148,42.848  c0.824,1.953,1.89,3.747,3.134,5.379c-3.638,1.751-7.209,3.733-10.687,5.956H37.089V35.64h72.018L112.148,42.848z M37.089,62.183  H93.64c-10.513,8.694-19.895,19.566-27.525,32.086c-12.756,20.934-22.676,43.55-29.026,65.49V62.183z M196.303,57.919h22.413  c-3.956,4.371-7.701,9.524-11.206,15.428C204.005,67.443,200.259,62.29,196.303,57.919z M348.904,94.268  c-7.63-12.519-17.012-23.391-27.525-32.085h56.551v97.575C371.58,137.818,361.661,115.202,348.904,94.268z M377.931,54.183h-67.507  c-3.478-2.224-7.048-4.206-10.687-5.956c1.244-1.632,2.31-3.426,3.134-5.379l3.041-7.208h72.018V54.183z M295.5,39.738  c-2.609,6.185-8.633,10.181-15.345,10.181H134.864c-6.712,0-12.735-3.996-15.345-10.181L106.128,8h202.764L295.5,39.738z   M375.978,496H39.042c-15.76,0-28.806-11.81-30.776-27.043h398.487C404.783,484.19,391.738,496,375.978,496z M407.02,460.957H8  V39.043C8,21.926,21.926,8,39.042,8h58.403l8.287,19.64H33.089c-2.209,0-4,1.791-4,4v404.072c0,2.209,1.791,4,4,4h348.842  c2.209,0,4-1.791,4-4V31.64c0-2.209-1.791-4-4-4h-72.643L317.575,8h58.403c17.116,0,31.042,13.926,31.042,31.043V460.957z   M266.513,31.64c0,2.209-1.791,4-4,4h-73.61c-2.209,0-4-1.791-4-4s1.791-4,4-4h73.61C264.722,27.64,266.513,29.431,266.513,31.64z   M168.641,31.64c0,4.455-3.612,8.067-8.067,8.067c-4.455,0-8.067-3.612-8.067-8.067s3.612-8.067,8.067-8.067  C165.03,23.573,168.641,27.185,168.641,31.64z M192.714,122.771c-20.481-12.781-44.172-19.263-70.414-19.263  c-7.304,0-15.009,0.517-22.902,1.537c-1.159,0.149-2.194,0.799-2.834,1.776c-1.008,1.539-1.843,2.856-2.63,4.146  c-5.399,8.861-10.319,18.251-14.621,27.906c-0.617,1.387-0.397,3.003,0.568,4.174c0.967,1.17,2.514,1.691,3.989,1.351  c17.96-4.165,35.146-6.277,51.084-6.277c19.467,0,37.714,3.146,54.235,9.353c0.456,0.172,0.932,0.256,1.406,0.256  c0.803,0,1.599-0.242,2.277-0.712c1.079-0.747,1.723-1.976,1.723-3.288v-17.565C194.596,124.785,193.884,123.502,192.714,122.771z   M186.596,138.077c-15.961-5.281-33.302-7.955-51.642-7.955c-14.174,0-29.264,1.601-44.962,4.765  c3.302-6.797,6.91-13.416,10.772-19.754c0.467-0.765,0.953-1.543,1.489-2.381c6.913-0.825,13.647-1.243,20.046-1.243  c23.917,0,45.536,5.685,64.296,16.899V138.077z M191.396,199.585c-12.712-2.596-25.373-3.912-37.632-3.912  c-32.038,0-62.402,8.608-90.247,25.587c-1.191,0.726-1.918,2.021-1.918,3.415v40.091c0,1.407,0.739,2.71,1.946,3.433  c0.632,0.378,1.342,0.567,2.054,0.567c0.649,0,1.3-0.158,1.892-0.476c26.838-14.403,55.838-21.706,86.194-21.706  c11.768,0,23.94,1.156,36.179,3.437c1.168,0.217,2.373-0.096,3.289-0.856c0.914-0.76,1.443-1.887,1.443-3.076v-42.584  C194.596,201.604,193.258,199.965,191.396,199.585z M186.596,241.327c-11.125-1.821-22.174-2.743-32.911-2.743  c-29.481,0-57.735,6.597-84.086,19.621v-31.268c26.047-15.439,54.351-23.265,84.165-23.265c10.695,0,21.726,1.051,32.832,3.125  V241.327z M191.396,260.955c-12.714-2.596-25.375-3.911-37.632-3.911c-32.039,0-62.402,8.608-90.247,25.586  c-1.191,0.726-1.918,2.021-1.918,3.415v44.345c0,0.715,0.022,1.46,0.057,2.221c0.065,1.452,0.913,2.756,2.216,3.403  c0.563,0.279,1.173,0.418,1.78,0.418c0.797,0,1.59-0.238,2.27-0.706c13.317-9.178,34.572-20.912,60.205-24.697  c19.563-2.887,40.879-2.399,61.755,1.393c1.168,0.212,2.368-0.104,3.278-0.865c0.91-0.76,1.437-1.885,1.437-3.07v-43.611  C194.596,262.974,193.258,261.335,191.396,260.955z M186.596,303.748c-20.2-3.203-40.689-3.429-59.638-0.634  c-23.438,3.461-43.338,13.139-57.359,21.935v-36.741c26.046-15.439,54.35-23.264,84.165-23.264c10.694,0,21.724,1.051,32.832,3.124  V303.748z M164.282,67.432c-16.808-3.583-34.964,3.13-51.121,18.893c-1.184,1.154-1.535,2.917-0.885,4.437s2.159,2.478,3.82,2.424  c2.441-0.087,4.446-0.127,6.311-0.127c24.216,0,46.539,5.196,66.351,15.444c0.578,0.299,1.208,0.447,1.838,0.447  c0.722,0,1.442-0.195,2.079-0.583c1.193-0.726,1.921-2.021,1.921-3.417v-5.892c0-0.627-0.147-1.246-0.431-1.806  C188.098,85.259,177.989,70.351,164.282,67.432z M126.843,85.113c11.869-8.817,24.308-12.3,35.773-9.857  c7.745,1.649,15.831,9.714,22.95,22.821C167.626,89.998,147.924,85.646,126.843,85.113z M192.217,160.002  c-17.111-7.587-36.391-11.434-57.302-11.434c-18.834,0-39.446,3.104-61.267,9.228c-1.276,0.358-2.293,1.326-2.713,2.584  c-5.002,14.978-8.129,29.7-9.042,42.577c-0.103,1.453,0.592,2.847,1.813,3.64c0.66,0.428,1.418,0.644,2.177,0.644  c0.646,0,1.295-0.156,1.886-0.473c26.755-14.302,55.66-21.554,85.914-21.554c11.768,0,23.94,1.156,36.18,3.437  c1.168,0.218,2.373-0.096,3.289-0.856c0.914-0.76,1.443-1.887,1.443-3.076v-21.06C194.596,162.076,193.663,160.643,192.217,160.002z   M186.596,179.957c-11.126-1.821-22.175-2.743-32.912-2.743c-29.11,0-57.023,6.431-83.084,19.127  c1.27-9.802,3.737-20.495,7.262-31.409c20.354-5.551,39.537-8.363,57.054-8.363c18.817,0,36.19,3.271,51.681,9.724V179.957z   M191.376,323.387c-8.616-1.714-22.124-3.757-37.549-3.757c-8.282,0-16.416,0.58-24.178,1.726  c-27.803,4.104-50.644,18.911-61.784,27.372c-1.475,1.12-1.988,3.104-1.241,4.799c5.021,11.394,18.167,30.507,49.778,30.507  c34.481,0,70.509-45.239,77.382-54.308c0.832-1.099,1.04-2.548,0.551-3.836C193.846,324.601,192.728,323.655,191.376,323.387z   M116.402,376.033c-23.654,0-35.337-11.838-41.085-22.873c11.247-8.145,31.462-20.342,55.5-23.891  c7.376-1.088,15.117-1.64,23.01-1.64c11.351,0,21.625,1.156,29.524,2.438C165.314,352.329,138.484,376.033,116.402,376.033z   M222.146,147.019c0.679,0.47,1.475,0.712,2.277,0.712c0.475,0,0.951-0.084,1.406-0.256c16.521-6.206,34.769-9.353,54.235-9.353  c15.938,0,33.124,2.112,51.084,6.277c1.476,0.343,3.023-0.18,3.989-1.351s1.186-2.787,0.568-4.174  c-4.302-9.655-9.222-19.045-14.622-27.906c-0.786-1.29-1.621-2.607-2.629-4.146c-0.64-0.978-1.675-1.627-2.834-1.776  c-7.894-1.021-15.599-1.537-22.902-1.537c-26.242,0-49.933,6.481-70.414,19.263c-1.17,0.73-1.882,2.014-1.882,3.394v17.565  C220.424,145.043,221.067,146.271,222.146,147.019z M228.424,128.408c18.76-11.215,40.379-16.899,64.296-16.899  c6.398,0,13.133,0.418,20.046,1.243c0.536,0.838,1.022,1.616,1.488,2.381c3.863,6.338,7.472,12.957,10.773,19.754  c-15.698-3.164-30.788-4.765-44.962-4.765c-18.34,0-35.681,2.674-51.642,7.955V128.408z M351.503,221.26  c-27.845-16.979-58.209-25.587-90.247-25.587c-12.259,0-24.92,1.316-37.632,3.912c-1.862,0.38-3.2,2.019-3.2,3.919v42.584  c0,1.189,0.529,2.316,1.443,3.076c0.915,0.76,2.123,1.071,3.289,0.856c12.238-2.28,24.411-3.437,36.179-3.437  c30.356,0,59.356,7.303,86.194,21.706c0.592,0.317,1.242,0.476,1.892,0.476c0.712,0,1.422-0.189,2.054-0.567  c1.207-0.723,1.946-2.025,1.946-3.433v-40.091C353.421,223.28,352.694,221.985,351.503,221.26z M345.421,258.205  c-26.351-13.024-54.604-19.621-84.086-19.621c-10.737,0-21.786,0.922-32.911,2.743v-34.529c11.106-2.074,22.137-3.125,32.832-3.125  c29.814,0,58.118,7.825,84.165,23.265V258.205z M351.503,282.63c-27.845-16.978-58.208-25.586-90.247-25.586  c-12.257,0-24.918,1.315-37.632,3.911c-1.862,0.38-3.2,2.019-3.2,3.919v43.611c0,1.186,0.526,2.311,1.437,3.07  s2.106,1.075,3.278,0.865c20.876-3.791,42.191-4.279,61.755-1.393c25.633,3.785,46.888,15.52,60.205,24.697  c0.68,0.468,1.473,0.706,2.27,0.706c0.607,0,1.218-0.139,1.78-0.418c1.303-0.647,2.15-1.951,2.216-3.403  c0.034-0.761,0.057-1.506,0.057-2.221v-44.345C353.421,284.65,352.694,283.355,351.503,282.63z M345.421,325.049  c-14.021-8.796-33.921-18.474-57.359-21.935c-8.786-1.296-17.938-1.953-27.2-1.953c-10.714,0-21.604,0.869-32.438,2.587v-35.58  c11.108-2.073,22.138-3.124,32.832-3.124c29.815,0,58.119,7.824,84.165,23.264V325.049z M222.345,108.366  c0.637,0.388,1.357,0.583,2.079,0.583c0.63,0,1.26-0.148,1.838-0.447c19.812-10.248,42.135-15.444,66.351-15.444  c1.864,0,3.869,0.04,6.311,0.127c1.637,0.054,3.17-0.904,3.82-2.424s0.299-3.282-0.885-4.437  c-16.157-15.763-34.313-22.476-51.121-18.893c-13.707,2.919-23.815,17.827-29.883,29.82c-0.283,0.56-0.431,1.179-0.431,1.806v5.892  C220.424,106.346,221.151,107.641,222.345,108.366z M252.403,75.256c2.389-0.509,4.817-0.76,7.276-0.76  c9.346,0,19.101,3.637,28.497,10.617c-21.081,0.533-40.783,4.885-58.724,12.964C236.572,84.97,244.658,76.905,252.403,75.256z   M280.104,148.568c-20.911,0-40.19,3.847-57.302,11.434c-1.446,0.641-2.379,2.074-2.379,3.656v21.06  c0,1.189,0.529,2.316,1.443,3.076c0.915,0.76,2.123,1.069,3.289,0.856c12.239-2.28,24.412-3.437,36.18-3.437  c30.254,0,59.159,7.252,85.914,21.554c0.591,0.316,1.239,0.473,1.886,0.473c0.759,0,1.517-0.216,2.177-0.644  c1.222-0.793,1.916-2.187,1.813-3.64c-0.913-12.877-4.04-27.6-9.042-42.577c-0.42-1.258-1.437-2.226-2.713-2.584  C319.551,151.673,298.938,148.568,280.104,148.568z M344.42,196.341c-26.061-12.696-53.974-19.127-83.084-19.127  c-10.737,0-21.786,0.922-32.912,2.743v-13.665c15.49-6.453,32.863-9.724,51.681-9.724c17.517,0,36.7,2.813,57.054,8.363  C340.683,175.846,343.15,186.539,344.42,196.341z M347.154,348.728c-11.141-8.461-33.981-23.268-61.784-27.372  c-7.762-1.146-15.896-1.726-24.178-1.726c-15.425,0-28.933,2.043-37.549,3.757c-1.352,0.269-2.47,1.214-2.959,2.503  c-0.489,1.288-0.281,2.737,0.551,3.836c6.873,9.068,42.9,54.308,77.382,54.308c31.611,0,44.757-19.113,49.778-30.507  C349.143,351.832,348.629,349.848,347.154,348.728z M298.617,376.033c-22.082,0-48.912-23.704-66.949-45.966  c7.899-1.281,18.174-2.438,29.524-2.438c7.893,0,15.634,0.552,23.01,1.64c24.038,3.549,44.253,15.746,55.5,23.891  C333.954,364.195,322.271,376.033,298.617,376.033z"/><text x="0" y="519" fill="#000000" font-size="5px" font-weight="bold" font-family="'Helvetica Neue', Helvetica, Arial-Unicode, Arial, Sans-serif">Created by Amethyst Studio</text><text x="0" y="524" fill="#000000" font-size="5px" font-weight="bold" font-family="'Helvetica Neue', Helvetica, Arial-Unicode, Arial, Sans-serif">from the Noun Project</text></svg>