<?xml version="1.0" standalone="no"?>
<!DOCTYPE svg PUBLIC "-//W3C//DTD SVG 20010904//EN"
 "http://www.w3.org/TR/2001/REC-SVG-20010904/DTD/svg10.dtd">
<svg version="1.0" xmlns="http://www.w3.org/2000/svg"
 width="724.000000pt" height="512.000000pt" viewBox="0 0 724.000000 512.000000"
 preserveAspectRatio="xMidYMid meet">

<g transform="translate(0.000000,512.000000) scale(0.100000,-0.100000)"
fill="#000000" stroke="none">
<path d="M0 2570 l0 -2540 3620 0 3620 0 0 2540 0 2540 -3620 0 -3620 0 0
-2540z m77 2443 c-4 -17 -4 -17 -12 0 -4 9 -4 25 0 35 8 16 8 16 12 0 3 -10 3
-26 0 -35z m4321 -13 c20 -58 14 -92 -8 -50 -13 25 -38 26 -56 3 -18 -25 -29
-9 -16 24 6 15 16 40 21 56 17 44 37 33 59 -33z m-4318 -50 c0 -5 -4 -10 -10
-10 -5 0 -10 5 -10 10 0 6 5 10 10 10 6 0 10 -4 10 -10z m490 -151 c-10 -40
-23 -76 -29 -82 -16 -16 -14 9 5 74 22 77 22 79 33 79 5 0 1 -32 -9 -71z
m-426 45 c35 -34 11 -114 -34 -114 -28 0 -50 28 -50 62 0 56 50 87 84 52z
m116 1 c10 -12 10 -19 2 -27 -8 -8 -7 -16 1 -29 9 -14 9 -24 1 -37 -26 -40
-106 -14 -84 28 5 10 7 26 4 34 -14 38 50 63 76 31z m90 6 c0 -5 -10 -12 -22
-15 -23 -6 -23 -7 5 -22 47 -26 29 -90 -24 -82 -31 4 -38 29 -8 26 15 -2 24 3
27 15 3 13 -3 17 -22 17 -28 0 -33 17 -16 51 11 19 60 28 60 10z m50 2 c0 -5
5 -15 10 -23 9 -13 13 -11 29 10 26 33 37 20 17 -19 -9 -16 -16 -41 -16 -55 0
-27 -18 -45 -24 -24 -1 7 -9 29 -15 48 -22 62 -24 70 -12 70 6 0 11 -3 11 -7z
m325 -2 c3 -5 -5 -11 -17 -13 -30 -4 -34 -24 -6 -32 22 -7 22 -8 3 -15 -11 -4
-22 -18 -25 -30 -9 -40 -25 -27 -28 23 -2 27 -1 55 2 62 6 16 62 19 71 5z
m-588 -218 c4 -9 -1 -30 -11 -46 -15 -28 -16 -31 -1 -39 22 -13 9 -28 -25 -28
-41 0 -45 16 -16 51 31 37 33 59 6 59 -11 0 -20 5 -20 10 0 17 60 11 67 -7z
m112 -7 c24 -43 -5 -106 -48 -106 -35 0 -57 90 -29 118 21 21 63 14 77 -12z
m71 -36 c0 -47 -3 -60 -15 -60 -11 0 -15 12 -15 50 0 29 -5 50 -11 50 -5 0 -7
5 -4 10 3 6 15 10 26 10 17 0 19 -7 19 -60z m101 34 c12 -33 -4 -89 -28 -98
-19 -8 -53 2 -53 15 0 5 11 9 24 9 36 0 41 17 7 23 -53 11 -45 77 10 77 23 0
32 -6 40 -26z m177 14 c29 -29 3 -118 -35 -118 -40 0 -66 67 -43 111 12 22 59
26 78 7z m100 -15 c2 -12 -4 -33 -14 -47 -15 -24 -15 -26 0 -26 9 0 16 -5 16
-10 0 -16 -27 -23 -56 -16 l-25 7 30 41 c32 43 32 58 0 58 -10 0 -19 5 -19 11
0 6 14 9 33 7 24 -2 33 -8 35 -25z m180 -30 c3 -43 0 -54 -17 -62 -21 -11 -51
-5 -63 13 -12 18 -9 81 4 94 7 7 26 12 43 10 29 -3 30 -5 33 -55z m102 47 c0
-5 -11 -35 -25 -66 -17 -39 -29 -54 -35 -48 -7 7 -5 23 5 47 20 48 19 57 -5
57 -11 0 -20 5 -20 10 0 6 18 10 40 10 22 0 40 -4 40 -10z m-480 -60 c0 -5
-13 -10 -30 -10 -16 0 -30 5 -30 10 0 6 14 10 30 10 17 0 30 -4 30 -10z m270
0 c0 -5 -11 -10 -25 -10 -14 0 -25 5 -25 10 0 6 11 10 25 10 14 0 25 -4 25
-10z m-670 -195 c0 -37 -4 -65 -10 -65 -5 0 -10 22 -10 49 0 28 -5 53 -11 57
-8 4 -7 9 2 15 26 16 29 9 29 -56z m100 55 c0 -5 -6 -10 -14 -10 -24 0 -29
-21 -7 -27 30 -8 39 -52 16 -70 -25 -18 -65 -17 -65 2 0 8 6 12 13 10 6 -3 18
-1 26 4 12 8 12 12 2 25 -7 9 -17 14 -21 11 -14 -9 -21 12 -14 40 5 19 12 25
35 25 16 0 29 -4 29 -10z m140 1 c0 -5 -10 -12 -22 -15 l-23 -7 23 -11 c48
-24 35 -92 -16 -86 -32 4 -41 25 -10 24 14 -1 24 6 26 17 3 13 -3 17 -22 17
-27 0 -33 19 -20 54 6 17 64 23 64 7z m63 -52 c-2 -72 -2 -69 -12 -69 -9 0
-21 108 -13 123 2 4 9 6 15 4 8 -2 11 -24 10 -58z m157 1 c2 -25 2 -51 1 -57
-1 -15 -31 -18 -31 -3 0 6 -11 10 -25 10 -16 0 -25 6 -25 16 0 22 61 97 70 87
5 -4 9 -28 10 -53z m97 25 c1 -16 5 -40 8 -52 9 -30 -33 -52 -67 -35 -21 10
-22 11 -3 11 37 2 49 16 29 35 -14 14 -14 20 -4 26 15 9 5 30 -16 30 -8 0 -12
5 -9 11 4 5 19 9 33 7 22 -2 27 -9 29 -33z m-407 -5 c0 -5 -7 -10 -15 -10 -8
0 -15 5 -15 10 0 6 7 10 15 10 8 0 15 -4 15 -10z m210 0 c0 -5 -7 -10 -15 -10
-8 0 -15 5 -15 10 0 6 7 10 15 10 8 0 15 -4 15 -10z m-210 -70 c0 -5 -7 -10
-15 -10 -8 0 -15 5 -15 10 0 6 7 10 15 10 8 0 15 -4 15 -10z m210 0 c0 -5 -7
-10 -15 -10 -8 0 -15 5 -15 10 0 6 7 10 15 10 8 0 15 -4 15 -10z m3936 -52 c4
-14 1 -25 -7 -32 -8 -6 -20 -22 -27 -36 -12 -23 -12 -22 -7 15 2 22 5 48 5 58
0 24 27 21 36 -5z m54 -20 c0 -16 -3 -19 -11 -11 -6 6 -8 16 -5 22 11 17 16
13 16 -11z m55 -127 c20 -21 56 -49 81 -62 l44 -24 0 -211 c0 -241 -4 -274
-32 -274 -21 0 -33 -22 -24 -45 4 -12 10 -14 25 -5 25 13 34 -1 21 -34 -5 -15
-24 -32 -45 -40 -31 -13 -35 -19 -35 -51 0 -41 21 -55 53 -36 16 10 21 10 28
0 10 -17 2 -29 -19 -29 -18 0 -53 -32 -98 -88 -23 -29 -30 -32 -63 -26 -57 9
-81 46 -79 119 1 33 -2 113 -6 178 -8 105 -7 117 7 117 30 0 45 43 57 168 6
68 9 126 6 129 -3 3 -12 0 -20 -6 -22 -18 -76 -118 -76 -139 0 -26 -20 -42
-51 -42 -22 0 -32 -9 -54 -47 -31 -57 -45 -120 -33 -153 7 -19 5 -27 -12 -40
-11 -8 -23 -32 -26 -52 -5 -31 -2 -40 25 -68 31 -33 39 -54 22 -64 -4 -3 -11
-20 -15 -37 -5 -28 -26 -83 -46 -119 -5 -10 -20 -14 -48 -12 -35 3 -43 -1 -58
-23 -13 -20 -19 -23 -31 -14 -11 10 -11 14 -1 20 22 14 -1 23 -27 11 -34 -16
-33 -42 3 -42 19 0 23 -3 13 -9 -10 -7 -12 -21 -8 -55 6 -42 -5 -64 -16 -33
-3 10 -9 10 -26 0 -11 -7 -26 -13 -33 -13 -7 0 -18 -8 -25 -19 -6 -10 -24 -21
-39 -24 -22 -4 -28 0 -37 24 -12 30 -22 36 -32 19 -10 -16 -34 -12 -52 9 -9
11 -22 17 -29 14 -16 -6 -17 -2 -8 21 3 9 13 16 21 16 8 0 22 7 30 16 15 15
18 14 33 -6 14 -18 18 -19 28 -7 7 7 9 17 5 20 -3 4 2 16 11 26 10 11 16 26
13 33 -3 8 -9 2 -17 -14 -16 -35 -30 -36 -30 -3 0 16 15 42 40 69 22 24 40 46
40 49 0 4 -27 48 -60 98 -42 64 -68 117 -86 178 -15 47 -42 119 -60 159 -19
40 -34 75 -34 78 0 3 17 25 38 50 44 53 144 105 259 135 79 21 110 35 154 70
18 14 49 22 107 28 100 10 169 42 232 106 24 25 48 45 52 45 4 0 23 -18 43
-39z m381 -275 c-9 -58 -22 -66 -40 -24 l-14 33 -7 -32 c-13 -56 -31 -42 -40
28 -4 33 -3 39 4 23 15 -34 31 -39 31 -9 0 32 23 29 28 -3 5 -32 19 -27 27 9
10 46 18 27 11 -25z m173 4 c4 0 12 5 19 12 9 9 12 9 12 1 0 -7 -5 -15 -11
-18 -7 -5 -5 -15 6 -31 16 -25 8 -33 -13 -12 -10 10 -15 10 -21 -1 -10 -16
-18 41 -11 79 l4 25 4 -27 c2 -16 7 -28 11 -28z m71 -5 c0 -30 -4 -55 -10 -55
-5 0 -10 25 -10 55 0 30 5 55 10 55 6 0 10 -25 10 -55z m152 -10 c4 -56 -18
-62 -25 -7 -4 39 -1 52 13 52 4 0 10 -20 12 -45z m-322 21 c18 -23 8 -61 -17
-64 -30 -4 -53 39 -33 63 16 19 34 19 50 1z m60 4 c0 -5 -4 -10 -9 -10 -6 0
-12 -15 -14 -32 -3 -29 -4 -27 -5 10 -2 31 2 42 13 42 8 0 15 -4 15 -10z m210
0 c12 -8 10 -10 -9 -10 l-23 0 22 -18 c13 -11 20 -24 16 -30 -9 -15 -56 -16
-56 -1 0 6 9 8 20 4 11 -3 20 -2 20 4 0 5 -9 13 -20 16 -20 6 -26 25 -13 38 9
10 25 8 43 -3z m-70 -36 c0 -21 -4 -33 -10 -29 -5 3 -10 19 -10 36 0 16 5 29
10 29 6 0 10 -16 10 -36z m-322 -166 c5 -7 10 -33 9 -58 0 -43 0 -44 -15 -22
-18 28 -28 28 -38 0 -6 -19 -8 -15 -11 21 -2 24 -2 50 1 57 7 17 40 18 54 2z
m347 -53 c1 -25 -2 -45 -7 -45 -4 0 -8 13 -8 29 0 17 -5 33 -10 36 -8 5 -7 11
1 21 17 20 22 12 24 -41z m-1715 26 c5 -11 10 -29 10 -41 0 -11 9 -40 20 -63
23 -47 50 -164 50 -215 0 -18 4 -41 9 -51 11 -20 -18 -211 -43 -286 -9 -25
-16 -61 -16 -79 0 -22 -7 -38 -20 -47 -16 -12 -21 -30 -26 -102 -5 -64 -3 -94
6 -113 10 -18 11 -27 3 -35 -14 -14 -33 -3 -33 17 0 16 -18 18 -39 5 -10 -7
-29 -1 -60 16 -65 35 -88 60 -96 99 -5 29 -1 43 24 80 24 36 30 56 29 95 -1
44 -4 49 -24 49 -12 0 -24 6 -27 14 -7 18 25 56 46 56 9 0 19 9 22 20 3 11 15
24 25 30 21 11 37 67 22 82 -6 6 -17 5 -31 -3 -18 -12 -23 -11 -36 6 -13 17
-16 18 -25 5 -5 -8 -10 -27 -10 -42 0 -16 -4 -28 -10 -28 -5 0 -10 -18 -10
-40 0 -45 -5 -47 -39 -21 l-25 19 17 73 c10 41 24 119 32 174 10 67 21 108 34
125 11 14 32 48 47 75 31 58 52 85 69 85 6 0 24 14 40 30 33 35 50 38 65 11z
m1456 -6 c6 -14 8 -14 18 1 7 9 22 14 37 12 20 -2 24 -8 24 -38 0 -29 -4 -36
-22 -38 -13 -2 -23 -10 -23 -18 0 -8 -4 -12 -10 -9 -5 3 -10 20 -10 36 0 25
-4 30 -20 27 -12 -2 -20 -7 -20 -13 1 -5 9 -8 18 -7 13 3 14 1 6 -8 -20 -21
-49 -7 -52 24 -5 40 41 66 54 31z m160 -10 c8 -34 -1 -55 -26 -55 -28 0 -48
43 -30 65 20 24 49 18 56 -10z m54 17 c0 -4 -4 -12 -9 -17 -5 -6 -11 -21 -14
-35 -3 -16 -5 -10 -6 18 -1 31 3 42 14 42 8 0 15 -4 15 -8z m-340 -227 c12
-36 30 -39 30 -6 0 10 8 25 17 32 15 12 16 12 11 -2 -4 -10 -12 -35 -19 -58
-7 -23 -15 -41 -19 -41 -7 0 -50 91 -50 104 0 3 4 6 9 6 5 0 15 -16 21 -35z
m115 -66 c16 -7 14 -8 -10 -6 -28 2 -30 4 -31 47 -2 63 10 75 16 16 4 -37 10
-51 25 -57z m2023 68 c21 -22 21 -24 5 -39 -39 -33 -43 -31 -43 16 0 52 7 56
38 23z m-6587 -266 c-10 -36 -23 -67 -30 -69 -9 -3 -11 2 -8 14 3 11 11 39 17
64 17 68 20 74 30 64 5 -5 2 -35 -9 -73z m405 62 c-3 -10 -10 -40 -17 -68 -12
-52 -24 -73 -35 -62 -9 9 36 147 48 147 5 0 7 -8 4 -17z m2923 2 c3 -3 -11
-22 -32 -42 -41 -41 -56 -39 -37 6 6 16 9 35 4 42 -5 9 1 10 26 5 19 -3 36 -9
39 -11z m-3529 -4 c0 -5 -12 -11 -27 -13 -22 -2 -29 -9 -31 -31 -4 -35 15 -60
40 -53 12 3 18 0 15 -7 -6 -19 -47 -20 -68 -1 -23 21 -25 71 -2 96 17 18 73
25 73 9z m100 0 c0 -5 -7 -11 -15 -15 -11 -4 -15 -20 -15 -56 0 -27 -4 -50
-10 -50 -5 0 -10 23 -10 51 0 42 -3 52 -20 56 -36 9 -21 23 25 23 25 0 45 -4
45 -9z m263 -53 c5 -35 3 -49 -9 -59 -13 -11 -18 -10 -25 4 -6 9 -19 17 -29
17 -26 0 -25 15 2 53 41 60 52 57 61 -15z m297 -3 c0 -37 -4 -65 -10 -65 -5 0
-10 22 -10 49 0 28 -5 53 -11 57 -8 4 -7 9 2 15 26 16 29 9 29 -56z m113 3 c5
-34 3 -49 -9 -59 -12 -10 -17 -9 -27 5 -7 10 -19 16 -27 14 -8 -2 -15 4 -17
12 -4 19 57 94 67 83 4 -4 10 -29 13 -55z m87 53 c0 -5 -10 -11 -22 -15 -22
-6 -22 -7 10 -26 40 -24 38 -24 45 0 4 15 14 20 36 20 38 0 40 -7 5 -20 -31
-12 -29 -39 4 -56 12 -6 19 -14 15 -17 -13 -14 -42 -6 -57 15 l-16 22 -16 -22
c-11 -16 -24 -22 -42 -20 -31 3 -37 23 -7 23 13 0 20 7 20 20 0 14 -6 19 -17
17 -14 -2 -18 4 -18 26 0 16 3 32 7 35 10 10 53 8 53 -2z m320 -6 c10 -12 10
-19 2 -27 -16 -16 -15 -28 2 -28 13 0 28 -45 18 -55 -3 -3 -22 -5 -43 -5 -48
0 -63 22 -47 71 6 19 12 40 14 47 5 17 39 15 54 -3z m120 -50 c0 -37 -4 -65
-10 -65 -6 0 -10 28 -10 65 0 37 4 65 10 65 6 0 10 -28 10 -65z m500 6 c0 -33
-4 -63 -10 -66 -6 -4 -10 18 -10 59 0 37 4 66 10 66 6 0 10 -26 10 -59z m305
51 c16 -11 16 -99 0 -112 -16 -14 -62 -9 -55 5 2 6 10 9 16 7 22 -5 28 21 9
35 -18 13 -18 13 1 28 19 14 19 15 -3 21 -13 3 -23 10 -23 15 0 11 41 12 55 1z
m105 -4 c0 -26 -34 -107 -47 -112 -17 -7 -16 6 2 50 16 38 13 54 -11 54 -8 0
-14 5 -14 10 0 6 16 10 35 10 21 0 35 -5 35 -12z m99 -2 c7 -8 11 -34 9 -58
-3 -36 -7 -44 -31 -52 -21 -8 -31 -6 -44 7 -20 20 -22 79 -4 101 17 20 55 21
70 2z m2341 -37 c0 -32 3 -39 20 -39 11 0 20 -4 20 -10 0 -11 -20 -13 -44 -4
-12 4 -16 20 -16 56 0 30 4 47 10 43 6 -3 10 -24 10 -46z m388 -14 c0 -25 -3
-43 -7 -40 -10 6 -22 75 -15 87 12 18 22 -4 22 -47z m1744 38 c25 -22 23 -38
-7 -57 l-25 -16 0 45 c0 49 4 53 32 28z m-6332 -12 c0 -5 -9 -11 -20 -14 -12
-3 -20 -14 -20 -25 0 -12 9 -23 20 -27 26 -8 26 -25 0 -25 -11 0 -27 11 -35
24 -22 33 -5 76 30 76 14 0 25 -4 25 -9z m90 -1 c0 -5 -9 -10 -19 -10 -10 0
-22 -7 -25 -16 -7 -19 10 -44 30 -44 8 0 14 -4 14 -10 0 -14 -43 -13 -58 2
-15 15 -15 61 0 76 15 15 58 16 58 2z m500 0 c0 -5 -9 -10 -20 -10 -15 0 -20
-7 -20 -26 0 -17 6 -28 20 -31 11 -3 20 -9 20 -14 0 -13 -44 -11 -58 3 -15 15
-15 61 0 76 15 15 58 16 58 2z m369 -12 c16 -45 -12 -85 -53 -74 -28 7 -42 47
-26 76 15 29 68 27 79 -2z m104 1 c17 -27 0 -66 -35 -80 -18 -7 -36 -14 -40
-17 -5 -2 -8 24 -8 58 l0 61 36 -3 c21 -2 41 -10 47 -19z m85 -32 l3 -48 -33
3 c-26 2 -34 8 -36 26 -3 17 2 25 17 29 24 6 28 23 6 23 -8 0 -15 5 -15 11 0
6 12 9 28 7 25 -3 27 -7 30 -51z m160 15 c5 -52 -10 -76 -17 -28 -7 49 -28 59
-33 15 -4 -44 -26 -49 -30 -7 -4 45 -22 42 -26 -4 -5 -56 -22 -46 -22 12 l0
51 63 -3 62 -3 3 -33z m122 29 c0 -5 -7 -11 -15 -15 -9 -3 -15 -18 -15 -35 0
-16 -4 -32 -9 -35 -12 -8 -19 24 -13 62 3 26 9 32 28 32 13 0 24 -4 24 -9z
m93 -12 c5 -9 7 -28 3 -42 -7 -31 -48 -46 -71 -27 -18 15 -20 61 -3 78 17 17
58 11 71 -9z m2793 -4 c8 -34 -1 -54 -23 -50 -10 2 -21 4 -25 4 -17 2 -7 33
12 38 11 3 17 9 15 14 -3 4 -13 5 -22 2 -11 -4 -14 -3 -9 5 13 22 45 13 52
-13z m34 10 c0 -20 16 -19 24 1 13 34 17 5 5 -35 -14 -46 -33 -69 -44 -51 -3
5 -1 10 6 10 11 0 9 34 -6 73 -4 10 -3 17 4 17 6 0 11 -7 11 -15z m116 -11 c9
-34 -18 -64 -44 -48 -35 23 -27 74 12 74 19 0 27 -7 32 -26z m34 -4 c0 -42 27
-40 33 3 3 28 4 26 5 -10 2 -35 -1 -43 -16 -43 -10 0 -23 5 -30 12 -14 14 -16
68 -2 68 6 0 10 -13 10 -30z m-1909 -157 c2 -41 -1 -57 -13 -68 -8 -7 -9 -4
-4 9 4 11 2 23 -5 27 -14 8 -4 59 11 59 6 0 11 -12 11 -27z m-3101 -15 l0 -21
25 23 c30 28 43 21 21 -13 -15 -22 -15 -26 4 -50 23 -29 25 -37 8 -37 -7 0
-22 12 -35 28 l-22 27 -1 -27 c0 -24 -18 -41 -21 -20 -4 33 -6 98 -2 105 9 15
23 6 23 -15z m122 -19 l12 -42 18 42 c9 22 22 41 28 41 13 0 13 -1 -11 -65
-11 -30 -26 -55 -33 -55 -7 0 -23 25 -35 56 -25 66 -25 64 -6 64 8 0 19 -17
27 -41z m167 23 c12 -23 -2 -48 -34 -56 -17 -4 -25 -13 -25 -27 0 -12 -5 -19
-12 -17 -13 5 -23 80 -14 104 8 21 73 18 85 -4z m161 -42 c0 -45 -4 -60 -14
-60 -10 0 -15 16 -18 56 -3 60 -2 64 19 64 9 0 13 -17 13 -60z m98 33 c2 -12
-4 -33 -14 -47 -15 -24 -15 -26 0 -26 9 0 16 -4 16 -10 0 -5 -16 -10 -35 -10
-42 0 -43 6 -10 50 26 36 25 50 -6 50 -10 0 -19 5 -19 11 0 6 14 9 33 7 24 -2
33 -8 35 -25z m112 8 c16 -31 12 -69 -10 -91 -11 -11 -24 -20 -30 -20 -19 0
-50 40 -50 66 0 41 18 64 50 64 19 0 33 -7 40 -19z m159 5 c7 -8 11 -32 9 -53
-2 -28 -9 -41 -27 -49 -13 -7 -29 -10 -36 -8 -14 6 -35 48 -35 71 0 42 64 70
89 39z m122 -7 c6 -12 8 -36 4 -55 -13 -74 -95 -62 -95 14 0 21 5 43 12 50 20
20 66 15 79 -9z m5929 -1 c0 -14 -87 -108 -98 -107 -4 0 -17 13 -30 29 -25 32
-12 53 17 26 16 -15 20 -13 56 24 41 42 55 49 55 28z m-6535 -8 c3 -5 -1 -10
-10 -10 -9 0 -13 5 -10 10 3 6 8 10 10 10 2 0 7 -4 10 -10z m4420 -14 c24 -36
5 -76 -35 -76 -29 0 -30 1 -30 50 0 47 2 50 25 50 15 0 31 -9 40 -24z m41 -74
c-14 -13 -18 11 -10 55 l9 48 3 -49 c2 -26 1 -51 -2 -54z m194 48 c0 -27 -4
-50 -10 -50 -5 0 -7 21 -5 48 4 54 4 52 10 52 3 0 5 -22 5 -50z m219 -2 c-1
-38 -3 -46 -8 -28 -7 24 -3 80 5 80 2 0 4 -24 3 -52z m136 44 c-5 -4 -10 -13
-11 -19 -1 -7 -2 -28 -4 -45 l-2 -33 -9 35 c-10 43 -3 70 19 70 10 0 13 -3 7
-8z m-1711 -17 c3 -9 0 -15 -9 -15 -8 0 -15 7 -15 15 0 8 4 15 9 15 5 0 11 -7
15 -15z m2087 8 c0 -5 1 -25 2 -46 3 -49 -19 -49 -26 1 -5 40 -1 52 14 52 5 0
9 -3 10 -7z m-1851 -17 c0 -7 -7 -19 -15 -26 -13 -11 -15 -8 -15 14 0 16 5 26
15 26 8 0 15 -6 15 -14z m1003 -24 c3 -15 3 -30 0 -34 -7 -12 -53 -9 -53 3 0
6 9 8 23 4 21 -6 21 -6 -3 13 -20 17 -22 23 -11 35 17 21 38 11 44 -21z m77
24 c18 -23 8 -61 -17 -64 -13 -2 -23 -10 -23 -18 0 -8 -4 -13 -9 -10 -16 11
-11 85 7 96 23 13 28 12 42 -4z m120 -36 c0 -27 -3 -30 -30 -30 -35 0 -43 29
-10 37 11 3 20 10 20 15 0 5 -9 6 -20 3 -21 -7 -29 10 -7 18 23 8 47 -13 47
-43z m30 24 c0 -19 10 -18 26 4 11 14 13 14 13 2 1 -15 -35 -100 -42 -100 -2
0 -3 15 -3 33 0 17 -4 45 -8 61 -7 21 -6 27 3 22 6 -4 11 -14 11 -22z m315 10
c9 -9 15 -26 13 -38 -5 -32 -62 -30 -66 2 -3 23 13 52 29 52 4 0 15 -7 24 -16z
m173 2 c15 -9 16 -66 2 -66 -5 0 -10 14 -10 30 0 17 -4 30 -10 30 -5 0 -10
-13 -10 -30 0 -37 -18 -40 -22 -3 -4 39 -28 42 -28 4 0 -17 -4 -31 -10 -31 -5
0 -10 15 -10 34 0 24 5 35 17 38 26 5 68 2 81 -6z m80 2 c7 -7 12 -25 12 -40
0 -24 -4 -28 -30 -28 -35 0 -43 29 -10 37 11 3 20 10 20 15 0 5 -9 6 -20 3
-21 -7 -28 10 -7 18 19 8 22 8 35 -5z m177 -47 c-5 -17 -13 -21 -33 -19 -34 4
-43 45 -16 65 16 11 21 10 37 -6 13 -13 17 -25 12 -40z m75 33 c13 -33 13 -54
0 -54 -5 0 -10 14 -10 31 0 38 -24 35 -28 -4 -5 -39 -22 -33 -22 7 0 33 7 39
43 45 4 0 12 -11 17 -25z m-631 -21 c-1 -36 -2 -36 -8 -9 -9 41 -31 46 -31 7
0 -17 -4 -31 -10 -31 -5 0 -10 16 -10 35 0 32 2 35 30 35 28 0 30 -2 29 -37z
m183 25 c-7 -7 -12 -22 -12 -35 0 -13 -4 -23 -10 -23 -5 0 -10 16 -10 35 0 29
4 35 22 35 17 0 19 -3 10 -12z m288 -23 c0 -19 -4 -35 -10 -35 -5 0 -10 16
-10 35 0 19 5 35 10 35 6 0 10 -16 10 -35z m-5430 -15 c0 -5 -4 -10 -10 -10
-5 0 -10 5 -10 10 0 6 5 10 10 10 6 0 10 -4 10 -10z m380 -10 c0 -5 -4 -10
-10 -10 -5 0 -10 5 -10 10 0 6 5 10 10 10 6 0 10 -4 10 -10z m3040 -40 c0 -5
-4 -10 -10 -10 -5 0 -10 5 -10 10 0 6 5 10 10 10 6 0 10 -4 10 -10z m-3542
-107 c13 -36 18 -61 12 -67 -6 -6 -12 -3 -16 7 -8 22 -50 22 -63 0 -19 -35
-24 -2 -6 44 19 51 33 73 45 73 4 0 17 -26 28 -57z m198 45 c15 -23 14 -96 -1
-108 -17 -14 -57 -10 -62 7 -3 7 3 10 15 6 28 -7 39 17 16 35 -13 10 -15 16
-6 19 20 8 14 33 -9 33 -11 0 -17 5 -14 10 9 14 52 12 61 -2z m105 2 c14 -8
19 -21 19 -53 0 -48 -13 -67 -46 -67 -48 0 -70 74 -34 110 23 23 33 24 61 10z
m120 0 c14 -8 19 -21 19 -50 0 -42 -20 -70 -50 -70 -22 0 -50 36 -50 65 0 27
27 65 46 65 9 0 24 -5 35 -10z m170 -6 c7 -9 13 -31 13 -49 0 -40 -19 -65 -49
-65 -31 0 -47 22 -48 66 -2 55 52 86 84 48z m111 -1 c36 -32 13 -113 -33 -113
-45 0 -66 74 -32 112 20 22 41 23 65 1z m-806 -37 c7 -31 2 -66 -11 -69 -5 -1
-11 15 -13 36 -4 49 -26 44 -30 -6 -4 -41 -22 -51 -22 -13 0 60 -27 76 -32 19
-4 -47 -22 -50 -26 -5 -6 56 1 62 67 62 56 0 61 -2 67 -24z m164 14 c0 -5 -4
-10 -10 -10 -5 0 -10 5 -10 10 0 6 5 10 10 10 6 0 10 -4 10 -10z m3220 -16 c0
-17 -22 -14 -28 4 -2 7 3 12 12 12 9 0 16 -7 16 -16z m3380 4 c0 -7 -21 -34
-47 -60 l-47 -48 -23 22 c-13 12 -23 27 -23 35 0 16 5 16 30 1 17 -11 24 -8
57 25 39 39 53 45 53 25z m-2124 -6 c18 -12 24 -41 14 -67 -7 -19 -17 -25 -40
-25 -29 0 -30 1 -30 50 0 45 2 50 23 50 12 0 27 -4 33 -8z m244 -43 c0 -29 -4
-48 -9 -44 -12 6 -10 95 2 95 4 0 7 -23 7 -51z m264 11 c20 -50 21 -69 4 -52
-16 16 -45 15 -51 0 -2 -7 -8 -10 -12 -6 -8 8 24 98 35 98 4 0 15 -18 24 -40z
m297 23 c0 -5 1 -25 2 -46 3 -49 -19 -49 -26 1 -5 40 -1 52 14 52 5 0 9 -3 10
-7z m124 -35 c-5 -21 -3 -33 6 -39 11 -7 11 -9 -2 -9 -11 0 -18 12 -22 37 -7
39 -1 57 14 47 6 -3 7 -19 4 -36z m-725 17 c19 -22 8 -60 -17 -63 -13 -2 -23
-10 -23 -18 0 -8 -4 -12 -10 -9 -11 7 -14 64 -5 87 7 18 41 20 55 3z m108 3
c7 -7 12 -25 12 -40 0 -24 -4 -28 -30 -28 -35 0 -43 29 -10 37 11 3 20 10 20
15 0 5 -9 6 -20 3 -21 -7 -28 10 -7 18 19 8 22 8 35 -5z m42 -14 c0 -19 10
-18 26 4 18 24 17 1 -2 -48 -19 -47 -29 -51 -30 -12 0 15 -4 40 -9 56 -6 21
-5 27 4 22 6 -4 11 -14 11 -22z m240 7 c13 -25 13 -61 0 -61 -5 0 -10 14 -10
31 0 38 -24 35 -28 -4 -5 -39 -22 -33 -22 7 0 33 6 39 42 45 4 0 12 -8 18 -18z
m78 6 c14 -11 16 -67 2 -67 -5 0 -10 14 -10 31 0 39 -22 34 -31 -7 -6 -26 -7
-25 -8 12 -1 32 3 41 17 41 9 0 23 -4 30 -10z m82 -1 c20 -26 8 -61 -22 -64
-23 -3 -29 2 -34 24 -5 20 -2 31 11 41 24 17 30 16 45 -1z m116 6 c6 -4 13
-22 16 -40 4 -32 3 -33 -25 -30 -39 4 -46 25 -13 38 31 11 35 25 6 17 -20 -5
-26 3 -13 16 8 9 15 9 29 -1z m172 -1 c8 -5 12 -21 10 -37 -2 -23 -9 -30 -30
-32 -16 -2 -28 1 -28 7 0 5 -3 16 -6 24 -3 8 2 22 11 31 19 18 24 19 43 7z
m80 -3 c14 -14 16 -68 2 -68 -5 0 -10 14 -10 30 0 39 -19 39 -26 0 -7 -31 -24
-32 -24 0 0 18 24 50 39 50 4 0 12 -5 19 -12z m-1068 -33 c0 -19 -4 -35 -10
-35 -5 0 -10 16 -10 35 0 19 5 35 10 35 6 0 10 -16 10 -35z m70 25 c0 -5 -7
-7 -15 -4 -8 4 -15 2 -15 -4 0 -5 9 -12 21 -15 12 -3 19 -12 17 -19 -6 -16
-58 -24 -58 -8 0 7 9 9 23 5 l22 -6 -22 17 c-31 22 -29 44 2 44 14 0 25 -4 25
-10z m850 -25 c0 -13 -4 -27 -10 -30 -6 -4 -10 8 -10 30 0 22 4 34 10 30 6 -3
10 -17 10 -30z m-5450 5 c0 -5 -4 -10 -10 -10 -5 0 -10 5 -10 10 0 6 5 10 10
10 6 0 10 -4 10 -10z m420 -10 c0 -5 -4 -10 -10 -10 -5 0 -10 5 -10 10 0 6 5
10 10 10 6 0 10 -4 10 -10z m3587 -25 c3 -9 3 -19 -1 -22 -8 -9 -37 18 -30 28
8 14 24 11 31 -6z m-67 -19 c0 -21 -11 -25 -34 -13 -11 7 -23 13 -25 14 -1 1
0 6 3 11 8 13 56 2 56 -12z m-36 -33 c20 -10 36 -24 36 -31 0 -14 22 -11 103
15 42 13 51 13 65 1 9 -8 47 -29 85 -48 46 -23 69 -40 73 -56 7 -28 -2 -394
-10 -402 -8 -7 -10 9 -10 82 -1 68 -18 84 -36 34 l-12 -33 -98 -3 c-61 -2
-101 1 -105 8 -3 5 -17 10 -31 10 -15 0 -24 6 -24 16 0 11 -6 14 -22 8 -27 -8
-36 -20 -44 -54 -15 -71 -40 -135 -54 -135 -9 0 -17 -13 -20 -30 -7 -33 -26
-35 -47 -6 -11 16 -18 17 -51 8 -36 -9 -43 -8 -70 14 -25 21 -32 37 -47 114
-16 83 -21 93 -57 125 -39 34 -40 36 -33 82 7 44 9 47 30 42 18 -4 28 1 40 20
10 15 55 47 100 71 74 40 84 49 89 79 8 42 31 65 48 48 17 -17 28 -15 28 7 0
17 11 28 32 30 4 1 23 -7 42 -16z m-4151 -53 c8 -33 10 -34 23 -15 8 10 14 27
14 37 0 11 7 18 20 18 18 0 20 -7 20 -61 0 -44 -3 -60 -12 -57 -7 3 -15 15
-17 29 l-4 24 -6 -25 c-10 -38 -36 -37 -48 2 l-11 33 -1 -33 c-1 -19 -6 -32
-12 -30 -6 2 -10 7 -10 11 1 4 1 30 1 58 0 42 3 50 17 47 9 -2 21 -18 26 -38z
m186 -16 c11 -31 21 -58 21 -60 0 -11 -29 -2 -34 11 -7 20 -25 19 -48 -2 -10
-9 -21 -14 -23 -11 -10 9 36 118 49 118 7 0 23 -25 35 -56z m101 46 c0 -5 -9
-10 -20 -10 -28 0 -25 -14 5 -28 50 -23 17 -94 -35 -77 -28 9 -25 25 5 25 14
0 25 6 25 13 0 8 -11 19 -25 25 -23 11 -33 40 -18 55 10 11 63 8 63 -3z m200
-4 c0 -24 -39 -106 -50 -106 -13 0 -13 4 5 47 20 46 19 53 -5 53 -11 0 -20 5
-20 10 0 6 16 10 35 10 24 0 35 -5 35 -14z m90 4 c0 -5 -9 -10 -20 -10 -11 0
-20 -4 -20 -10 0 -5 7 -10 15 -10 19 0 37 -34 29 -55 -8 -19 -43 -35 -61 -28
-20 8 -15 21 10 25 12 2 22 10 22 18 0 8 -10 16 -22 18 -18 3 -23 10 -23 33 0
27 3 29 35 29 19 0 35 -4 35 -10z m148 -2 c7 -7 12 -29 12 -49 0 -64 -64 -88
-89 -33 -13 30 -14 36 -1 68 7 20 17 26 38 26 15 0 33 -5 40 -12z m120 0 c21
-21 15 -85 -9 -102 -51 -35 -101 34 -69 95 12 22 59 26 78 7z m-508 -18 c0 -5
-4 -10 -10 -10 -5 0 -10 5 -10 10 0 6 5 10 10 10 6 0 10 -4 10 -10z m3290 -36
c0 -3 -9 -18 -20 -32 -12 -15 -29 -37 -38 -50 -12 -16 -29 -24 -52 -25 -31 -2
-35 1 -38 24 -5 39 56 89 108 89 22 0 40 -3 40 -6z m1340 -50 c0 -36 -4 -53
-10 -49 -6 4 -9 25 -6 48 3 23 5 45 5 50 1 4 3 7 6 7 3 0 5 -25 5 -56z m1880
43 c0 -7 -20 -33 -45 -57 -47 -46 -63 -48 -89 -7 -14 23 -2 31 23 15 19 -11
25 -9 58 25 40 39 53 45 53 24z m-2109 -24 c15 -41 -3 -73 -41 -73 -29 0 -30
1 -30 50 0 49 1 50 30 50 24 0 33 -6 41 -27z m39 -23 c0 -27 -4 -50 -10 -50
-11 0 -13 42 -4 78 10 35 14 26 14 -28z m427 20 c6 -16 15 -30 20 -30 5 0 14
14 20 30 17 46 33 37 33 -20 0 -51 -19 -72 -21 -22 l-1 27 -11 -27 c-6 -16
-14 -28 -19 -28 -4 0 -14 12 -22 28 l-15 27 -1 -27 c0 -16 -4 -28 -10 -28 -11
0 -14 83 -3 93 12 12 18 7 30 -23z m826 -21 c-4 -21 -1 -34 8 -40 11 -7 11 -9
-2 -9 -12 0 -18 11 -22 38 -5 40 -1 55 13 47 5 -3 7 -20 3 -36z m-5693 21 c0
-5 -4 -10 -10 -10 -5 0 -10 5 -10 10 0 6 5 10 10 10 6 0 10 -4 10 -10z m4511
-28 c3 -17 4 -34 1 -37 -10 -9 -52 -5 -52 6 0 6 10 8 23 4 l22 -6 -22 17 c-25
18 -30 40 -10 47 22 9 31 1 38 -31z m79 24 c18 -23 8 -61 -17 -64 -13 -2 -23
-10 -23 -18 0 -8 -4 -12 -10 -9 -11 7 -14 64 -4 89 8 20 38 21 54 2z m108 2
c7 -7 12 -25 12 -40 0 -24 -4 -28 -30 -28 -23 0 -30 4 -30 20 0 12 10 24 23
30 22 9 22 9 -3 10 -20 0 -22 2 -10 10 19 13 24 12 38 -2z m306 6 c24 -9 20
-44 -4 -44 -11 0 -20 -5 -20 -11 0 -7 9 -9 21 -6 15 4 19 3 12 -4 -6 -6 -19
-9 -29 -7 -23 4 -32 57 -12 69 16 10 13 10 32 3z m72 -2 c6 -4 13 -22 16 -39
4 -30 2 -33 -23 -33 -15 0 -31 5 -34 10 -8 13 14 42 25 35 5 -3 11 -1 15 5 3
5 -3 10 -15 10 -12 0 -18 5 -15 10 7 12 16 12 31 2z m86 -27 c4 -15 5 -32 2
-37 -8 -12 -42 -10 -50 3 -4 8 0 9 15 4 12 -4 21 -2 21 4 0 6 -6 11 -14 11
-22 0 -29 19 -15 36 17 20 32 13 41 -21z m56 -33 c12 -4 16 8 13 41 -1 9 3 17
8 17 6 0 11 -16 11 -35 0 -32 -2 -35 -30 -35 -29 0 -30 2 -29 43 2 42 2 42 8
8 3 -19 12 -36 19 -39z m82 58 c0 -5 -4 -10 -10 -10 -5 0 -10 -13 -10 -30 0
-16 -4 -30 -10 -30 -15 0 -12 67 3 73 20 9 27 8 27 -3z m69 -9 c12 -21 5 -31
-21 -31 -10 0 -18 -5 -18 -11 0 -6 9 -9 20 -6 11 3 20 1 20 -5 0 -5 -12 -8
-27 -6 -35 4 -45 45 -17 65 24 17 31 16 43 -6z m124 10 c4 -1 6 -18 6 -38 -1
-37 -2 -37 -8 -8 -3 17 -13 30 -21 30 -8 0 -17 -13 -21 -30 l-6 -30 -4 29 c-6
41 -29 46 -29 7 0 -17 -4 -31 -10 -31 -5 0 -10 15 -10 34 0 41 22 49 103 37z
m75 -3 c18 -18 14 -38 -8 -38 -25 0 -26 -17 -2 -23 14 -4 13 -5 -3 -6 -41 -2
-58 35 -29 63 19 19 26 20 42 4z m82 -8 c12 -19 13 -60 1 -60 -5 0 -11 12 -13
27 -4 39 -28 42 -28 4 0 -17 -4 -31 -10 -31 -10 0 -14 62 -5 72 11 10 46 3 55
-12z m115 10 c3 -5 -2 -10 -12 -10 -15 0 -14 -3 6 -19 13 -10 21 -23 17 -30
-9 -14 -56 -15 -56 0 0 6 10 8 23 4 l22 -6 -22 17 c-25 18 -30 40 -10 47 19 8
25 8 32 -3z m-5481 -21 c-3 -5 -10 -7 -15 -3 -5 3 -7 10 -3 15 3 5 10 7 15 3
5 -3 7 -10 3 -15z m4456 4 c0 -14 2 -14 20 2 24 22 25 9 4 -45 -19 -47 -29
-51 -29 -12 -1 15 -4 37 -9 50 -4 14 -3 22 3 22 6 0 11 -7 11 -17z m-1393 -48
c8 -9 14 -17 12 -18 -2 -1 -14 -8 -27 -15 -17 -9 -27 -10 -44 -1 l-21 11 24
19 c29 23 36 23 56 4z m-3652 -44 c3 -5 -7 -11 -22 -13 -32 -4 -44 -28 -14
-28 12 0 21 -4 21 -10 0 -5 -9 -10 -21 -10 -28 0 -21 -34 9 -38 35 -5 26 -22
-12 -22 -44 0 -50 20 -37 123 1 10 69 9 76 -2z m105 0 c0 -5 -7 -11 -15 -15
-11 -4 -15 -20 -15 -56 0 -49 -12 -66 -24 -34 -3 9 -6 31 -6 50 0 22 -6 37
-15 40 -8 4 -12 10 -9 15 7 12 84 12 84 0z m140 -56 c0 -37 -4 -65 -10 -65 -5
0 -10 19 -10 43 0 23 -4 49 -10 57 -6 9 -5 17 3 22 23 15 27 7 27 -57z m101
55 c14 -8 19 -21 19 -53 0 -48 -13 -67 -46 -67 -48 0 -70 74 -34 110 23 23 33
24 61 10z m123 -6 c35 -34 11 -114 -34 -114 -22 0 -50 36 -50 65 0 29 28 65
50 65 10 0 26 -7 34 -16z m120 -6 c9 -12 16 -32 16 -43 0 -11 -7 -31 -16 -43
-30 -44 -84 -17 -84 43 0 60 54 87 84 43z m160 6 c34 -33 11 -114 -31 -114
-27 0 -53 31 -53 63 0 56 50 86 84 51z m118 -1 c22 -20 23 -61 2 -91 -30 -44
-84 -17 -84 43 0 57 44 83 82 48z m2833 -13 c3 -5 1 -10 -4 -10 -6 0 -11 5
-11 10 0 6 2 10 4 10 3 0 8 -4 11 -10z m-3565 -10 c0 -5 -4 -10 -10 -10 -5 0
-10 5 -10 10 0 6 5 10 10 10 6 0 10 -4 10 -10z m3490 -18 c0 -10 -22 -32 -32
-32 -13 0 -9 28 5 33 19 8 27 8 27 -1z m-444 -17 c4 -9 19 -15 39 -15 19 0 39
-8 49 -19 17 -18 16 -21 -19 -55 -40 -40 -69 -45 -118 -19 -18 9 -36 17 -42
18 -19 1 -4 38 28 70 36 36 55 42 63 20z m-3046 -30 c0 -8 -4 -15 -10 -15 -5
0 -10 7 -10 15 0 8 5 15 10 15 6 0 10 -7 10 -15z m3540 -1 c0 -8 -4 -12 -10
-9 -5 3 -10 10 -10 16 0 5 5 9 10 9 6 0 10 -7 10 -16z m1025 -4 c19 -22 7 -28
-14 -7 -10 10 -15 8 -27 -7 -8 -11 -14 -23 -14 -26 0 -3 6 -15 14 -26 12 -15
17 -17 27 -6 19 17 34 15 19 -4 -8 -8 -25 -14 -39 -12 -22 3 -26 9 -29 39 -2
24 3 42 13 53 21 21 28 20 50 -4z m332 -62 c-2 -18 -4 -6 -4 27 0 33 2 48 4
33 2 -15 2 -42 0 -60z m-1664 50 c18 -12 33 -22 35 -23 7 -5 -26 -109 -36
-113 -22 -7 -49 18 -60 56 -16 52 -15 67 4 86 20 20 20 20 57 -6z m1587 12 c0
-5 7 -10 15 -10 19 0 38 -36 30 -60 -4 -14 -15 -20 -36 -20 -28 0 -29 1 -29
50 0 28 5 50 10 50 6 0 10 -4 10 -10z m-4310 -10 c0 -5 -4 -10 -10 -10 -5 0
-10 5 -10 10 0 6 5 10 10 10 6 0 10 -4 10 -10z m4140 -14 c20 -26 8 -61 -22
-64 -22 -3 -29 2 -34 22 -11 44 29 74 56 42z m131 -7 c12 -19 11 -59 -1 -59
-5 0 -10 14 -10 30 0 20 -5 30 -15 30 -10 0 -15 -10 -15 -30 0 -16 -4 -30 -10
-30 -5 0 -10 14 -10 30 0 20 -5 30 -15 30 -10 0 -15 -10 -15 -30 0 -16 -4 -30
-10 -30 -15 0 -12 68 3 73 25 9 89 0 98 -14z m197 -21 c2 -22 -1 -38 -7 -38
-6 0 -11 14 -11 30 0 20 -5 30 -15 30 -10 0 -15 -10 -15 -30 0 -16 -4 -30 -9
-30 -13 0 -11 63 3 73 6 4 20 6 31 5 15 -2 21 -12 23 -40z m71 33 c17 -11 7
-41 -14 -41 -8 0 -15 -5 -15 -11 0 -6 7 -9 15 -5 8 3 15 1 15 -5 0 -6 -10 -9
-22 -7 -37 5 -35 78 2 78 3 0 11 -4 19 -9z m-5179 -90 c0 -5 -12 -11 -27 -13
-25 -3 -28 -7 -28 -38 0 -29 4 -36 23 -38 21 -3 22 -1 12 17 -9 18 -8 21 10
21 15 0 20 -6 20 -29 0 -32 -19 -44 -56 -35 -40 10 -57 62 -34 105 8 13 21 19
45 19 19 0 35 -4 35 -9z m123 -5 c19 -14 23 -36 7 -36 -5 0 -10 7 -10 15 0 8
-9 15 -20 15 -17 0 -20 -7 -20 -50 0 -27 -4 -50 -10 -50 -5 0 -10 20 -10 44 0
34 -5 47 -22 59 -22 16 -22 16 22 16 25 0 53 -6 63 -13z m177 -5 c16 -31 12
-69 -10 -91 -11 -11 -24 -20 -30 -20 -19 0 -50 40 -50 66 0 41 18 64 50 64 19
0 33 -7 40 -19z m158 7 c21 -21 15 -85 -9 -102 -51 -35 -101 34 -69 95 12 22
59 26 78 7z m122 -18 c15 -37 -1 -86 -32 -96 -45 -14 -82 70 -48 110 7 9 25
16 40 16 21 0 30 -7 40 -30z m-440 -75 c0 -8 -4 -15 -10 -15 -5 0 -10 7 -10
15 0 8 5 15 10 15 6 0 10 -7 10 -15z m210 -11 c0 -8 -4 -12 -10 -9 -5 3 -10
10 -10 16 0 5 5 9 10 9 6 0 10 -7 10 -16z m4547 -76 c-2 -18 -4 -6 -4 27 0 33
2 48 4 33 2 -15 2 -42 0 -60z m203 26 c0 -34 -4 -53 -10 -49 -18 11 -12 105 7
105 2 0 3 -25 3 -56z m38 2 c1 -25 -3 -48 -8 -51 -6 -4 -10 17 -10 50 0 66 17
66 18 1z m-442 -3 l18 -48 6 35 c6 39 37 53 59 26 19 -22 6 -66 -19 -66 -12 0
-20 -7 -20 -17 -1 -17 -1 -17 -14 0 -7 9 -18 17 -24 17 -5 0 -12 7 -16 15 -7
20 -33 19 -45 -2 -5 -10 -12 -15 -16 -12 -8 8 32 99 43 99 5 0 18 -21 28 -47z
m361 -3 c21 -49 18 -65 -7 -35 -7 8 -19 15 -27 15 -7 0 -16 -7 -19 -15 -4 -8
-10 -15 -15 -15 -5 0 -4 11 1 25 6 14 14 36 20 50 14 36 23 31 47 -25z m-197
15 c18 -21 4 -65 -20 -65 -11 0 -20 -4 -20 -10 0 -5 -4 -10 -10 -10 -11 0 -14
83 -3 93 11 12 40 8 53 -8z m105 0 c16 20 16 19 9 -5 -13 -48 -33 -90 -44 -90
-7 0 -8 6 -2 18 5 9 6 26 1 37 -4 11 -8 29 -8 39 -1 20 -1 20 13 0 15 -19 15
-19 31 1z m-1185 -5 c0 -5 -4 -10 -10 -10 -5 0 -10 5 -10 10 0 6 5 10 10 10 6
0 10 -4 10 -10z m-3803 -46 c43 -12 33 -74 -12 -74 -20 0 -25 -5 -25 -25 0
-22 -19 -38 -21 -17 -12 123 -7 133 58 116z m114 -4 c11 -6 19 -21 19 -36 0
-19 -6 -26 -29 -30 -19 -4 -31 -13 -33 -26 -2 -10 -7 -20 -13 -21 -11 -2 -20
86 -11 109 6 17 39 18 67 4z m186 -38 c15 -2 22 3 25 18 6 43 23 18 23 -35 0
-56 -17 -78 -23 -30 -5 38 -46 31 -50 -7 -6 -51 -22 -29 -22 30 0 62 11 89 20
50 4 -14 14 -24 27 -26z m153 39 c0 -5 -10 -11 -22 -13 -28 -4 -36 -28 -9 -28
12 0 21 -6 21 -15 0 -8 -9 -15 -20 -15 -15 0 -20 -7 -20 -25 0 -25 -19 -36
-21 -12 -6 46 -3 103 6 109 15 11 65 10 65 -1z m85 -1 c3 -5 -3 -10 -14 -10
-29 0 -26 -24 4 -38 45 -21 26 -72 -27 -72 -33 0 -38 17 -6 22 31 4 33 23 3
36 -27 12 -35 56 -12 65 21 9 46 7 52 -3z m-365 -30 c0 -5 -4 -10 -10 -10 -5
0 -10 5 -10 10 0 6 5 10 10 10 6 0 10 -4 10 -10z m3210 -49 c0 -16 -28 -51
-42 -51 -4 0 -8 12 -8 26 0 14 -4 23 -10 19 -19 -12 -10 19 12 42 l22 24 13
-23 c7 -13 12 -29 13 -37z m664 30 c30 -27 161 -63 226 -62 30 0 89 9 130 20
46 13 78 17 84 11 5 -5 11 -32 12 -59 4 -70 -17 -93 -108 -120 -40 -12 -85
-28 -99 -36 -23 -13 -31 -12 -76 5 -76 29 -123 59 -179 115 -65 65 -73 89 -42
120 29 29 28 29 52 6z m-759 -30 c3 -5 1 -12 -5 -16 -5 -3 -10 1 -10 9 0 18 6
21 15 7z m-3119 -28 c-10 -10 -19 5 -10 18 6 11 8 11 12 0 2 -7 1 -15 -2 -18z
m4538 -29 c9 -3 16 -13 16 -21 0 -13 -3 -13 -15 -3 -12 10 -18 10 -30 0 -19
-16 -19 -31 -1 -55 12 -17 16 -18 32 -5 15 13 17 13 12 0 -6 -20 -35 -25 -53
-10 -18 15 -20 71 -3 88 14 14 20 14 42 6z m56 -51 c0 -42 -3 -54 -11 -46 -11
11 -5 103 7 103 2 0 4 -26 4 -57z m79 5 c9 -26 3 -60 -10 -52 -5 3 -9 16 -9
30 0 13 -4 24 -10 24 -5 0 -10 -11 -10 -24 0 -36 -17 -41 -22 -7 -6 40 0 51
28 51 16 0 27 -8 33 -22z m65 16 c23 -9 20 -34 -4 -34 -12 0 -20 -7 -20 -16 0
-10 6 -14 15 -10 8 3 15 1 15 -5 0 -6 -10 -9 -22 -7 -23 3 -35 35 -24 64 6 15
16 17 40 8z m-4904 -44 c0 -5 -9 -10 -20 -10 -28 0 -25 -19 5 -30 51 -19 17
-91 -35 -75 -27 9 -25 27 2 23 29 -4 37 27 9 35 -24 6 -36 30 -27 52 6 17 66
21 66 5z m110 1 c0 -5 -7 -11 -15 -15 -10 -4 -15 -20 -15 -51 0 -25 -4 -45
-10 -45 -5 0 -10 20 -10 44 0 34 -5 47 -22 59 -22 15 -22 16 25 16 26 1 47 -3
47 -8z m170 -1 c0 -5 -9 -10 -20 -10 -11 0 -20 -4 -20 -9 0 -5 9 -13 20 -16
14 -4 20 -15 20 -35 0 -38 -30 -56 -62 -38 -23 12 -23 12 7 18 35 6 41 33 8
38 -18 3 -23 10 -23 33 0 27 3 29 35 29 19 0 35 -4 35 -10z m161 -21 c17 -66
-21 -115 -67 -84 -18 12 -24 24 -24 53 0 47 16 64 54 60 22 -2 31 -10 37 -29z
m107 19 c7 -7 12 -29 12 -50 0 -74 -81 -88 -93 -16 -9 59 44 103 81 66z m-413
-17 c3 -5 1 -12 -5 -16 -5 -3 -10 1 -10 9 0 18 6 21 15 7z m5 -70 c0 -6 -4
-13 -10 -16 -5 -3 -10 1 -10 9 0 9 5 16 10 16 6 0 10 -4 10 -9z m185 -10 c3
-5 1 -12 -5 -16 -5 -3 -10 1 -10 9 0 18 6 21 15 7z m4386 -67 c11 -13 9 -14
-14 -9 -36 9 -36 -12 0 -26 22 -8 30 -7 39 5 13 19 35 21 52 4 19 -19 14 -28
-13 -28 -14 0 -25 -4 -25 -10 0 -5 10 -10 22 -10 17 0 19 -3 10 -12 -10 -10
-17 -10 -33 0 -16 10 -24 10 -35 1 -15 -12 -64 -4 -64 11 0 13 13 13 27 -1 8
-8 13 -8 17 0 9 14 -1 31 -19 31 -20 0 -30 40 -14 51 21 13 35 11 50 -7z m119
-33 c0 -28 -4 -53 -10 -56 -6 -4 -10 15 -10 49 0 31 5 56 10 56 6 0 10 -22 10
-49z m191 32 c6 -47 3 -93 -5 -90 -12 4 -24 64 -18 85 4 13 21 17 23 5z m-114
-29 c6 -15 7 -15 19 0 13 19 45 18 51 -1 3 -7 -3 -9 -16 -6 -17 4 -21 1 -21
-17 0 -18 4 -21 21 -17 13 3 19 1 16 -6 -7 -22 -44 -20 -50 2 -3 15 -13 21
-31 21 -14 0 -26 -4 -26 -10 0 -5 7 -10 15 -10 8 0 15 -5 15 -11 0 -6 -10 -9
-22 -7 -23 3 -35 35 -24 64 7 19 45 18 53 -2z m-4913 -3 c3 -5 -4 -12 -17 -15
-22 -6 -22 -6 6 -27 29 -22 35 -47 15 -67 -15 -15 -54 -16 -63 -2 -4 6 5 10
19 10 33 0 33 17 1 42 -28 21 -31 38 -13 56 14 14 44 16 52 3z m68 -51 c3 -38
7 -46 26 -48 38 -6 24 -22 -18 -22 l-40 0 0 58 c0 88 26 98 32 12z m409 50
c14 -8 19 -21 19 -53 0 -48 -13 -67 -47 -67 -49 0 -69 94 -25 120 22 12 29 12
53 0z m164 -4 c22 -16 25 -77 5 -101 -16 -20 -54 -19 -71 1 -20 24 -16 84 6
100 24 18 36 18 60 0z m119 -2 c19 -19 21 -74 3 -98 -18 -25 -58 -17 -76 15
-18 33 -8 77 22 89 31 12 34 12 51 -6z m136 12 c0 -1 -4 -16 -10 -32 -5 -16
-14 -49 -20 -73 -7 -25 -15 -40 -20 -35 -8 8 2 59 25 132 4 10 25 18 25 8z
m124 -5 c3 -5 -4 -12 -17 -15 -22 -6 -22 -6 6 -27 35 -27 37 -66 2 -75 -14 -3
-33 -3 -42 1 -16 7 -15 9 6 14 34 9 36 25 6 45 -27 18 -32 35 -13 54 14 14 44
16 52 3z m397 -1 c14 -8 19 -21 19 -53 0 -48 -13 -67 -46 -67 -46 0 -70 74
-35 109 24 24 34 25 62 11z m123 -6 c35 -34 11 -114 -34 -114 -47 0 -67 73
-30 110 24 24 43 25 64 4z m-1174 -20 c0 -14 4 -33 10 -43 13 -25 -13 -62 -31
-43 -7 6 -21 12 -30 12 -30 0 -31 17 -2 59 32 46 53 52 53 15z m718 -29 c-2
-30 -7 -55 -13 -55 -5 0 -11 25 -13 55 -2 45 0 55 13 55 13 0 15 -10 13 -55z
m173 41 l-24 -13 21 -12 c15 -8 22 -21 22 -40 0 -29 -15 -41 -51 -41 -28 0
-23 17 7 24 30 8 27 30 -4 34 -17 3 -22 10 -22 33 0 27 3 29 38 29 36 -1 37
-1 13 -14z m-1101 -16 c0 -5 -4 -10 -10 -10 -5 0 -10 5 -10 10 0 6 5 10 10 10
6 0 10 -4 10 -10z m980 6 c0 -11 -19 -15 -25 -6 -3 5 1 10 9 10 9 0 16 -2 16
-4z m2820 -41 c0 -8 9 -19 20 -25 29 -16 24 -29 -7 -21 -21 5 -29 15 -31 34
-2 15 1 27 7 27 6 0 11 -7 11 -15z m-3680 -5 c0 -5 -9 -10 -19 -10 -11 0 -23
5 -26 10 -4 6 5 10 19 10 14 0 26 -4 26 -10z m-120 -25 c0 -8 -4 -15 -10 -15
-5 0 -10 7 -10 15 0 8 5 15 10 15 6 0 10 -7 10 -15z m980 1 c0 -11 -19 -15
-25 -6 -3 5 1 10 9 10 9 0 16 -2 16 -4z m-600 -16 c0 -5 -4 -10 -10 -10 -5 0
-10 5 -10 10 0 6 5 10 10 10 6 0 10 -4 10 -10z m780 0 c0 -5 -4 -10 -10 -10
-5 0 -10 5 -10 10 0 6 5 10 10 10 6 0 10 -4 10 -10z m2410 -80 c0 -5 -2 -10
-4 -10 -3 0 -8 5 -11 10 -3 6 -1 10 4 10 6 0 11 -4 11 -10z m961 -40 c5 0 9 9
9 19 0 27 19 37 26 14 3 -10 8 -25 11 -33 3 -10 10 -3 18 20 15 39 20 17 9
-39 -8 -40 -30 -40 -40 2 l-7 32 -10 -33 c-13 -41 -29 -36 -43 14 -13 44 -5
72 9 31 5 -15 13 -27 18 -27z m124 -9 c-9 -28 -21 -51 -26 -51 -11 0 -12 13 0
26 5 5 14 26 21 47 7 21 14 36 17 33 3 -2 -3 -27 -12 -55z m53 11 c-2 -31 0
-37 22 -43 21 -5 23 -7 8 -14 -32 -13 -46 1 -50 50 -3 49 -1 58 14 49 5 -3 8
-22 6 -42z m-1038 14 c0 -8 -7 -16 -15 -20 -15 -5 -21 14 -8 27 11 12 23 8 23
-7z m600 -98 c0 -21 0 -21 -16 -2 -14 18 -15 16 -11 -26 5 -41 2 -47 -24 -69
-16 -13 -29 -19 -27 -15 1 5 -2 20 -6 33 -7 19 -4 28 11 41 11 9 25 26 32 38
15 29 41 29 41 0z m-146 -70 c-8 -29 -10 -31 -23 -24 -7 5 -7 13 2 26 16 27
30 25 21 -2z m-209 -18 c3 -5 2 -10 -4 -10 -5 0 -13 5 -16 10 -3 6 -2 10 4 10
5 0 13 -4 16 -10z m53 -16 c14 -15 14 -16 -3 -13 -10 2 -20 10 -23 17 -5 17 6
15 26 -4z m563 -44 c5 0 9 9 9 19 0 27 19 37 26 14 3 -10 8 -25 11 -33 3 -10
10 -3 18 20 15 39 18 25 9 -32 -8 -47 -30 -49 -40 -5 l-7 32 -10 -32 c-6 -18
-14 -33 -19 -33 -12 0 -28 46 -27 78 l1 27 10 -27 c5 -16 14 -28 19 -28z m124
-9 c-9 -28 -21 -51 -26 -51 -5 0 0 23 11 50 11 28 20 54 20 57 0 3 3 4 6 0 3
-3 -2 -28 -11 -56z m55 9 c0 -32 4 -39 23 -43 16 -3 14 -5 -9 -6 -30 -1 -32 1
-36 42 -5 46 -2 60 13 52 5 -4 9 -24 9 -45z m154 37 c22 -16 12 -45 -20 -53
-13 -3 -24 -12 -24 -20 0 -8 -4 -14 -10 -14 -5 0 -10 23 -10 50 0 46 2 50 23
50 13 0 31 -6 41 -13z m331 -45 c0 -23 -4 -41 -10 -39 -11 4 -26 68 -18 80 12
20 28 -3 28 -41z m1457 31 c25 -22 23 -38 -7 -57 l-25 -16 0 45 c0 49 4 53 32
28z m-1740 -35 c-2 -21 -8 -38 -13 -38 -14 0 -11 68 4 73 16 6 15 8 9 -35z
m76 30 c18 -18 14 -38 -8 -38 -27 0 -25 -17 3 -23 15 -4 12 -5 -8 -4 -23 2
-31 7 -33 25 -3 22 13 52 27 52 4 0 12 -5 19 -12z m82 -9 c0 -4 -7 -6 -15 -3
-8 4 -15 1 -15 -4 0 -21 36 -17 58 6 18 19 26 22 37 12 21 -18 18 -40 -5 -40
-11 0 -20 -5 -20 -11 0 -6 9 -9 20 -6 11 3 18 1 14 -4 -8 -13 -54 -11 -54 3 0
9 -3 9 -12 0 -14 -14 -58 -16 -58 -3 0 5 10 7 22 3 14 -3 19 -2 14 6 -4 7 -14
12 -22 12 -17 0 -19 37 -1 43 15 5 37 -3 37 -14z m1205 -244 l0 -100 -290 0
-290 0 -3 89 c-2 49 -1 95 2 102 4 9 72 12 293 11 l288 -2 0 -100z m-752 88
c-7 -2 -21 -2 -30 0 -10 3 -4 5 12 5 17 0 24 -2 18 -5z m1090 0 c-7 -2 -21 -2
-30 0 -10 3 -4 5 12 5 17 0 24 -2 18 -5z m65 -48 c-3 -3 -9 2 -12 12 -6 14 -5
15 5 6 7 -7 10 -15 7 -18z m-2108 9 c0 -3 -11 -22 -25 -42 l-25 -37 27 -6 c25
-6 24 -7 -9 -8 -44 -1 -45 3 -18 44 25 38 25 43 -2 48 -14 3 -9 5 15 6 20 0
37 -1 37 -5z m1785 -15 c4 -6 13 -8 21 -5 17 6 17 1 4 -24 -7 -14 -5 -19 10
-23 26 -7 26 -37 0 -37 -12 0 -20 7 -20 16 0 14 -3 14 -15 4 -9 -8 -15 -9 -15
-2 0 6 5 14 12 18 7 5 4 10 -10 15 -13 5 -22 17 -22 29 0 21 24 28 35 9z
m-1715 -13 c19 -24 8 -61 -19 -64 -38 -6 -54 33 -25 62 19 20 28 20 44 2z m78
5 c8 -5 12 -21 10 -37 -4 -35 -35 -45 -55 -18 -17 23 -16 29 3 48 18 18 24 19
42 7z m130 -4 c14 -10 16 -67 2 -67 -5 0 -10 14 -10 31 0 38 -24 35 -28 -4 -4
-37 -22 -34 -22 3 0 17 -4 30 -10 30 -5 0 -10 -13 -10 -30 0 -16 -4 -30 -10
-30 -17 0 -16 60 1 71 14 8 71 5 87 -4z m1839 -34 c-3 -10 -5 -4 -5 12 0 17 2
24 5 18 2 -7 2 -21 0 -30z m-180 5 c-3 -8 -6 -5 -6 6 -1 11 2 17 5 13 3 -3 4
-12 1 -19z m94 -1 c-13 -13 -26 -3 -16 12 3 6 11 8 17 5 6 -4 6 -10 -1 -17z
m-1167 -43 c3 -8 2 -12 -4 -9 -6 3 -10 10 -10 16 0 14 7 11 14 -7z m1237 -7
c-10 -9 -11 -8 -5 6 3 10 9 15 12 12 3 -3 0 -11 -7 -18z m-1148 -34 c-7 -2
-21 -2 -30 0 -10 3 -4 5 12 5 17 0 24 -2 18 -5z m1090 0 c-7 -2 -21 -2 -30 0
-10 3 -4 5 12 5 17 0 24 -2 18 -5z m-2045 -110 c3 -17 -3 -26 -22 -33 -14 -5
-26 -16 -26 -25 0 -8 -4 -15 -10 -15 -5 0 -10 23 -10 51 l0 50 33 -3 c24 -2
33 -8 35 -25z m68 -1 c6 -4 13 -22 16 -39 4 -32 3 -33 -29 -33 -30 0 -34 3
-31 23 2 12 8 22 15 22 6 0 15 3 19 8 4 4 -3 7 -15 7 -12 0 -19 4 -16 10 7 12
25 13 41 2z m78 2 c18 -7 23 -74 6 -74 -6 0 -10 6 -9 13 7 53 -21 63 -32 11
-6 -28 -7 -27 -8 8 0 21 4 38 12 41 6 3 13 6 14 6 1 1 8 -2 17 -5z m-4785 -99
c1 -39 -2 -65 -9 -65 -6 0 -10 27 -10 65 0 36 4 65 9 65 4 0 9 -29 10 -65z
m590 0 c1 -39 -2 -65 -9 -65 -6 0 -10 27 -10 65 0 36 4 65 9 65 4 0 9 -29 10
-65z m253 42 c4 -7 7 -38 5 -70 -2 -53 -4 -58 -22 -53 -11 3 -25 6 -31 6 -5 0
-20 9 -32 20 -30 28 -30 83 1 105 23 17 66 12 79 -8z m248 -43 c0 -48 -3 -65
-12 -62 -13 5 -23 90 -14 114 13 35 26 9 26 -52z m40 0 c0 -44 -4 -63 -11 -59
-9 6 -11 100 -2 118 10 17 13 3 13 -59z m-1176 23 c15 -42 -10 -81 -53 -85
-20 -2 -37 2 -42 9 -6 10 -5 75 0 107 1 2 20 2 43 0 36 -3 44 -7 52 -31z m579
-23 c-3 -21 -1 -40 8 -50 11 -14 10 -15 -11 -12 -21 2 -26 10 -31 48 -7 50 5
77 27 60 8 -7 11 -24 7 -46z m710 29 c4 -2 7 -11 7 -19 0 -21 21 -17 27 6 7
25 23 26 23 3 -1 -23 -35 -99 -49 -107 -19 -12 -34 5 -16 18 16 11 16 15 1 50
-9 22 -21 36 -28 34 -16 -5 -23 -58 -9 -58 6 0 11 -4 11 -10 0 -18 -29 -11
-40 10 -6 11 -8 20 -6 20 3 0 1 12 -4 26 -6 14 -8 30 -4 35 5 9 68 3 87 -8z
m-1155 -46 l3 -48 -33 3 c-25 2 -34 8 -36 25 -2 14 3 23 17 28 24 7 28 25 6
25 -8 0 -15 5 -15 11 0 6 12 9 28 7 25 -3 27 -7 30 -51z m102 36 c0 -23 -11
-38 -30 -46 -10 -4 -8 -6 6 -6 44 -2 30 -61 -14 -61 -32 0 -41 15 -41 65 2 63
3 65 45 65 26 0 34 -4 34 -17z m98 -35 c2 -29 -1 -48 -7 -48 -11 0 -14 11 -12
40 1 22 -15 44 -28 36 -6 -4 -11 -23 -11 -42 0 -19 -4 -34 -10 -34 -5 0 -10
15 -10 34 0 19 -3 42 -6 51 -6 14 0 16 37 13 l44 -3 3 -47z m100 40 c15 -15
15 -61 0 -76 -15 -15 -51 -15 -66 0 -7 7 -12 24 -12 38 0 31 17 50 45 50 12 0
26 -5 33 -12z m82 2 c0 -5 -7 -10 -15 -10 -21 0 -19 -9 7 -30 19 -15 20 -20 9
-34 -15 -17 -61 -22 -61 -6 0 6 9 10 20 10 11 0 20 4 20 9 0 5 -9 11 -20 14
-19 5 -27 36 -13 50 10 11 53 8 53 -3z m210 0 c0 -5 -9 -10 -19 -10 -20 0 -37
-32 -26 -50 3 -5 16 -10 28 -10 15 0 18 -3 10 -11 -19 -19 -57 -6 -67 23 -8
22 -6 32 9 48 19 21 65 28 65 10z m216 -29 c2 -58 34 -54 34 5 0 19 5 34 10
34 6 0 10 -22 10 -50 l0 -50 -34 0 c-38 0 -46 12 -46 67 0 45 25 40 26 -6z
m143 25 c7 -8 11 -30 9 -48 -3 -30 -6 -33 -38 -33 -45 0 -53 27 -13 49 28 15
28 16 6 22 -13 3 -23 10 -23 15 0 15 47 10 59 -5z m3591 -126 c0 -5 -9 -10
-20 -10 -28 0 -26 -30 3 -31 l22 0 -22 -9 c-13 -6 -23 -18 -23 -30 0 -11 -4
-20 -10 -20 -11 0 -14 93 -3 103 10 11 53 8 53 -3z m76 -41 c-3 -18 -1 -38 5
-45 9 -11 8 -14 -5 -14 -10 0 -16 8 -16 23 0 12 -3 32 -6 45 -5 17 -2 22 11
22 14 0 16 -6 11 -31z m-36 -19 c0 -22 -4 -40 -10 -40 -11 0 -14 63 -3 73 11
12 13 8 13 -33z m-4750 10 c0 -5 -9 -10 -20 -10 -28 0 -25 -14 5 -28 50 -23
17 -94 -35 -77 -29 9 -25 25 6 25 33 0 30 33 -4 38 -15 2 -22 10 -22 26 0 12
3 26 7 29 10 11 63 8 63 -3z m65 -53 c0 -68 -19 -82 -23 -17 -2 24 -8 50 -13
56 -11 14 0 26 21 22 11 -3 15 -17 15 -61z m100 43 c4 -12 0 -31 -9 -45 -18
-27 -21 -46 -7 -43 5 2 10 -1 10 -7 2 -14 -49 -19 -62 -6 -8 8 -3 19 16 39 35
36 35 62 2 62 -14 0 -25 5 -25 10 0 6 15 10 34 10 26 0 36 -5 41 -20z m105 5
c12 -14 15 -14 31 1 25 22 33 13 18 -20 -9 -20 -9 -32 -1 -51 19 -41 14 -50
-13 -25 l-24 23 -21 -24 -22 -24 8 25 c9 34 9 71 0 93 -10 21 7 23 24 2z m200
5 c0 -5 -9 -10 -20 -10 -26 0 -26 -17 -1 -25 53 -17 21 -95 -33 -81 -34 8 -33
24 2 28 33 4 37 32 5 36 -16 2 -23 10 -23 26 0 12 3 26 7 29 10 11 63 8 63 -3z
m60 -49 c0 -94 -27 -90 -30 4 -2 54 -2 55 15 55 12 0 15 -13 15 -59z m100 44
c9 -11 9 -21 -4 -46 -20 -40 -20 -49 0 -49 8 0 12 -4 9 -10 -8 -13 -62 -13
-70 0 -4 6 5 24 19 41 33 39 33 59 1 59 -14 0 -25 5 -25 10 0 16 56 12 70 -5z
m4423 -198 c12 -5 17 -17 16 -44 -1 -37 -2 -37 -8 -8 -7 35 -34 40 -36 8 -4
-50 -15 -32 -15 23 1 48 3 56 13 43 7 -8 20 -18 30 -22z m-383 -21 c0 -38 3
-45 23 -49 16 -3 13 -5 -10 -6 l-33 -1 0 50 c0 28 5 50 10 50 6 0 10 -20 10
-44z m-4655 22 c4 -4 -5 -24 -19 -45 -32 -47 -32 -53 -1 -53 14 0 25 -4 25
-10 0 -5 -20 -10 -45 -10 -25 0 -45 5 -45 11 0 5 11 27 25 47 17 26 21 38 13
40 -33 9 -39 13 -33 21 6 11 70 10 80 -1z m504 -22 c-2 -11 1 -31 5 -44 10
-30 -9 -52 -45 -52 -32 0 -53 27 -39 50 5 8 7 25 4 37 -5 18 -1 25 17 31 35
13 61 3 58 -22z m119 -25 c4 -48 -10 -71 -42 -71 -33 0 -46 19 -46 67 0 36 4
45 23 52 39 15 62 -1 65 -48z m163 22 c10 -27 2 -74 -15 -85 -38 -26 -76 4
-76 61 0 57 71 76 91 24z m100 27 c14 -8 19 -21 19 -53 0 -47 -13 -67 -45 -67
-31 0 -45 19 -45 59 0 46 11 61 48 70 2 1 12 -4 23 -9z m87 -2 c7 -7 12 -21
12 -33 0 -16 4 -14 21 12 12 18 25 30 30 27 5 -3 2 -16 -7 -30 -15 -23 -15
-24 4 -24 27 0 42 -21 35 -48 -7 -28 -37 -29 -56 -1 -14 20 -15 20 -37 -8 -17
-22 -21 -24 -17 -8 3 11 8 28 12 37 5 12 1 17 -17 20 -26 3 -36 32 -18 53 15
18 22 19 38 3z m4006 -36 c0 -23 -3 -41 -9 -39 -11 4 -26 68 -18 80 12 19 26
-2 27 -41z m-213 22 c11 -14 13 -14 21 0 11 19 39 21 56 4 14 -14 16 -68 2
-68 -5 0 -10 14 -10 30 0 20 -5 30 -15 30 -10 0 -15 -10 -15 -30 0 -16 -4 -30
-10 -30 -5 0 -10 9 -10 20 0 15 -7 20 -25 20 -16 0 -25 -6 -25 -16 0 -10 6
-14 15 -10 8 3 15 1 15 -5 0 -6 -10 -9 -22 -7 -15 2 -24 11 -26 26 -7 48 21
69 49 36z m167 -31 c3 -34 -1 -44 -18 -53 -11 -6 -26 -8 -33 -3 -8 5 -4 9 13
14 24 7 24 7 3 8 -15 1 -25 9 -29 26 -8 31 12 57 40 53 17 -2 22 -11 24 -45z
m-4834 6 l14 -21 11 21 c13 23 50 28 69 9 7 -7 12 -24 12 -38 0 -14 -5 -31
-12 -38 -19 -19 -56 -14 -69 9 l-11 21 -14 -21 c-29 -40 -84 -21 -84 29 0 50
55 69 84 29z m254 -31 c4 -56 -15 -66 -20 -11 -4 52 -28 56 -28 4 0 -51 -18
-54 -22 -4 -4 50 -26 55 -30 7 -5 -60 -28 -55 -28 6 l0 51 63 -3 62 -3 3 -47z
m322 -38 c0 -5 -4 -10 -10 -10 -5 0 -10 5 -10 10 0 6 5 10 10 10 6 0 10 -4 10
-10z"/>
<path d="M4350 5000 c0 -5 5 -10 10 -10 6 0 10 5 10 10 0 6 -4 10 -10 10 -5 0
-10 -4 -10 -10z"/>
<path d="M94 4826 c-10 -26 0 -71 16 -71 22 0 27 70 5 79 -9 3 -18 0 -21 -8z"/>
<path d="M212 4831 c2 -7 7 -12 11 -12 12 1 9 15 -3 20 -7 2 -11 -2 -8 -8z"/>
<path d="M211 4776 c-9 -10 -9 -16 -1 -21 17 -10 37 12 24 25 -8 8 -15 6 -23
-4z"/>
<path d="M185 4611 c-9 -30 4 -63 23 -59 12 2 17 14 17 38 0 40 -29 55 -40 21z"/>
<path d="M366 4622 c-2 -4 -1 -14 4 -22 7 -11 12 -12 21 -3 6 6 8 16 5 22 -8
13 -23 14 -30 3z"/>
<path d="M544 4616 c-10 -25 0 -61 19 -64 14 -3 17 4 17 37 0 30 -4 41 -15 41
-9 0 -18 -6 -21 -14z"/>
<path d="M815 4611 c-9 -30 4 -63 23 -59 12 2 17 14 17 38 0 40 -29 55 -40 21z"/>
<path d="M515 4380 c-3 -5 -1 -10 4 -10 6 0 11 5 11 10 0 6 -2 10 -4 10 -3 0
-8 -4 -11 -10z"/>
<path d="M4480 3926 c0 -14 25 -133 36 -169 10 -34 24 -5 24 51 0 80 -16 132
-40 132 -11 0 -20 -6 -20 -14z"/>
<path d="M4037 3898 c-15 -11 -16 -18 -8 -41 13 -32 1 -35 -25 -6 -16 18 -27
21 -74 16 -30 -3 -80 -17 -110 -32 -30 -15 -66 -32 -80 -39 -38 -19 -33 -89
14 -189 19 -42 39 -96 42 -119 8 -51 68 -164 95 -179 11 -5 28 -8 37 -5 27 9
69 103 81 181 6 39 17 95 26 125 8 30 15 84 15 120 0 63 1 66 28 76 34 13 45
43 28 76 -14 27 -44 34 -69 16z"/>
<path d="M4101 3404 c0 -11 3 -14 6 -6 3 7 2 16 -1 19 -3 4 -6 -2 -5 -13z"/>
<path d="M3838 3053 c7 -3 16 -2 19 1 4 3 -2 6 -13 5 -11 0 -14 -3 -6 -6z"/>
<path d="M3830 3030 c0 -5 5 -10 10 -10 6 0 10 5 10 10 0 6 -4 10 -10 10 -5 0
-10 -4 -10 -10z"/>
<path d="M4926 3861 c-8 -12 3 -41 15 -41 5 0 9 11 9 25 0 25 -14 34 -24 16z"/>
<path d="M4800 3655 c0 -8 7 -15 15 -15 8 0 15 7 15 15 0 8 -7 15 -15 15 -8 0
-15 -7 -15 -15z"/>
<path d="M3457 3584 c-4 -4 -7 -16 -7 -26 0 -10 -4 -18 -10 -18 -5 0 -10 5
-10 10 0 6 -4 10 -10 10 -13 0 -8 -103 5 -112 7 -5 6 -14 -2 -28 -20 -31 -16
-31 27 -2 l41 26 -7 56 c-8 65 -17 94 -27 84z"/>
<path d="M3340 2801 c-12 -23 -5 -47 17 -55 21 -8 21 -7 15 37 -5 41 -16 47
-32 18z"/>
<path d="M4962 3618 c2 -13 8 -23 13 -23 6 0 11 10 13 23 2 15 -2 22 -13 22
-11 0 -15 -7 -13 -22z"/>
<path d="M5040 3628 c0 -7 4 -19 9 -27 7 -11 11 -10 20 6 5 11 7 23 4 27 -11
11 -33 7 -33 -6z"/>
<path d="M1282 3141 c4 -13 18 -16 19 -4 0 4 -5 9 -11 12 -7 2 -11 -2 -8 -8z"/>
<path d="M2406 3194 c-16 -41 5 -84 31 -63 16 14 17 51 1 67 -16 16 -25 15
-32 -4z"/>
<path d="M1504 3165 c-7 -18 2 -45 15 -45 12 0 24 37 16 50 -9 15 -25 12 -31
-5z"/>
<path d="M1610 3150 c0 -21 4 -30 13 -27 6 2 12 14 12 27 0 13 -6 25 -12 28
-9 2 -13 -7 -13 -28z"/>
<path d="M1710 3130 c0 -5 5 -10 10 -10 6 0 10 5 10 10 0 6 -4 10 -10 10 -5 0
-10 -4 -10 -10z"/>
<path d="M2066 3164 c-7 -19 12 -47 25 -38 5 3 9 16 9 30 0 27 -24 33 -34 8z"/>
<path d="M4880 3150 c0 -5 5 -10 10 -10 6 0 10 5 10 10 0 6 -4 10 -10 10 -5 0
-10 -4 -10 -10z"/>
<path d="M5026 3183 c-12 -12 -6 -43 9 -43 8 0 15 9 15 19 0 21 -13 34 -24 24z"/>
<path d="M320 2985 c0 -8 7 -15 15 -15 8 0 15 7 15 15 0 8 -7 15 -15 15 -8 0
-15 -7 -15 -15z"/>
<path d="M692 2963 c2 -26 8 -38 18 -38 10 0 16 12 18 38 3 32 0 37 -18 37
-18 0 -21 -5 -18 -37z"/>
<path d="M854 2986 c-10 -25 0 -61 18 -64 19 -4 32 29 23 58 -7 23 -33 27 -41
6z"/>
<path d="M970 2960 c0 -34 3 -41 18 -38 12 2 17 13 17 38 0 25 -5 36 -17 38
-15 3 -18 -4 -18 -38z"/>
<path d="M4800 2945 c0 -41 26 -49 36 -11 7 29 -1 46 -22 46 -9 0 -14 -11 -14
-35z"/>
<path d="M4930 2950 c0 -5 5 -10 10 -10 6 0 10 5 10 10 0 6 -4 10 -10 10 -5 0
-10 -4 -10 -10z"/>
<path d="M5000 2935 c0 -15 6 -25 14 -25 19 0 27 25 13 39 -18 18 -27 13 -27
-14z"/>
<path d="M5120 2920 c0 -5 5 -10 10 -10 6 0 10 5 10 10 0 6 -4 10 -10 10 -5 0
-10 -4 -10 -10z"/>
<path d="M5470 2935 c0 -17 5 -25 13 -22 6 2 12 12 12 22 0 10 -6 20 -12 23
-8 2 -13 -6 -13 -23z"/>
<path d="M5730 2920 c0 -5 4 -10 9 -10 6 0 13 5 16 10 3 6 -1 10 -9 10 -9 0
-16 -4 -16 -10z"/>
<path d="M5886 2943 c-9 -22 10 -41 25 -26 13 13 5 43 -10 43 -5 0 -12 -8 -15
-17z"/>
<path d="M256 2765 c-3 -8 -1 -15 4 -15 6 0 10 7 10 15 0 8 -2 15 -4 15 -2 0
-6 -7 -10 -15z"/>
<path d="M556 2784 c-9 -24 -7 -38 8 -59 13 -18 14 -18 26 4 14 27 5 71 -14
71 -8 0 -17 -7 -20 -16z"/>
<path d="M677 2793 c-15 -15 -4 -83 14 -83 4 0 13 10 20 21 17 33 -11 85 -34
62z"/>
<path d="M834 2773 c-7 -26 4 -54 23 -60 14 -5 24 35 17 64 -8 31 -32 29 -40
-4z"/>
<path d="M954 2787 c-10 -27 0 -72 16 -72 11 0 15 11 15 39 0 40 -20 61 -31
33z"/>
<path d="M4800 2714 c0 -23 4 -34 12 -32 33 11 36 68 3 68 -11 0 -15 -10 -15
-36z"/>
<path d="M5310 2726 c0 -9 5 -16 10 -16 6 0 10 4 10 9 0 6 -4 13 -10 16 -5 3
-10 -1 -10 -9z"/>
<path d="M5000 2706 c0 -17 5 -26 16 -26 10 0 14 7 12 22 -5 32 -28 35 -28 4z"/>
<path d="M5120 2690 c0 -5 5 -10 10 -10 6 0 10 5 10 10 0 6 -4 10 -10 10 -5 0
-10 -4 -10 -10z"/>
<path d="M5550 2711 c0 -11 5 -23 11 -27 14 -8 29 14 22 33 -8 20 -33 16 -33
-6z"/>
<path d="M5680 2690 c0 -5 4 -10 9 -10 6 0 13 5 16 10 3 6 -1 10 -9 10 -9 0
-16 -4 -16 -10z"/>
<path d="M5843 2714 c-8 -21 13 -42 28 -27 13 13 5 43 -11 43 -6 0 -13 -7 -17
-16z"/>
<path d="M255 2561 c-3 -5 -1 -12 5 -16 5 -3 10 1 10 9 0 18 -6 21 -15 7z"/>
<path d="M784 2575 c-9 -22 4 -65 20 -65 16 0 29 41 20 64 -8 20 -33 21 -40 1z"/>
<path d="M904 2576 c-10 -25 0 -61 17 -64 19 -3 33 36 23 62 -8 20 -33 21 -40
2z"/>
<path d="M4800 2484 c0 -23 4 -34 12 -32 33 11 36 68 3 68 -11 0 -15 -10 -15
-36z"/>
<path d="M4935 2490 c3 -5 8 -10 11 -10 2 0 4 5 4 10 0 6 -5 10 -11 10 -5 0
-7 -4 -4 -10z"/>
<path d="M5000 2475 c0 -16 6 -25 15 -25 9 0 15 9 15 25 0 16 -6 25 -15 25 -9
0 -15 -9 -15 -25z"/>
<path d="M5120 2460 c0 -5 5 -10 10 -10 6 0 10 5 10 10 0 6 -4 10 -10 10 -5 0
-10 -4 -10 -10z"/>
<path d="M5500 2460 c0 -5 4 -10 9 -10 6 0 13 5 16 10 3 6 -1 10 -9 10 -9 0
-16 -4 -16 -10z"/>
<path d="M5785 2490 c4 -6 11 -8 16 -5 14 9 11 15 -7 15 -8 0 -12 -5 -9 -10z"/>
<path d="M5990 2489 c0 -5 5 -7 10 -4 6 3 10 8 10 11 0 2 -4 4 -10 4 -5 0 -10
-5 -10 -11z"/>
<path d="M446 2374 c-8 -22 -7 -47 3 -63 8 -12 12 -12 25 -2 19 16 21 52 4 69
-16 16 -25 15 -32 -4z"/>
<path d="M564 2377 c-10 -27 0 -72 16 -72 11 0 15 11 15 39 0 40 -20 61 -31
33z"/>
<path d="M684 2377 c-10 -27 0 -72 16 -72 11 0 15 11 15 39 0 40 -20 61 -31
33z"/>
<path d="M844 2376 c-9 -25 0 -71 15 -71 19 0 30 35 20 63 -9 25 -27 29 -35 8z"/>
<path d="M964 2377 c-10 -27 0 -72 16 -72 11 0 15 11 15 39 0 40 -20 61 -31
33z"/>
<path d="M5102 2248 c2 -13 8 -23 13 -23 6 0 11 10 13 23 2 15 -2 22 -13 22
-11 0 -15 -7 -13 -22z"/>
<path d="M4892 2248 c2 -13 8 -23 13 -23 6 0 11 10 13 23 2 15 -2 22 -13 22
-11 0 -15 -7 -13 -22z"/>
<path d="M390 2140 c0 -34 3 -41 18 -38 12 2 17 13 17 38 0 25 -5 36 -17 38
-15 3 -18 -4 -18 -38z"/>
<path d="M554 2166 c-10 -25 0 -61 17 -64 19 -3 30 27 22 58 -6 23 -31 27 -39
6z"/>
<path d="M668 2163 c-6 -30 3 -63 18 -63 16 0 29 43 20 65 -8 21 -34 19 -38
-2z"/>
<path d="M4810 2036 c0 -9 5 -16 10 -16 6 0 10 4 10 9 0 6 -4 13 -10 16 -5 3
-10 -1 -10 -9z"/>
<path d="M4890 2014 c0 -31 23 -28 28 4 2 15 -2 22 -12 22 -11 0 -16 -9 -16
-26z"/>
<path d="M5170 2036 c0 -9 5 -16 10 -16 6 0 10 4 10 9 0 6 -4 13 -10 16 -5 3
-10 -1 -10 -9z"/>
<path d="M4972 2018 c2 -13 8 -23 13 -23 6 0 11 10 13 23 2 15 -2 22 -13 22
-11 0 -15 -7 -13 -22z"/>
<path d="M97 1973 c-13 -12 -7 -33 8 -33 8 0 15 9 15 20 0 20 -11 26 -23 13z"/>
<path d="M206 1973 c-12 -12 -6 -33 9 -33 8 0 15 6 15 14 0 17 -14 28 -24 19z"/>
<path d="M4190 1830 c0 -5 9 -10 21 -10 11 0 17 5 14 10 -3 6 -13 10 -21 10
-8 0 -14 -4 -14 -10z"/>
<path d="M5008 1803 c7 -3 16 -2 19 1 4 3 -2 6 -13 5 -11 0 -14 -3 -6 -6z"/>
<path d="M507 1750 c-8 -31 3 -61 22 -58 11 2 16 14 16 38 0 40 -29 55 -38 20z"/>
<path d="M624 1756 c-10 -27 5 -68 24 -64 24 5 24 71 -1 76 -9 2 -20 -4 -23
-12z"/>
<path d="M4888 1573 c7 -3 16 -2 19 1 4 3 -2 6 -13 5 -11 0 -14 -3 -6 -6z"/>
<path d="M5000 1580 c0 -5 5 -10 11 -10 5 0 7 5 4 10 -3 6 -8 10 -11 10 -2 0
-4 -4 -4 -10z"/>
<path d="M555 1550 c-8 -13 4 -70 15 -70 15 0 31 29 28 52 -3 24 -32 36 -43
18z"/>
<path d="M714 1545 c-9 -22 4 -65 20 -65 16 0 29 41 20 64 -8 20 -33 21 -40 1z"/>
<path d="M830 1533 c0 -16 4 -34 9 -42 14 -22 31 -3 31 35 0 27 -4 34 -20 34
-15 0 -20 -7 -20 -27z"/>
<path d="M1490 1533 c0 -15 5 -35 10 -43 9 -13 12 -12 26 5 21 28 14 59 -13
63 -19 3 -23 -1 -23 -25z"/>
<path d="M1612 1523 c2 -26 8 -38 18 -38 10 0 16 12 18 38 3 32 0 37 -18 37
-18 0 -21 -5 -18 -37z"/>
<path d="M451 1514 c0 -11 3 -14 6 -6 3 7 2 16 -1 19 -3 4 -6 -2 -5 -13z"/>
<path d="M5100 1134 c0 -9 7 -14 17 -12 25 5 28 28 4 28 -12 0 -21 -6 -21 -16z"/>
<path d="M5240 1120 c0 -5 5 -10 10 -10 6 0 10 5 10 10 0 6 -4 10 -10 10 -5 0
-10 -4 -10 -10z"/>
<path d="M5390 1120 c0 -5 5 -10 10 -10 6 0 10 5 10 10 0 6 -4 10 -10 10 -5 0
-10 -4 -10 -10z"/>
<path d="M6195 938 c-2 -7 -6 -31 -7 -53 -3 -38 -2 -40 28 -43 37 -4 44 8 35
63 -5 31 -11 41 -29 43 -12 2 -24 -3 -27 -10z m37 -20 c-9 -9 -15 -9 -24 0 -9
9 -7 12 12 12 19 0 21 -3 12 -12z m4 -39 c10 -17 -13 -36 -27 -22 -12 12 -4
33 11 33 5 0 12 -5 16 -11z"/>
<path d="M6282 938 c-18 -18 -14 -73 6 -91 16 -15 20 -15 40 -1 39 27 25 104
-18 104 -9 0 -21 -5 -28 -12z m46 -47 c-4 -44 -31 -50 -36 -8 -5 39 4 58 23
51 12 -5 15 -17 13 -43z"/>
<path d="M6610 910 c0 -5 5 -10 11 -10 5 0 7 5 4 10 -3 6 -8 10 -11 10 -2 0
-4 -4 -4 -10z"/>
<path d="M4880 881 c0 -11 5 -23 11 -27 14 -8 29 14 22 33 -8 20 -33 16 -33
-6z"/>
<path d="M4963 884 c-8 -21 13 -42 28 -27 13 13 5 43 -11 43 -6 0 -13 -7 -17
-16z"/>
<path d="M4800 686 c0 -21 20 -30 33 -17 9 9 8 14 -3 21 -21 14 -30 12 -30 -4z"/>
<path d="M4890 630 c0 -5 5 -10 10 -10 6 0 10 5 10 10 0 6 -4 10 -10 10 -5 0
-10 -4 -10 -10z"/>
<path d="M982 583 c4 -44 30 -57 48 -23 16 31 4 60 -26 60 -23 0 -25 -3 -22
-37z"/>
<path d="M90 586 c0 -38 10 -49 34 -40 10 4 16 18 16 40 0 30 -3 34 -25 34
-22 0 -25 -4 -25 -34z"/>
<path d="M260 550 c0 -5 5 -10 10 -10 6 0 10 5 10 10 0 6 -4 10 -10 10 -5 0
-10 -4 -10 -10z"/>
<path d="M350 590 c0 -5 5 -10 10 -10 6 0 10 5 10 10 0 6 -4 10 -10 10 -5 0
-10 -4 -10 -10z"/>
<path d="M345 520 c-3 -5 3 -10 15 -10 12 0 18 5 15 10 -3 6 -10 10 -15 10 -5
0 -12 -4 -15 -10z"/>
<path d="M550 569 c0 -38 24 -35 28 4 2 19 -1 27 -12 27 -11 0 -16 -10 -16
-31z"/>
<path d="M1210 550 c0 -5 5 -10 10 -10 6 0 10 5 10 10 0 6 -4 10 -10 10 -5 0
-10 -4 -10 -10z"/>
<path d="M605 200 c4 -6 11 -8 16 -5 14 9 11 15 -7 15 -8 0 -12 -5 -9 -10z"/>
<path d="M592 148 c7 -19 38 -22 38 -4 0 10 -9 16 -21 16 -12 0 -19 -5 -17
-12z"/>
<path d="M707 204 c-14 -14 -7 -65 9 -71 20 -8 35 14 32 47 -3 24 -27 38 -41
24z"/>
<path d="M872 173 c2 -26 8 -38 18 -38 10 0 16 12 18 38 3 32 0 37 -18 37 -18
0 -21 -5 -18 -37z"/>
<path d="M984 196 c-10 -27 5 -68 24 -64 24 5 24 71 -1 76 -9 2 -20 -4 -23
-12z"/>
<path d="M1090 206 c0 -9 5 -16 10 -16 6 0 10 4 10 9 0 6 -4 13 -10 16 -5 3
-10 -1 -10 -9z"/>
<path d="M1170 145 c0 -9 5 -15 11 -13 6 2 11 8 11 13 0 5 -5 11 -11 13 -6 2
-11 -4 -11 -13z"/>
<path d="M5032 188 c2 -13 8 -23 13 -23 6 0 11 10 13 23 2 15 -2 22 -13 22
-11 0 -15 -7 -13 -22z"/>
<path d="M191 172 c-7 -13 -6 -23 1 -30 19 -19 28 -14 28 18 0 34 -14 39 -29
12z"/>
<path d="M294 176 c-8 -22 3 -49 19 -43 6 2 12 14 12 27 0 27 -22 39 -31 16z"/>
</g>
</svg>
